<?xml version="1.0" encoding="utf-8"?>
<!-- Generator: Adobe Illustrator 15.1.0, SVG Export Plug-In . SVG Version: 6.00 Build 0)  -->
<!DOCTYPE svg PUBLIC "-//W3C//DTD SVG 1.1//EN" "http://www.w3.org/Graphics/SVG/1.1/DTD/svg11.dtd">
<svg version="1.1" id="Ebene_1" xmlns="http://www.w3.org/2000/svg" xmlns:xlink="http://www.w3.org/1999/xlink" x="0px" y="0px"
	 width="1000px" height="1000px" viewBox="-773.5 -55.5 1000 1000" enable-background="new -773.5 -55.5 1000 1000"
	 xml:space="preserve">
<g id="layer1" transform="translate(-36.935893,-183.78194)">
	<g id="g3341">
		<g id="g3495" transform="matrix(1.2580453,-7.9958428e-2,7.9958428e-2,1.2580453,-137.90861,157.34541)">
			<g id="g3473">
				<path id="path3471" fill="#070708" stroke="#010202" stroke-width="0.125" d="M37.86,556.448
					c15.511,9.053-6.615,6.171,4.501,13.71c-24.278-16.956-0.49,16.038,12.885,14.531c21.476,8.309,46.831-1.017,67.481,10.929
					c6.104-7.968,38.395-32.057,12.099-20.032c-7.202,6.824-48.864-2.319-31.561-4.315c28.422-5.859,15.794-4.994-5.523-2.677
					c-24.382-1.437-20.777-10.718,2.774-7.569c15.408-2.453,49.092-31.297,10.773-12.803c-21.106,8.073-47.463,10.455-12.065,0.581
					c51.46-11.789-30.446-6.955-21.677-8.162c23.196-4.876,47.67-4.636,68.408-17.527c-15.606,2.279-31.091,10.245-46.825,4.722
					c8.317-1.91,51.686-7.011,27.498-5.95c-8.5-0.508-50.265,2.563-33.444-0.666c8.727-2.06,54.313-10.229,42.492-8.959
					c-39.48-0.072-81.766,6.157-117.023-15.954c22.412,16.291,11.433,9.371,1.74,5.932C34.951,514.919-1.8,521.868,31.57,521.423
					c11.702,4.369,15.654,20.417,34.834,20.947c28.311,8.759-32.058-2.535-18.913,4.86c8.012,3.14,41.144,25.87,24.223,21.106
					C60.419,564.361,49.125,560.388,37.86,556.448z"/>
				<g id="g3451">
					<path id="path3443" fill="#070708" stroke="#010202" stroke-width="0.125" d="M-56.438,646.729
						c10.591-28.868,43.302-32.803,68.167-43.508c39.365,7.683,79.992,5.613,119.125-0.464c14.463-9.553,28.922-16.509,43.233-2.705
						c24.369,17.041,55.018,15.749,83.257,20.608c27.861-0.314-14.951,1.311-24.473,2.004c-24.077-2.701-24.45-2.885-0.658,3.791
						c28.351,3.085,18.828,3.025-4.029,1.829c-23.088-4.643-28.434,2.763-2.796,5.387c16.062,0.363,31.091,6.9,45.998,12.338
						c-23.123-7.628-19.75-0.133-20.823,0.103c-23.848-10.849-2.002,5.246-27.259-6.142c6.522,9.428,1.874,3.583-5.217,2.86
						c19.675,17.721,7.086,18.22-6.158,1.004c-1.062,21.759-20.153-8.177-14.516,10.881c-18.14,4.556-5.64,5.463-15.731-12.387
						c-6.455,7.448-40.64,27.76-22.223,5.965c0.116-14.94,42.499-12.84,22.573-19.543c-14.906,4.153-37.11-0.531-38.19,20.506
						c-9.725,11.699-34.68,17.266-19.753-5.891c-8.382,8.497-27.823,35.295-14.326,8.151c5.027-16.52-22.521,14.19-34.165,7.644
						c-22.589,3.151,6.162-28.813-23.902-13.275c-20.322,11.651-17.535,17.505-4.883-5.683
						c16.368-27.395-29.679-0.603-10.764-17.363c-7.367-23.13-15.488,20.361-10.096,19.309c-11.466-7.08-2.108,18.534-25.777,20.51
						c18.607-21.254,10.142-16.997-8.296-3.462c-23.271,16.916,27.346-26.52-2.569-6.017c-26.262,16.02-10.944,4.147,4.706-7.928
						c25.17-18.03,5.846-7.695-10.469,0.698c15.55-14.792,21.293-21.372-0.091-5.378c-16.436,12.074,25.254-28.69,12.347-19.904
						c-15.443,11.079-31.788,4.812-14.228,11.894c-22.319,0.923-21.455,7.521-15.692,10.197c-12.861,1.749,10.05,24.824-11.451,1.02
						c-8.362,17.511-2.302,10.487-5.035,1.493c-9.918,6.666-24.181,16.602-7.383,2.866L-56.438,646.729z"/>
					<g id="g3427">
						<g id="g3410">
							<path id="path3408" fill="#070708" stroke="#010202" stroke-width="0.125" d="M-31.982,388.859
								c8.532-10.091,36.517-27.75,7.188-23.007c21.212-3.19,0.843-6.698,0.617-8.701c16.028-7.418,12.027-4.528,22.469-2.534
								c-10.819-11.705,0.303-20.909-22.018-28.294c-14.372-0.721-32.548-5.437-43.995,5.608
								c-18.334,9.131,6.735-22.955,19.128-18.35c14.533-7.368,32.515,2.932,44.351,9.988c4.273,16.55,14.362,27.888,29.258,35.747
								c10.953,10.35,27.953,22.978,16.668,39.037c-11.735,14.057,37.745,23.841,17.046,28.556
								c-11.349-0.096-45.179,17.416-29.039-4.38c-2.067-11.63-31.352-13.395-20.666-33.164
								c-4.021-20.254,36.639,12.224,16.455-13.372c3.628-23.024-23.255,2.275-34.702,3.216
								C-16.802,382.43-24.398,385.619-31.982,388.859z"/>
							<g id="g3397">
								<g id="g3386">
									<path id="path3384" fill="#070708" stroke="#010202" stroke-width="0.125" d="M-107.946,238.376
										c19.264-9.376,26.767-7.312,26.535,13.49c18.559,23.921,11.89,3.435,6.85-14.159c-0.383-17.441,26.14-6.534,36.801-3.706
										c19.394,3.718,35.39,17.244,48.775,31.214c-6.657,11.381,8.679,45.377,14.969,22.875c4.373-17.331,28.27-9.766,41.1-18.349
										c14.964-0.268,23.224,19.149,34.041,23.573c18.5,9.948,27.224-20.065,38.674,2.154c1.748-3.289,23.186-7.508,27.25,0.721
										c-25.976-18.763,23.338,9.791-7.878-8.792c-15.078-11.56-33.78-12.796-50.777-5.008
										c1.128-13.705,41.546-5.169,26.915-13.429c-24.054-14.423-6.961-8.317,1.683-8.569c-7.537-3.542-44.413-23.143-22.76-13.33
										c20.788,12.307-12.602-20.495,18.595-7.944c16.487,10.606,13.379,11.05,27.037,10.635
										c11.601-8.918,5.94-13.222-11.394-24.107c-15.419-10.234-35.892,1.761-50.528-3.885
										c-3.444-18.983-32.369-6.484-31.119-26.147c-19.353-13.947,20.798-26.695-3.852-35.784
										c-14.518-11.796-36.251-3.94-53.854-7.577c-24.236-1.717-48.534-3.983-72.085,3.469
										c18.338,7.965,36.723,15.95,55.108,23.935c-21.987-5.567-43.989-11.136-66.009-16.689
										c-2.36,17.7-1.428,33.059,20.113,33.53c17.09,5.641,32.448,15.582,48.781,23.052c-27.765-5.742-55.475-11.85-83.41-16.688
										c6.431,13.127,40.069,15.793,10.721,22.845C-87.716,229.943-97.832,234.176-107.946,238.376z"/>
									<g id="g3377">
										<g id="g3301">
											<path id="path3266" fill="#070708" stroke="#010202" stroke-width="0.125" d="M-395.066,207.297
												c-31.072,1.377,1.697,1.311,10.89,13.618c-5.337,2.965-46.529-0.696-17.33,3.422c6.346,4.621,42.1,2.002,18.412,6.543
												c-30.358,10.58,0.626,0.745,5.623,10.958c-1.214,13.042-24.102,22.926,2.542,15.013
												c15.067-7.19,29.055,16.489,3.286,6.335c-8.374-5.007-46.188,10.584-28.356,7.852c17.656-2.502,33.85,6.145,7.113,3.403
												c1.297,10.892-9.861,5.018-27.923,6.581c-11.525,0.406,29.308,4.926,9.407,8.697c13.173,0.164,44.23,8.361,13.843,8.29
												c7.25,10.339,39.769-2.461,26.589,8.105c15.637,11.354,2.344,13.588-18.142,14.692
												c-16.301,0.856-31.924,3.424-43.489,16.064c-17.456,16.259-41.249,22.974-58.894,38.661
												c15.223,0.198,9.2-7.482,27.49-3.561c8.603,11.5,7.181-3.473,15.062-14.423c5.527,12.957,6.35-2.515,10.908,3.997
												c20.866-21.206-13.204,27.836,9.831,3.287c13.246-18.403,4.42,18.772,12.35-9.608c13.716-0.812,12.25-3.487,5.44,16.864
												c-22.187,17.515,1.127-0.073,1.768,5.982c3.417-13.64,21.577,6.214,12.126-11.129c5.851-6.765,14.647,7.25,12.865-12.157
												c12.871,7.682,0.422-14.712,18.344-9.547c-11.391-6.995,20.049-8.108,0.424-12.226
												c4.217-0.742,29.429-3.278,41.071-9.305c-28.802-0.019-16.832-3.652,4.17-8.075c10.104-4.041,43.857-3.435,20.463,7.074
												c-6.764,5.488-33.845,5.643-12.249,10.288c-17.258,8.846-28.696-6.988-32.816,6.863
												c34.409,6.437-16.066,3.726-16.417,7.232c12.159-0.799-18.034,12.983-2.095,11.51
												c-22.111,20.358,10.901,0.067,21.535-3.731c11.378-3.896-39.748,25.347-12.185,15.84
												c22.883-6.019,41.584-30.507,66.556-26.995c-14.421,6.364-27.936,12.081-41.61,20.818
												c-8.195,11.86,20.922-7.7,27.775-11.065c8.207,5.622-31.483,22.986,0.993,15.924
												c11.651-2.386,25.274,15.913,13.863-7.169c-4.109-6.756,21.641-5.152,23.228-23.046
												c20.676-16.712-1.557,23.236,16.254-3.666c10.713,2.781-12.459,24.692-17.011,33.736
												c-18.741,19.321,14.19-2.722,19.303-11.25c7.978-16.269,27.221-19.761,14.464-5.528
												c-18.856,13.3-18.66,12.992,2.985,5.771c1.997,7.44-14.419,22.98,10.638,10.267c8.009-4.896-0.734-14.705,23.03-7.325
												c25.159,2.336-8.822-14.609-19.961-12.463c-16.532-16.703,2.545-14.048,15.316-8.072
												c11.486-26.791,12.753,8.284,17.821,20.394c-1.015,13.952-6.634,15.055,5.162,21.738
												c-12.678,9.972,19.078,20.554,23.951,32.7c8.78,19.306,27.041,7.797,42.517,5.269
												c-3.816,22.948-10.34,8.003,1.723,23.108c1.789,9.447,17.226-20.716,32.703-17.199
												c16.492-16.481,17.057,22.575,23.281-5.465c15.463,17.373,16.483-10.788,15.916-22.564
												c-6.062-7.313-23.394,4.207-28.746-10.246c-9.549-20.847-19.656-13.471-13.318-10.245
												c-6.458,0.166-14.031-4.821-30.268-8.756c9.493-4.528-15.057-19.978,4.416-10.945
												c-6.649-22.554-44.122-72.375-33.517-81.789c20.722-3.302-18.427-6.303-25.609-9.887
												c-12.754-8.268-32.641-4.223-37.97-21.819c-19.729,0.542-16.688,0.639-8.184,6.633
												c-21.206,9.397-4.768,26.576-12.87,23.334c-18.049,8.684-26.21-3.959-23.761,6.958
												c-18.982,9.475-15.041-9.119-30.695-14.91c-27.945-5.689,12.063,3.237,13.174-1.632
												c9.522,2.08,34.161,2.01,32.412-14.379c-3.919-13.032-29.539-23.256-22.574-4.658
												c-5.887-8.81-40.715-10.173-27.149-17.955c-10.769-8.703-24.283,17.702-36.921,2.063
												c-14.136-11.756-33.699-9.792-50.527-8.712C-378.133,223-385.52,212.041-395.066,207.297z M-341.764,277.562
												c9.951,0.889,51.645,1.967,22.669,2.659c-31.005,0.82-9.676,1.341,9.055,1.859c8.749,3.651,51.155-5.971,27.928,0.652
												c-21.507,5.562,13.895,4.444-17.663,4.876c-26.027,1.233,22.336-4.209-14.923-2.392
												c-16.969,0.525-33.832-3.145-50.632,1.032c26.721-4.332,11.656-4.985,3.607-5.528
												C-355.05,279.685-348.406,278.615-341.764,277.562z M-166.343,308.342c-3.756,13.169,20.421,38.024,14.071,35.487
												c-10.954-0.247,22.296,25.185-4.813,9.109c18.46,24.973,2.954,2.978,1.796,8.085c2.864,9.195,17.94,43.753,3.015,20.191
												c-3.841-17.79-15.37-36.244-12.027-53.016C-164.971,321.564-165.641,314.946-166.343,308.342z M-110.169,377.314
												c20.778,10.206,41.12,24.232,64.622,26.4c-15.987,1.726-30.132-4.835-44.333-11.029
												c14.236,6.646,25.581,22.443,42.029,22.044c-15.623,7.603-26.54-12.913-42.735-13.461
												c-24.59-12.789-16.245-9.853-4.126-4.721c-14.462-11.664,19.019,11.633-5.572-7.715
												c-26.156-10.868,22.761,8.776-11.488-7.995C-102.843,384.178-83.364,397.653-110.169,377.314z"/>
											<path id="path3277" fill="#070708" stroke="#010202" stroke-width="0.125" d="M-267.461,517.269
												c-15.491,2.255-30.228,6.258-40.664,14.014c-30.665,14.907,16.279,13.112-20.132,22.794
												c23.149,2.161,24.947-10.234,15.356,3.654c14.179,4.509,24.48-27.36,20.096-4.801
												c-17.459,8.224,23.422,15.28,24.473,9.349c-6.705-9.31,21.545-1.116,6.083-17.238
												c16.799-8.956,40.497-0.778,20.166-22.566C-247.233,515.186-259.595,519.42-267.461,517.269z M-248.804,527.788
												c-13.492,3.857-5.014,15.302-28.504,9.415c-30.525-1.94,27.761,13.376,2.734,6.188
												c-8.811-1.923-45.983-1.976-29.326-1.623c12.393-0.19,14.888-11.435,35.028-5.824
												C-262.568,535.926-257.865,527.533-248.804,527.788z"/>
											<path id="path3264" fill="#070708" stroke="#010202" stroke-width="0.125" d="M-416.593,419.583
												c19.397-10.715,41.168-6.541,62.052-4.075c27.212-16.345-19.477-4.927,10.759-14.857
												c20.917-7.122,23.68-14.26,0.088-6.939c-21.255,5.882,19.041-6.873,25.125-13.27c-7.051-1.346-42.58-3.797-35.015-4.727
												c14.675-5.306,30.87-10.307,43.775,1.13c11.375,16.327,32.116-6.94,35.267,2.771c19.693-2.502,12.436-6.426,25.226,2.293
												c29.558,7.812-16.419-5.598-13.809,13.139c0.69,13.612-27.658-7.178-33.51,11.727
												c-1.365,17.682-13.723,18.084-29.499,22.55c-14.741-0.215-32.088-8.887-43.974,6.796
												c-26.026,17.864,5.879,0.101-10.108-6.239c-20.606,21.913-0.58-8.04-23.3,10.547
												c16.786-18.082-20.534-4.448-12.982-8.972c2.561-8,44.247-12.856,19.82-13.592
												C-403.301,418.631-409.941,419.396-416.593,419.583z"/>
										</g>
										<path id="path3375" fill="#070708" stroke="#010202" stroke-width="0.125" d="M-206.347,63.165
											c4.363-19.193-21.241-21.076-2.775-23.961c-12.488-14.474,20.949-8.643,11.593-12.574
											c14.399-9.541,17.653,7.649,35.308,1.618c8.523-8.183,45.631-14.693,25.412,0.124c-3.756,20.241,3.245-0.082,16.155-7.649
											c-5.513-3.093-20.699-16.247,0.466-9.096c10.414,19.346,21.83-37.135,17.628-8.374c-7.741,17.326,20.068,3.2-1.048,26.331
											c18.561-4.626,39.28-9.403,58.777-13.617c-24.855,17.601-7.817,8.933,5.674,17.713c12.3,26.506-6.434-14.089-20.59,1.225
											c-21.628,17.293,13.553,6.282,17.911,10.889c7.705,11.749,29.335,9.049,42.779,7.98
											c15.096-15.72,20.033,10.816,36.968-3.809c-16.39,6.047-10.502,28.97,4.823,33.12c-18.486-3.869-2.631,8.846-25.399,2.203
											c-27.898-12.486-1.919,3.695,10.895,8.487c-7.308-1.587-42.445-11.454-32.905,0.443
											c7.258,7.678,43.924,6.352,35.071,8.628c-2.574,4.92-18.329,6.774-34.254,1.977c-22.327-2.734,19.912,3.639,24.439,12.908
											c9.039,9.186-24.566,10.787-34.327,13.214c-19.343-2.993-31.356,12.65-45.42,22.983
											c-23.573,2.992-11.955-27.142-16.673-31.387c-8.512,19.378-26.238,6.062-41.611,6.208
											c-0.059-0.837,32.825,0.323-0.011-3.609c-25.186-3.429-18.457-0.291,0.017,9.318c16.71,8.343-25.029,13.036-30.451,2.203
											c-17.077-11.911-28.992-18.73-11.084,3.818c5.317,20.802,27.245,7.858,41.595,12.716
											c29.454,10.211-4.796,11.114-11.071,20.771c10.711,21.481-5.543,21.86-22.122,25.585
											c-15.053,11.248-29.865,22.255-10.65,0.013c-12.293-14.013-32.962,13.446-9.758-8.72
											c3.869-35.39-24.879,32.868-15.942-2.777c0.948-16.427-14.841,18.27-23.276,22.032
											c-31.865,17.38,17.308-9.389-1.148-14.234c-13.666,18.2-1.228-29.122-13.518-1.533
											c-1.569,16.114-4.784-33.486-7.648-3.052c3.686,3.571-22.078-14.731-18.543,12.919c-9.034,6.643,4.63-9.008-6.624-2.506
											c13.768-26.357-11.497-0.538-11.412-14.229c-25.621,9.47-8.877,0.382-10.898-6.691
											c-25.308-1.512-6.044,27.97-16.464,19.321c-1.527,21.49,2.042-2.853-13.713-1c9.014,18.407-18.089,13.348-7.141-0.935
											c21.266-7.068-0.061-16.699-4.854-3.868c-5.444-4.677-28.539-4.171-12.385,12.428
											c-15.875-8.868-28.953-4.968-9.223-21.179c11.307-16.907-21.281,2.753-27.202,9.369c23.099-21.017,7.16-5.415-8.781,2.906
											c-30.948,7.752,17.617-13.988-13.786-1.871c18.779-10.835-6.457-3.121,4.543-9.911
											c-0.232-0.881,3.829-17.094,26.748-6.511c18.96,8.261,29.682-21.385,8.954-21.275
											c-14.876-0.111,22.125-12.514,25.379-23.582c16.14-10.441,16.592-26.643-4.162-28.635
											c-29.914,4.353,26.842-5.479,3.096-16.916c18.306-11.458-28.387-31.282-3.976-20.46
											c7.105-20.958,5.478,22.32,20.101,19.592c19.367-0.902,37.203-11.027,55.747-16.407
											c22.722-18.876-31.986-21.84-0.62-20.776c11.779,3.924,10.641,30.667,30.362,27.975
											C-218.909,75.084-209.821,72.904-206.347,63.165z"/>
									</g>
								</g>
								<path id="path3395" fill="#070708" stroke="#010202" stroke-width="0.125" d="M-268.901,512.429
									c24.969,6.078,26.986-55.17,34.393-19.304c13.121,11.066,32.517-9.224,21.472,8.87c18.647,2.099,28.234,0.126,3.638,6.357
									c25.122,8.974,8.733,3.65,1.349,5.266c19.33,7.997,26.808,18.528,2.246,5.291c3.153,10.449-6.696,23.599-18.188,1.025
									c-6.491-15.713-29.847-3.773-43.629-7.472L-268.901,512.429z"/>
							</g>
						</g>
						<path id="path3423" fill="#070708" stroke="#010202" stroke-width="0.125" d="M-253.01,561.168
							c15.166,5.133,28.194,13.13,37.011,26.81c10.217-0.778,38.774,20.266,28.969,18.087c-8.814-5.66-14.73,7.179-23.899-11.559
							c5.578,18.221,6.532,12.796-8.332,22.34c5.524,2.66-9.2-42.475-7.711-19.479c10.315,23.429-3.355,21.742-6.834,1.538
							c9.629-31.64-28.035,16.918-12.57-7.871c16.847-23.339-27.911-6.987-8.195-27.015l1.255-2.326L-253.01,561.168z"/>
						<path id="path3425" fill="#070708" stroke="#010202" stroke-width="0.125" d="M-127.874,538.297
							c-5.12-17.341,20.395-21.124,32.982-22.842c6.789-2.344-28.581-14.599,2.065-17.35c2.785-5.966,18.732,20.179,29.774,25.355
							c21.9,10.212,25.127,13.433-1.174,9.388c-15.684,2.756-30.736,24.588-7.064,20.046c23.727-13.984-5.403,24.451,23.277,16.555
							c40.329-2.424-13.512,3.423-6.575,5.292c33.473,4.757-22.177,2.729,3.223,15.409c-40.666-20.274,22.589,30.913-16.695,5.803
							c17.762,21.818-15.369,5.118-20.213-5.711c-23.028-22.489,7.866,14.004,5.481,16.963c-13.667-0.965,0.424,2.673-12.93-18.608
							c-16.89-18.137,34.762-28.15-9.899-24.926c-20.938,4.186,12.272-23.02-17.746-4.913
							C-121.672,549.725-103.368,540.817-127.874,538.297z"/>
					</g>
				</g>
			</g>
			<path id="path3493" fill="#070708" stroke="#010202" stroke-width="0.125" d="M-2.043,327.605
				c21.606,4.998,43.239,9.821,61.629,22.521c21.4,2.178-16.322,15.834,15.829,17.91c18.09,0.765,30.2,17.653,45.11,26.315
				c-9.893-13.924-44.558-44.835-3.769-24.216c21.451,10.954,54.498,28.98,14.423,4.718c-41.96-15.818-3.524-14.963,16.855-17.901
				c14.253-5.99,30.177,22.045,35.786,19.836c-17.344-24.614,16.315,6.987,24.148,9.665c9.217-1.691-21.391-31.093-36.83-38.249
				c-16.888-9.573-39.088-2.966-58.148-6.887c-19.234-1.688-33.928-18.291-53.901-19.705c-17.501-12.563-28.215,4.622-43.229,7.693
				C9.897,328.732,3.935,328.177-2.043,327.605z"/>
		</g>
		<g id="g3529" transform="matrix(1.2580453,-7.9958428e-2,7.9958428e-2,1.2580453,-137.90861,157.34541)">
			<g id="g3523">
				<path id="path3521" fill="#070708" stroke="#010202" stroke-width="0.125" d="M-125.821,661.18
					c28.376,2.445,75.869,4.63,25.736,4.618c28.944-0.694,58.645,0.584,87.092,8.198c54.742-5.133-49.677,10.234,0.007,8.725
					c-27.258,1.668-54.545,4.055-81.551-1.526c27.74,10.423-10.135,6.3-20.17,0.674c-22.114-10.884-66.447,7.869-56.916-5.574
					c-17.386,0.771-34.772,1.542-52.16,2.362c7.471-2.733,48.75-11.288,31.065-9.589c-20.608,2.009-36.023,3.324-6.689-1.741
					c25.147-6.308,50.404-10.06,76.151-5.119l-2.456-0.974L-125.821,661.18z"/>
				<path id="path3519" fill="#070708" stroke="#010202" stroke-width="0.125" d="M-299.178,651.925
					c45.648-4.364,90.835,4.33,136.426,5.656c-21.967,2.966-43.934,5.66-66.161,5.643c25.224-6.256-37.513-4.534-54.761-3.657
					c5.368,0.326,27.384-4.915-3.645-4.978C-284.925,650.233-315.186,658.542-299.178,651.925z"/>
			</g>
			<path id="path3527" fill="#070708" stroke="#010202" stroke-width="0.125" d="M-7.827,687.347
				c21.518,1.576,88.17,14.216,37.188-0.202c8.359-1.811,31.475-1.656,45.493-2.69c26.078,4.528,100.866,6.988,99.439,12.286
				c-8.986,1.338-50.509,3.141-34.247,4.143c17.409,1.635,34.839,0.418,52.283,0.244c-19.82,11.314-86.232-2.065-54.843,9.761
				c-50.269,9.186-100.291-11.49-150.889-7.473c-12.112-0.705-53.35-7.432-20.65-6.669c18.617-1.222,37.303-0.484,55.936-0.695
				C11.979,693.161,2.06,690.253-7.827,687.347z"/>
		</g>
		<path id="path2238" fill="#070708" stroke="#010202" stroke-width="0.1576" d="M-242.382,319.911
			c-5.75,24.756-17.23,62.183-49.068,46.889c-12.307,4.317,11.5,54.576,3.551,58.793c-14.507-29.234-38.173-49.209-66.379-64.685
			c-2.784,27.844,78.324,59.197,67.408,109.678c0.767,73.239,5.629,146.317,8.494,219.455
			c-38.698-41.905-52.478-100.416-63.918-154.912c17.312,1.069,69.769,19.35,32.08-7.062c-42.652-18.3-69.325-84.175-53.265-122.166
			c33.492,2.381,58.591-12.731,9.765-14.365c-62.021,34.944,5.165-37.044-12.267-37.003c-25.301,40.15-26.35-2.623-51.167-15.637
			c-44.509-10.068-14.366,9.967,10.673,21.548c20.64,39.687-10.068-16.544-30.446-9.987c-39.464,0-50.924,8.475-5.084,8.979
			c43.015,7.646,8.978,19.833-14.89,2.583c-40.958-6.396-83.025-6.598-124.366-4.52c43.338,11.763,89.945,0.847,132.194,13.618
			c20.358,19.229,62.102,21.186,68.357,50.985c-24.191-22.738-106.005-62.485-114.52-47.757
			c73.603,13.155,133.808,63.354,140.204,141.395c-33.069-19.168-70.536-31.192-109.334-26.472
			c-33.734-20.982-75.681-6.456-113.067-16.544c-24.13-0.848,39.585,14.042,54.637,11.178c28.852,1.654,53.648,20.539,83.812,16.524
			c43.863-4.843,28.892,19.873-4.621,18.541c-53.991,4.016-109.253-4.035-162.316,6.82c63.03-6.154,128.038,6.859,189.796-6.86
			c30.184-16.141,41.906-1.452,35.813,25.14c6.013-29.336,25.866-6.779,27.238,24.211c-38.577-14.486-79.534,2.22-119.12-7.505
			c-41.765,1.17-81.471,18.34-115.024,42.571c45.981-9.281,88.815-31.334,136.935-28.63c31.192-2.724-48.826,36.963,7.465,8.857
			c30.405-20.58,69.648-5.892,93.052,17.352c20.781,25.401,14.87,63.413,41.3,86.394c13.821,29.215,21.669,59.641,23.243,91.983
			c-25.785-6.598-34.279-40.15-53.306-56.069c-9.987-28.731-28.065-66.743-64.563-59.803c-30.204,1.896-63.615-1.291-91.962,6.457
			c-19.228,18.098,42.208-6.255,58.894-0.283c3.046,11.219,11.016,6.437,44.488,1.211c31.898,1.695,26.208,46.163,47.252,63.696
			c16,24.796-60.064-13.175-4.479,15.878c19.591,23.041,44.669,42.33,57.199,70.576c-27.439-36.074-74.813-50.359-109.496-79.05
			c-29.336-27.218-45.013-4.601-9.604,14.688c38.577,24.171,83.024,43.217,112.643,78.484
			c-29.134-20.236-37.447,12.671-64.604-4.055c-42.289-10.25-41.724-0.464-0.363,8.332c24.09,16.928,40.716-12.307,62.021,7.748
			c27.984,33.533-9.16-0.424-28.993-2.381c-37.346-8.413-107.639,37.205-96.099,51.247c40.07-78,151.401-30.466,133.889,38.577
			c-5.871,28.428-6.9,63.958-2.381,78.081c18.905-10.572,115.569,13.761,58.269-13.841c24.776-50.197,29.699-135.946,103.02-126.604
			c41.643,9.039,41.482-12.711,1.13-9.261c-52.236,0.443,2.966-8.394,7.304-38.617c9.402-22.153,5.084-62.97,39.565-53.951
			c14.688,16.464,75.438,13.498,29.72,4.076c-45.215-6.275-22.476-31.011,8.151-9.039c-2.946-11.38-39.424-26.875-55.202-5.912
			c-25.644-40.05-30.93,32.928-35.308,53.749c-13.599,30.587-92.528,94.707-52.417,31.898
			c24.03-45.194,33.533-95.836,50.521-143.815c23.929,6.76-6.416-21.467,35.389-34.541c10.774-16.867,72.029-3.571,46.365-26.976
			c-31.535,2.724-61.94,8.212-85.224,31.455c-34.34,37.204-26.411,94.343-54.012,136.35c-15.838,27.117-22.658,61.739-45.497,83.206
			c-21.306-52.639,17.25-104.553,31.979-155.437c16.04-39.585,19.631-87.705,47.475-120.451
			c22.879-14.628,32.927-30.587,63.676-30.002c25.543-3.45-57.906,9.059-23.041-26.209c-19.39,7.203-54.476,47.777-34.118,3.107
			c29.599-27.763-7.828-56.13-18.037-19.006c-13.256,62.082-35.974,121.904-59.782,180.556
			c-17.775,22.557-8.999,54.778-26.471,78.949c13.599-21.366,13.558-85.93,9.483-124.083
			c-8.111-94.061,13.013-186.629,15.132-280.367c30.345-8.03,18.118-43.782,53.749-49.714c7.304-45.76-38.698,24.736-33.654,0.686
			C-196.018,319.527-213.611,312.929-242.382,319.911z M-207.458,880.201c-36.499-2.341-21.326,40.554-25.401,62.223
			c-1.433,18.28-49.189,58.067-17.674,23.849c15.939-12.59,14.083-36.982,16.746-56.109
			C-233.707,889.825-231.023,878.95-207.458,880.201z"/>
		<g id="g3334" transform="matrix(1.2580453,-7.9958428e-2,7.9958428e-2,1.2580453,-137.90861,157.34541)">
			<path id="path3248" fill="#070708" stroke="#010202" stroke-width="0.125" d="M-30.708,103.116
				c10.672-12.729,38.395,16.136,28.356,12.339C-11.556,108.615-20.462,105.916-30.708,103.116z"/>
			<g id="g3313">
				<path id="path3254" fill="#070708" stroke="#010202" stroke-width="0.125" d="M-5.687,156.075
					c24.798-10.661,10.32,11.482,2.099,21.737c2.867,2.588,18.849-20.774,28.158-23.903c-1.287,23.782-0.213,9.913,15.47,2.876
					c10.344,8.323,24.633,37.362,12.485,9.47c-13.073-22.931-0.516-2.727,14.318,3.588c18.153,4.826,50.472,15.621,52.656,20.122
					c14.041-11.489,24.636,10.82,38.386,13.249c-22.186-13.791,17.019-5.863,27.247-11.836
					c10.166-2.995,41.482-24.868,16.942-12.716c-31.323,4.312-66.584,13.057-94.92-5.904c29.785-2.325-8.412-7.944-21.874-8.607
					c-18.691-6.706-26.289-17.613-2.807-22.952c35.565-12.013-39.773,1.513-29.995-4.473c24.215-12.846-8.502-6.538-20.652-6.637
					c4.144-10.69-19.898-7.391-31.719-0.3c-13.603,6.865-29.613-2.155-41.477,9.889c-26.514,6.109,17.168,15.013,18.336,18.085
					C-48.733,149.522-5.095,138.936-5.687,156.075z"/>
				<g id="g3282">
					<path id="path3219" fill="#070708" stroke="#010202" stroke-width="0.125" d="M-392.243,543.401
						c5.931-31.746,32.885-7.436,48.369-23.211c2.712,0.477-19.436,3.512-25.877-2.895c-20.6,5.923,18.649-18.878-9.043-8.354
						c14.038-11.938,31.466-6.067,43.874,5.114c28.883,5.573,5.728-15.433,26.594-8.125c13.234,11.314,26.71-0.628,41.643,0.61
						c18.265,3.053,38.81,2.804,54.327,14.022c-20.728,11.978-10.05,11.278-27.737,6.433c-22.638-12.216-31.03,13.584-53.06,4.663
						c-11.746-7.467-33.959-0.892-44.494,6.65c-8.884,6.299-13.377,47.968-20.043,24.419
						C-364.887,551.556-381.585,550.334-392.243,543.401z"/>
					<path id="path3217" fill="#070708" stroke="#010202" stroke-width="0.125" d="M-329.165,593.086
						c11.577-11.068,16.393-33.599,35.604-31.545c15.928,3.739,29.318-5.578,42.643-2.758c31.224,4.31-21.207,16.983,5.579,22.246
						c4.913,3.199-26.207,3.803-30.866,17.813c25.518-6.589,11.697,18.08-4.319,8.916c1.576-8.897-11.824-14.576-24.657-8.463
						c4.423-18.611-3.078-1.527-19.843-6.233l-2.648,0.024L-329.165,593.086z"/>
					<path id="path3221" fill="#070708" stroke="#010202" stroke-width="0.125" d="M-220.371,487.192
						c-12.986,24.915-19.476-12.528-29.677,2.637c-18.751,18.47-14.817,11.824-2.593-6.644c-7.169,2.784-39.57,26.064-28.866,11.588
						c4.879-16.705,29.235-14.853,31.4-32.277c-10.772-8.158-27.393,20.199-31.248,17.26c19.944-17.047,10.866-20.063-7.912-6.726
						c-16.66-2.326-31.26,4.83-47.194,5.726c5.594-10.294,5.084-8.834-14.819-10.084c14.585-7.925,30.379-3.088,44.611-9
						c10.634-11.625,31.746,1.136,38.746-17.136c7.854-16.084,26.397-0.487,39.424,0.453c14.294,3.715,33.211-0.199,37.528,18.679
						c1.878,25.459-2.87,13.867-12.713-0.583c-11.3-10.694-28.225,4.012-21.212,17.063
						C-223.388,481.162-221.878,484.161-220.371,487.192z"/>
					<path id="path3223" fill="#070708" stroke="#010202" stroke-width="0.125" d="M-84.722,631.492
						c15.324-21.062,41.906-25.98,60.922-42.06c-14.631,2.085-44.922-0.242-15.265-4.579c22.866-1.963,45.331-1.401,66.938,7.109
						c15.824,3.876,41.253,14.569,13.872-0.738c-23.452-9.253-48.415-12.155-73.524-10.479c12.502-9.47,14.693-32.842,34.369-22.963
						c24.746,7.828,45.051,24.963,70.552,30.241c10.454,6.855,37.126-3.253,37.587,6.398c-20.263,4.918-34.673,8.574-5.654,2.656
						c9.951,1.402,36.52-20.981,26.133-21.561c-19.683,0.321-33.127-3.645-8.666-15.049c6.983-4.64-35.463,22.524-18.815,0.295
						c0.847-11.814,38.281-26.467,20.842-22.587c-12.198,4.677-43.635,10.538-16.645-2.052c15.444-5.048,39.828-5.648,14.635-19.823
						c-11.044-15.232-25.862-15.5-40.447-4.784c-1.098,10.965,37.167,24.35,11.782,22.801c-12.808-3.38-37.826,9.736-23.602-9.919
						c6.457-3.936-20.153,14.019-29.952,6.211c-22.187,16.007-12.948-6.228,1.563-15.008c14.986-16.256,39.467-8.301,56.493-21.333
						c25.254-6.221,17.001-6.329-4.769-3.687c-18.396,4.813-34.966,14.954-54.324,16.225c22.003-15.376,1.332-19.192-14.327-11.014
						c-9.89-7.909,35.958-16.928,12.156-20.172c31.595-4.311-13.44-15.641,14.181-16.708c25.595,3.038,50.898,19.257,77.946,13.069
						c-20.703,17.641-11.6,14.964,7.407,4.576c17.571-9.484,42.957-12.233,59.325,1.237c-22.323-6.583-3.967,12.209-19.164,4.78
						c24.495,20.096-32.63-15.257-7.53,3.418c17.605,11.928-10.825,6.545-6.85,13.405c-18.226,4.407,19.111,12.714,26.585,14.456
						c30.016-7.715-24.392,0.487-9.819-16.341c7.592-12.958,23.91,13.916,38.484,5.653c23.429,6.845,9.652,12.16,0.922,10.724
						c8.511,4.887,43.154,23.768,16.108,14.03c-28.784-8.886,9.646,5.184,11.119,18.349c-0.981,3.338-34.746-24.084-10.155-0.197
						c22.408,22.145-3.842,1.392-14.93-6.081c2.428,4.949,31.451,38.34,10.673,17.036c-9.578-14.08-24.882-17.298-39.823-22.69
						c14.348,9.171,29.452,17.301,41.364,29.733c-30.402-11.186,4.212,16.995-21.66-0.864c-15.075-5.817-24.645-24.804-42.2-21.622
						c6.334,5.053,43.682,27.57,21.576,16.559c-14.367-13.406-37.344-5.661-11.776,5.618c28.75,16.486-31.086-12.785-6.675,5.606
						c6.952,7.948,35.594,30.425,9.018,25.159c-10.281-2.755-19.132-37.108-20.859-9.425c-27.606,3.618,7.272,15.281,16.545,21.531
						c28.77,10.377-1.488,11.309-6.478,16.38c14.663,5.486-12.998,23.326-23.139,19.378c-22.921-18.361,3.933,12.824,17.757,5.01
						c12.471-10.754,20.794,18.77,38.952,12.676c28.764,5.148,1.099,6.934-13.033,8.746c-28.049,1.762-56.194,5.522-84.284,2.614
						c9.951-18.035,16.754-31.956-3.6-10.733c-8.569,11.435-41.234,6.585-23.241-10.314c43.047,18.645-16.423-29.254-13.776,12.356
						c-22.342-3.264-18.316-10.579-9.184-15.483c-13.898-5.149-36.91,11.72-15.467-7.719c30.104-5.817,3.586-12.763-2.838-5.056
						c18.844-16.908-0.467-20.67-15.755-12.516c-17.266-3.375-29.785,25.034-32.51-1.746c-20.129,0.02-12.229-10.463,6.838-15.731
						c4.669-2.815-28.46,3.676-37.002,10.398c-13.332,12.191-32.01,11.597-48.599,15.98l2.599,0.486L-84.722,631.492z"/>
					<path id="path3225" fill="#070708" stroke="#010202" stroke-width="0.125" d="M-94.143,305.842
						c10.936,9.612,12.323,31.704,30.882,19.524c13.596-6.24,30.361-0.026,44.794-2.525c17.774,4.482,13.082,28.833,29.99,35.328
						c10.701,10.784,29.585-4.214,41.741,9.918c12.94,14.422,36.533,6.829,13.967-6.794c-7.16-9.981-44.953-12.127-26.475-23.51
						c11.413-0.67,42.643,10.873,23.688-7.074c-13.083-11.417-29.86,5.255-45.329-1.662c-30.158-1.404,7.533-3.466,18.859-4.768
						c16.321-4.206,33.029,0.897,44.846,12.794c12.47-8.718,41.84-1.222,17.381,10.15c19.057,9.519,39.059,2.162,58.759-0.723
						c16.02,14.153,35.604,23.465,54.413,33.353c-21.256-19.843-6.357-12.272,10.897-2.9c-13.736-9.213-27.316-18.608-35.568-33.374
						c24.048-16.017,11.159-12.057-8.36-4.477c-15.138,0.995-38.36-12.638-14.795-23.842c-5.225-9.89-21.664-21.744-34.194-27.737
						c-7.274-5.659-44.335,5.65-30.282-6.271c20.702-4.506,27.011-7.874,2.029-9.462c-15.759,7.226-31.709,3.325-45.42-4.026
						c-14.069,2.33-21.226,22.082-40.121,18.844c-29.986,0.179,9.689-15.165-1.923-24.5c-20.97-1.124-30.303-1.894-15.017-10.256
						c-3.581-3.964,28.625,0.039,39.343-0.546c23.575,14.649,13.527-3.134-3.436-7.5c-17.491-1.352-31.35,0.702-45.034-8.315
						c-28.527-0.065,2.755-15.846-23.612-13.304c-18.409-3.063-22.289,17.107-38.803,21.318
						c-28.064-2.057-44.976,22.561-65.148,37.894c-17.81,6.438-38.972-6.807-57.478,2.762c-18.096,4.624-35.359,11.802-52.92,18.095
						c10.045,0.414,45.247-6.394,38.823-1.189c-11.069,6.61-44.786,19.815-14.315,14.278c32.69-3.872-3.476,2.2-7.067,16.823
						c6.354-4.087,26.4-11.633,40.567-6.692c-11.996,28.009,8.359,7.524,21.022-1.455c15.751-4.579,40.835-12.913,13.687,2.41
						c-8.585,15.732,21.469,9.174,26.221-6.048c-15.659,14.738-13.686,28.864,8.136,21.126c2.778-21.763,33.037-9.833,28.408-11.955
						C-97.555,321.662-97.435,315.239-94.143,305.842z"/>
					<path id="path3227" fill="#070708" stroke="#010202" stroke-width="0.125" d="M-453.18,444.393
						c25.011-11.994,35.507,13.13,59.84,10.796c14.988,1.369,27.326-11.831,40.248-18.066c-24.176,7.941-24.841-1.788-2.734-8.706
						c15.695-5.963,31.611,1.496,46.417,1.699c21.621-11.135,10.213-18.885-8.137-14.036c8.73-12.452,26.06-17.638,39.397-14.769
						c15.363-10.33,21.923-2.007,38.194,3.903c22.283-5.159-16.874,19.969,16.301,18.068c7.512-14.742,26.378-13.318,34.519-27.347
						c9.909-14.35,32.016-10.426,39.803,4.326c22.07,11.073-14.354,12.367-24.328,12.102c-16.637-4.698-40.016,7.352-11.421,10.132
						c22.887,0.733,45.153-9.191,67.893-3.864c20.583-1.37,74.724-14.464,59.365,18.271c-30.586-16.875-19.604,1.352,2.079,3.115
						c5.666,12.036-40.58-8.497-13.85,11.501c17.518,22.123-10.933,0.685-17.86-8.416c-10.603-18.636-32.616-8.905-47.302-0.905
						c-24.602-1.002-51.736,3.014-71.822-14.54c-0.857,18.02-15.554-9.89-2.191,14.535c-23.333,9.054-6.738-21.662-32.249-13.661
						c-22.957-12.75-19.899-12.17-12.426,4.743c-17.735,1.214-20.887,13.219-38.052,15.816
						c-13.667,10.149-30.743,4.269-46.376,4.718c23.171-11.55,7.373-21.888-6.954-6.921c-16.518,1.757-29.519,14.29-44.538,20.713
						c9.921-7.982,40.02-28.361,12.588-13.346c-9.738,8.619-38.252,11.137-35.971,22.941c4.217,12.12,32.352,21.638,6.701,17.955
						c-10.574-26.909-18.51,2.56-1.419,10.222c-4.811,4.04-25.006,0.801-35.592,8.643c-19.786,0.683,11.105-20.047-18.656-6.494
						c-20.654,6.513,6.446-15.628,14.998-17.458c-10.578-4.907-41.647,17.368-33.34,1.474c15.096-8.15,31.834-10.839,47.862-15.979
						c-15.138-1.284-30.947-3.876-42.531,6.534c-14.388,1.299,18.84-15.834,10.016-15.53c15.037-8.234,31.182,8.253,44.883-1.91
						c-21.191-7.745-8.3-8.691-28.323-11.599c-18.353,2.619-24.978,1.379-5.394-8.49L-453.18,444.393z"/>
					<path id="path3229" fill="#070708" stroke="#010202" stroke-width="0.125" d="M-475.662,376.216
						c7.608-15.233,28.121-37.954-4.335-24.653c16.004-5.526,30.319-13.244,39.166-28.287c16.25-23.521,4.457,22.239,16.417,0.097
						c2.808-17.431,26.095,2.236,37.573-2.471c22.301-7.964,46.87-21.575,70.066-8.537c-19.941,2.117-37.398,11.336-55.688,17.999
						c-9.563,13.955-22.164,11.614-25.48,4.988c-6.67,31.763-23.207-12.862-28.656,4.241
						c-15.393,17.609-29.209,24.542-28.875,16.768C-462.229,362.956-468.954,369.586-475.662,376.216z"/>
					<path id="path3231" fill="#070708" stroke="#010202" stroke-width="0.125" d="M-394.426,239.125
						c17.818,6.81,28.082-13.884,43.547-12.436c26.784,4.782,48.951,21.137,75.632,26.779c-17.707,3.044-44.471,11.832-60.433-3.472
						c-1.212,18.062-33.69,3.199-26.874,1.933c22.368-11.28-11.681-0.422-20.216,2.147c-1.796-3.033,16.8-14.008-9.65-7.895
						C-422.004,246.337-394.029,252.557-394.426,239.125z"/>
					<path id="path3242" fill="#070708" stroke="#010202" stroke-width="0.125" d="M-308.122,160.06
						c-19.484-1.784-34.741,9.13-50.032,19.593c17.916-16.438,5.028-21.075-11.124-9.688c-13.364,8.147-38.95-9.918-11.377-7.716
						c17.618-9.482,41.558,0.427,53.897-19.092c-3.202-5.88-30.475,5.104-37.954-9.196c-12.813,0.228-47.725,1.714-42.517,3.793
						c-8.745-8.768,8.976-19.092,24.798-11.671c27.445-3.099-22.801-7.383-5.274-14.16c25.039,4.734,16.357-1.494-1.802-10.763
						c1.671-1.819,28.573,6.915,35.367,17.355c12.661,18.815,22.249-10.422,37.544-11.102c26.843-3.218-2.603-19.362-15.709-12.482
						c-30.55,6.543,0.182-9.418-22.936-15.106c3.368-13.626,25.91-2.411,37.601-1.138c12.09-11.067,25.651,12.247,39.961,13.189
						c-8.665-10.013-38.38-23.176-8.781-18.28c29.33,1.303-15.612-11.737-6.79-18.826c16.668,7.747,37.124,4.347,13.495-10.209
						c-0.606-5.347,22.377,14.317,30.89,18.899c16.617,5.53,25.207-6.994,39.362-12.189c-26.725-5.195,3.918-6.39,15.852-5.151
						c23.013-1.248,41.683,12.849,61.769,21.824c-18.912-10.536-35.438-28.843-58.889-24.496
						c-42.582-13.596,30.729-0.773,1.563-18.28c19.448,6.4,25.801-14.334,43.257-11.925c29.891,0.055-10.91,13.692,3.182,27.146
						c13.444,21.382,11.078,18.49,20.107,1.582c2.798-1.891-16.972-13.556,5.997-8.824c-8.955-11.763-5.651-23.886,6.238-23.211
						c7.313-16.15,9.315,11.145,17.93,14.13c-20.19,20.416,10.171,0.454,15.21-5.144c17.666-5.18,27.306,12.464,20.368,19.69
						c-29.248,3.449-11.432,3.731,7.687,3.952c9.209,13.833-7.132,25.657,11.121,4.428c10.532-2.442,21.39-2.457,9.608-11.37
						c5.895-12.007,45.738-8.047,39.718-4.677c-19.019-5.571-35.27,12.93-7.605,5.098c27.137-12.389,1.938-0.214-3.79,13.455
						C-0.41,73.8,21.97,39.619,25.282,44.288C21.49,67.365,38.133,20.23,46.538,45.446c-19.336-2.608-14.914,22.692-4.796,24.987
						c20.695,2.421-15.484,3.907,2.038,8.806c-15.427,2.499-27.731,4.829-42.21-4.062c-11.146-2.28-36.122,28.85-27.979,13.779
						c14.12-19.534-15.056-20.234-28.131-20.167c-3.858-22.569-12.77,4.353-21.651-20.189c2.292,11.629-13.75,31.635-25.202,14.998
						c14.276-6.598-19.261-18.417-20.187-0.321c14.668,20.547-2.3,7.921-17.619,18.831c-27.876-5.011-12.702-1-4.025,4.796
						c-19.345,4.592-39.536-10.291-56.735,2.922c-26.281,12.282,1.329,10.878,12.701,14.15c10.651,9.562,31.856-12.955,41.648,0.273
						c15.813,14.14,32.213-6.709,47.176-13.007c17.789-3.327,35.037,5.884,52.155,10.083c-6.762,21.109,10.625,25.614,27.208,30.661
						c20.358,4.694,41.936-5.77,61.929-2.896c16.292,2.559,24.825,17.937,35.618,28.79C46.913,140.99,11.043,152.247-22.83,147.72
						c-9.139,2.482-46.569-5.879-21.656-10.518c-16.593-1.36,11.515-8.586-16.772-11.667c-21.981,7.729-45.143-15.186-64.792,1.014
						c-7.071,16.887,23.745,7.684,31.522,15.267c7.327,14.161-16.475,28.077-27.924,14.679
						c-11.806-1.728-29.787,11.947-39.246-5.526c-26.079-27.478,15.246,16.991-8.499,4.271c-8.221,7.464-36.94-2.7-28.325-5.505
						c10.395-4.087,0.875-7.466,16.901,2.822c15.644-4.411-12.716-30.061-23.744-21.059c-12.925,14.607-29.166-11.461-41.065,4.671
						c-0.66,12.146-40.827,23.643-19.566,12.116c21.27-12.681,15.413-19.95-3.992-4.568
						C-280.095,156.628-295.976,150.888-308.122,160.06z"/>
					<path id="path3244" fill="#070708" stroke="#010202" stroke-width="0.125" d="M-151.459,255.08
						c10.488-12.853,28.627-11.107,39.799-6.708c13.504-11.363,32.237-2.538,41.442,10.332c-19.117-0.766-37.778,6.195-56.271,1.94
						c-13.213,4.26-40.26,6.647-13.925-4.478C-132.898,249.941-149.37,255.261-151.459,255.08z"/>
					<path id="path3246" fill="#070708" stroke="#010202" stroke-width="0.125" d="M-245.03,180.748
						c2.965-16.362,56.724-3.258,30.198-0.742c-13.167-4.798-36.037,10.347-26.094,1.773
						C-248.35,184.29-258.675,191.043-245.03,180.748z"/>
					<path id="path3250" fill="#070708" stroke="#010202" stroke-width="0.125" d="M-85.441,170.941
						c13.589,10.005,27.245-8.533,41.706-11.238c29.001-3.112-13.407,21.44,1.808,15.96c12.804,2.931,15.765-4.29,33.503-3.547
						c20.49-6.716,35.325,17.513,55.346,18.416c-7.39,10.548-43.114-11.529-27.607-1.418c12.306,10.26-24.906-1.262,3.177,9.055
						c20.008,1.367,10.979,20.295-4.69,11.217c1.309,8.679,17.692,16.873-7.465,9.452c-25.832,2.448,21.666-26.48-3.965-12.809
						c-4.057,2.003-31.007-16.308-22.876-2.416c-20.346,4.192-17.97,14.751-35.538,0.724c-14.762-3.168-16.354,8.759-35.69,8.669
						c-16.522,2.318,37.016,10.339,21.39,11.431c-9.297-1.345-40.094-8.835-33.224,6.709c18.631,5.627-6.645,23.794-17.92,22.548
						c1.828-1.263,12.223-24.258-14.316-13.467c9.263-3.934,34.1-14.705,20.339-19.235c-2.39-11.346-19.514,3.732-27.052,11.303
						c-24.937,21.926,17.508-20.346-8.909-15.257c-27.34,11.542-8.853-12.109,5.521-16.713c14.28-7.176,28.807,6,38.105-2.005
						c23.642-3.565,23.303-2.769,1.57-5.513c-17.905-6.205,24.662-6.002-6.398-9.853c-11.776-4.966-41.666-5.551-13.924-8.022
						C-109.878,174.904-96.823,177.418-85.441,170.941z"/>
					<path id="path3252" fill="#070708" stroke="#010202" stroke-width="0.125" d="M23.323,178.559
						c7.051,3.367,36.847-2.406,18.373,9.186c10.809,1.778-5.769,13.041,18.071,15.952c5.732,3.17-28.422,8.633-21.258,14.51
						c5.539,7.729,28.434,1.534,30.978,19.289c4.739-0.373,16.222-5.432,15.031-1.322c25.422,1.728-19.758,12.617,8.931,9.869
						c6.88-4.294,5.64,18.497,14.395,3.144c-2.903-14.378,10.443-6.858,27.666-5.314c-5.911-2.878-31.498-18.922-3.859-8.922
						c18.984,15.208,20.073,1.1-1.441-3.572c-18.557-9.567,22.055,5.251,29.683-0.198c23.068-2.607-15.47-7.174-18.258-16.54
						c-14.86-0.608-23.62,4.994-39.056,5.873c-12.152-2.087-22.022,16.178-35.142,1.568c-25.206-7.905-5.326-7.283,9.422-13.499
						c17.35-4.751,35.764,7.823,52.736,1.187c11.238,1.837,33.812-3.095,36.986,2.479c-25.848-16.221,27.979,2.115,9.062-7.843
						c-9.324-11.001-27.406-2.817-40.464-4.786c-14.753,3.008-28.431-12.424-42.564,0.005c-35.234,0.246,17.032-5.541-1.895-8.797
						c-13.749-1.435-36.485-8.093-9.889-5.649c13.973-4.356-21.055-9.629-26.997-15.3C41.804,163.327,32.809,172.138,23.323,178.559
						z"/>
					<path id="path3256" fill="#070708" stroke="#010202" stroke-width="0.125" d="M-319.181,180.639
						c12.871-8.211,25.283-17.269,39.508-23.069C-289.244,170.625-305.51,173.472-319.181,180.639z"/>
					<path id="path3260" fill="#070708" stroke="#010202" stroke-width="0.125" d="M-146.333,471.93
						c5.308-18.154,24.792-3.492,29.757,7.713c10.387,30.362-5.791-18.394,2.21-14.582c6.243,22.384,7.207-20.279-3.78-18.748
						c-11.903-1.221-28.011,4.683-35.377,14.35C-155.487,467.323-150.918,468.624-146.333,471.93z"/>
					<path id="path3258" fill="#070708" stroke="#010202" stroke-width="0.125" d="M-215.075,475.019
						c14.057-13.251,29.117,9.966,35.424-12.31c17.819,17.138,8.596-7.056,20.97-1.907c22.571-5.654-2.591-3.148-17.103-6.956
						c-13.287,4.159-18.007-0.311-36.285,1.126c-3.875,3.442-18.996,34.685-3.207,20.18L-215.075,475.019z"/>
					<path id="path3262" fill="#070708" stroke="#010202" stroke-width="0.125" d="M28.534,401.653
						c29.188-16.395-15.824-18.503,5.664-20.489c-17.637-0.319-1.544-18.862-28.571-9.21c-10.317-2.949-46.465,17.222-33.425,7.354
						c20.386-17.949,49.218-19.902,75.314-20.713c14.044,8.655,27.075,19.122,42.07,26.186c-17.261-13.302,23.54,7.365-6.178-11.299
						c-2.892-13.799,27.602,0.744,31.823,10.78c14.65,13.248,31.339,1.238,25.039-16.467c2.716-18.495,30.812-5.355,27.245,9.895
						c11.393,26.143,42.521,20.36,64.937,27.237c16.651,7.762-34.982-0.956-16.758,10.579c-10.936-4.063-45.018-7.577-22.204,7.698
						c13.546,5.897,25.421,37.059,4.36,15.673c-7.915-1.626,2.837,10.893-13.229-7.096c-16.135-1.25-2.31,6.573-22.221-1.38
						c11.195,19.171,17.717,15.72,2.018,18.476c-2.485,9.577-30.083-27.06-21.18-7.152c15.426,24.764-0.846,11.044-13.372-0.561
						c-6.833-8.309-32.272-24.151-14.285-7.644c24.129,14.252-20.483,11.657,5.757,17.414c7.59,13.056,31.779,19.805,6.18,27.673
						c15.283-18.915-20.643-5.257-30.696-11.605c-26.25-2.823-19.239-5.136,2.97-6.852c-19.68-0.225-39.044-5.673-57.451-10.291
						c-14.402-0.242-32.291,25.853-16.594,1.688c21.572-24.498-25.029,16.563-9.654-1.769c25.857-25.3-19.924,9.671-4.687-11.797
						c-10.794-16.643,24.011,1.478,29.483-11.694c6.643-19.481,31.164,8.027,5.294-13.905
						c-10.602,9.349-24.042,18.952-41.266,13.398c29.519,0.85,13.533-9.035-6.182-2.654c13.421,1.302,3.984-18.784,12.927-15.649
						C17.562,406.473,22.934,403.703,28.534,401.653z"/>
				</g>
			</g>
		</g>
	</g>
</g>
<g id="layer1_1_" transform="translate(-36.935893,-183.78194)">
	<g id="g3341_1_">
		<g id="g3495_1_" transform="matrix(1.2580453,-7.9958428e-2,7.9958428e-2,1.2580453,-137.90861,157.34541)">
			<g id="g3473_1_">
				<path id="path3471_1_" fill="#070708" stroke="#010202" stroke-width="0.125" d="M33.715,595.926
					c15.542,9.055-6.615,6.172,4.533,13.712c-24.311-16.941-0.474,16.04,12.869,14.53c21.46,8.308,46.846-1.016,67.497,10.929
					c6.104-7.968,38.411-32.055,12.083-20.033c-7.218,6.838-48.847-2.319-31.545-4.299c28.407-5.876,15.795-5.01-5.522-2.692
					c-24.382-1.438-20.777-10.719,2.774-7.57c15.408-2.453,49.06-31.299,10.772-12.787c-21.121,8.072-47.463,10.455-12.064,0.565
					c51.46-11.789-30.463-6.956-21.677-8.161c23.196-4.877,47.669-4.62,68.408-17.528c-15.606,2.28-31.091,10.245-46.825,4.722
					c8.332-1.908,51.686-7.011,27.482-5.951c-8.469-0.49-50.264,2.563-33.461-0.651c8.728-2.076,54.329-10.243,42.509-8.974
					c-39.48-0.072-81.783,6.156-117.008-15.953c22.412,16.291,11.417,9.37,1.724,5.931c14.573,12.698-22.193,19.631,11.21,19.188
					c11.686,4.367,15.638,20.415,34.801,20.96c28.295,8.758-32.042-2.55-18.895,4.845c8.012,3.139,41.128,25.868,24.206,21.12
					C56.306,603.841,45.012,599.868,33.715,595.926z"/>
				<g id="g3451_1_">
					<path id="path3443_1_" fill="#070708" stroke="#010202" stroke-width="0.125" d="M-60.551,686.209
						c10.59-28.852,43.302-32.803,68.167-43.507c39.381,7.683,79.992,5.613,119.125-0.464c14.463-9.553,28.922-16.509,43.233-2.705
						c24.368,17.041,55.002,15.749,83.241,20.607c27.876-0.297-14.936,1.328-24.489,2.003c-24.062-2.7-24.435-2.884-0.658,3.791
						c28.382,3.087,18.86,3.028-4.03,1.829c-23.072-4.642-28.435,2.78-2.781,5.405c16.048,0.346,31.092,6.884,45.983,12.321
						c-23.123-7.628-19.751-0.117-20.823,0.104c-23.85-10.834-2.002,5.245-27.259-6.143c6.538,9.429,1.874,3.583-5.217,2.86
						c19.69,17.723,7.085,18.22-6.158,1.004c-1.063,21.775-20.137-8.176-14.516,10.881c-18.124,4.557-5.641,5.479-15.731-12.387
						c-6.471,7.448-40.64,27.76-22.224,5.981c0.148-14.938,42.515-12.855,22.573-19.559c-14.923,4.168-37.109-0.531-38.174,20.507
						c-9.74,11.699-34.712,17.264-19.785-5.892c-8.366,8.497-27.807,35.296-14.327,8.166c5.059-16.501-22.472,14.177-34.133,7.646
						c-22.62,3.134,6.162-28.829-23.934-13.292c-20.322,11.651-17.535,17.505-4.867-5.682c16.367-27.395-29.696-0.605-10.766-17.348
						c-7.382-23.146-15.502,20.345-10.111,19.292c-11.483-7.065-2.092,18.535-25.794,20.525c18.64-21.268,10.175-17.011-8.295-3.479
						c-23.256,16.918,27.376-26.502-2.553-6.016c-26.246,16.037-10.946,4.164,4.722-7.927c25.153-18.016,5.845-7.68-10.501,0.696
						c15.55-14.793,21.308-21.355-0.075-5.377c-16.452,12.073,25.238-28.692,12.347-19.904
						c-15.46,11.094-31.788,4.811-14.244,11.893c-22.319,0.923-21.439,7.522-15.724,10.195c-12.844,1.733,10.067,24.808-11.45,1.004
						c-8.361,17.495-2.271,10.504-5.035,1.492c-9.918,6.667-24.165,16.603-7.399,2.866L-60.551,686.209z"/>
					<g id="g3427_1_">
						<g id="g3410_1_">
							<path id="path3408_1_" fill="#070708" stroke="#010202" stroke-width="0.125" d="M-36.11,428.337
								c8.532-10.091,36.502-27.751,7.203-22.99c21.229-3.205,0.811-6.7,0.616-8.685c15.998-7.451,12.028-4.544,22.47-2.549
								c-10.819-11.705,0.318-20.893-22.051-28.28c-14.356-0.72-32.531-5.452-43.979,5.609c-18.35,9.13,6.719-22.956,19.128-18.351
								c14.518-7.385,32.499,2.932,44.368,9.973c4.224,16.563,14.362,27.888,29.257,35.763
								c10.937,10.349,27.953,22.978,16.62,39.033c-11.734,14.041,37.745,23.841,17.047,28.54
								c-11.333-0.095-45.148,17.434-29.007-4.378c-2.1-11.616-31.385-13.381-20.65-33.163c-4.038-20.24,36.638,12.24,16.438-13.357
								c3.629-23.04-23.239,2.276-34.716,3.199C-20.915,421.909-28.528,425.114-36.11,428.337z"/>
							<g id="g3397_1_">
								<g id="g3386_1_">
									<path id="path3384_1_" fill="#070708" stroke="#010202" stroke-width="0.125" d="M-112.059,277.856
										c19.263-9.361,26.767-7.312,26.535,13.49c18.591,23.923,11.906,3.435,6.866-14.158c-0.383-17.441,26.14-6.534,36.801-3.707
										c19.394,3.718,35.374,17.243,48.76,31.213c-6.657,11.381,8.695,45.378,15.001,22.877
										c4.341-17.333,28.238-9.768,41.1-18.349c14.948-0.269,23.224,19.15,34.008,23.588c18.502,9.933,27.242-20.08,38.675,2.137
										c1.78-3.287,23.219-7.506,27.251,0.721c-25.976-18.763,23.369,9.793-7.878-8.792
										c-15.078-11.559-33.764-12.795-50.778-5.007c1.16-13.702,41.545-5.17,26.915-13.429
										c-24.022-14.421-6.945-8.316,1.683-8.569c-7.538-3.526-44.413-23.143-22.76-13.33
										c20.773,12.306-12.618-20.496,18.595-7.944c16.487,10.607,13.347,11.048,27.037,10.635
										c11.569-8.919,5.909-13.224-11.426-24.109c-15.404-10.233-35.876,1.762-50.529-3.884
										c-3.444-18.983-32.369-6.484-31.12-26.131c-19.304-13.961,20.814-26.711-3.836-35.783
										c-14.534-11.798-36.267-3.957-53.869-7.594c-24.236-1.717-48.534-3.983-72.053,3.472
										c18.338,7.965,36.723,15.949,55.108,23.934c-21.971-5.566-43.974-11.134-65.994-16.672
										c-2.376,17.699-1.426,33.044,20.098,33.514c17.09,5.64,32.448,15.582,48.813,23.053
										c-27.781-5.743-55.475-11.85-83.426-16.689c6.431,13.127,40.069,15.794,10.705,22.845
										C-91.861,269.421-101.945,273.655-112.059,277.856z"/>
									<g id="g3377_1_">
										<g id="g3301_1_">
											<path id="path3266_1_" fill="#070708" stroke="#010202" stroke-width="0.125" d="M-399.192,246.744
												c-31.074,1.393,1.696,1.326,10.888,13.651c-5.336,2.948-46.528-0.712-17.344,3.388
												c6.345,4.637,42.115,2.018,18.412,6.558c-30.342,10.581,0.642,0.746,5.655,10.944
												c-1.232,13.073-24.119,22.941,2.541,15.028c15.051-7.19,29.038,16.488,3.285,6.351
												c-8.405-5.025-46.218,10.566-28.372,7.852c17.658-2.535,33.867,6.13,7.099,3.37c1.294,10.923-9.845,5.019-27.908,6.598
												c-11.54,0.389,29.294,4.909,9.39,8.695c13.189,0.164,44.245,8.377,13.843,8.289c7.266,10.325,39.769-2.46,26.59,8.089
												c15.652,11.371,2.375,13.607-18.126,14.693c-16.318,0.872-31.924,3.424-43.49,16.08
												c-17.454,16.228-41.234,22.975-58.909,38.643c15.222,0.214,9.215-7.465,27.489-3.545
												c8.636,11.487,7.197-3.471,15.061-14.406c5.544,12.942,6.352-2.531,10.908,3.997c20.881-21.19-13.189,27.853,9.846,3.304
												c13.246-18.403,4.42,18.772,12.366-9.607c13.716-0.812,12.218-3.49,5.424,16.863c-22.187,17.514,1.112-0.089,1.785,5.983
												c3.4-13.625,21.56,6.23,12.094-11.131c5.883-6.763,14.68,7.236,12.865-12.157c12.885,7.715,0.455-14.726,18.36-9.546
												c-11.391-6.995,20.064-8.091,0.44-12.225c4.201-0.743,29.413-3.279,41.072-9.321c-28.804-0.003-16.848-3.653,4.138-8.076
												c10.104-4.041,43.873-3.435,20.479,7.075c-6.78,5.487-33.83,5.661-12.249,10.288c-17.242,8.847-28.696-6.988-32.801,6.88
												c34.394,6.404-16.081,3.709-16.432,7.215c12.176-0.814-18.048,12.966-2.079,11.511
												c-22.142,20.34,10.872,0.034,21.52-3.748c11.361-3.881-39.749,25.347-12.185,15.84
												c22.884-6.035,41.584-30.507,66.572-26.994c-14.451,6.331-27.968,12.079-41.61,20.818
												c-8.211,11.859,20.889-7.701,27.744-11.083c8.207,5.622-31.483,22.986,1.008,15.942
												c11.651-2.402,25.258,15.911,13.863-7.169c-4.125-6.773,21.624-5.137,23.213-23.063
												c20.692-16.711-1.539,23.205,16.272-3.681c10.696,2.797-12.476,24.707-17.012,33.752
												c-18.756,19.304,14.174-2.723,19.303-11.266c7.961-16.253,27.236-19.743,14.464-5.512
												c-18.874,13.331-18.661,13.008,3.002,5.756c1.949,7.438-14.454,23.026,10.604,10.297
												c8.009-4.896-0.716-14.721,23.046-7.309c25.161,2.305-8.822-14.609-19.959-12.495
												c-16.533-16.688,2.526-14.017,15.298-8.041c11.487-26.807,12.753,8.284,17.838,20.379
												c-1.015,13.953-6.635,15.071,5.162,21.739c-12.679,9.987,19.077,20.554,23.95,32.715
												c8.781,19.291,27.042,7.781,42.518,5.269c-3.83,22.915-10.323,7.988,1.708,23.09
												c1.806,9.433,17.227-20.732,32.719-17.182c16.509-16.496,17.059,22.543,23.282-5.48
												c15.479,17.374,16.467-10.79,15.9-22.565c-6.048-7.297-23.362,4.208-28.73-10.246
												c-9.548-20.846-19.656-13.47-13.301-10.259c-6.474,0.165-14.064-4.807-30.271-8.708
												c9.481-4.577-15.072-19.995,4.386-10.964c-6.649-22.571-44.092-72.357-33.502-81.772
												c20.723-3.318-18.428-6.303-25.624-9.904c-12.754-8.268-32.641-4.223-37.938-21.817
												c-19.73,0.559-16.704,0.638-8.216,6.631c-21.19,9.398-4.752,26.577-12.87,23.334
												c-18.033,8.685-26.195-3.958-23.762,6.974c-18.964,9.46-15.008-9.133-30.678-14.924
												c-27.962-5.675,12.078,3.253,13.191-1.632c9.49,2.094,34.145,2.009,32.379-14.365
												c-3.886-13.045-29.538-23.272-22.557-4.674c-5.887-8.81-40.715-10.173-27.133-17.954
												c-10.801-8.705-24.316,17.699-36.953,2.062c-14.136-11.756-33.698-9.792-50.51-8.712
												C-382.248,262.495-389.648,251.505-399.192,246.744z M-345.877,317.042c9.967,0.89,51.66,1.968,22.669,2.659
												c-31.005,0.82-9.676,1.342,9.055,1.859c8.748,3.667,51.155-5.971,27.928,0.653c-21.507,5.561,13.895,4.443-17.663,4.876
												c-26.027,1.233,22.335-4.194-14.923-2.392c-16.969,0.525-33.832-3.145-50.633,1.048c26.723-4.348,11.657-5,3.608-5.544
												C-359.178,319.163-352.519,318.096-345.877,317.042z M-170.456,347.821c-3.757,13.185,20.405,38.023,14.038,35.501
												c-10.954-0.247,22.328,25.187-4.78,9.094c18.428,24.971,2.922,2.976,1.796,8.085c2.847,9.195,17.924,43.752,3.014,20.191
												c-3.873-17.792-15.37-36.244-12.058-53.018C-169.099,361.042-169.787,354.439-170.456,347.821z M-114.314,416.791
												c20.778,10.206,41.136,24.233,64.606,26.399c-15.939,1.729-30.1-4.832-44.333-11.029
												c14.236,6.646,25.63,22.43,42.06,22.063c-15.607,7.604-26.556-12.914-42.766-13.479
												c-24.575-12.788-16.229-9.852-4.111-4.704c-14.477-11.681,19.019,11.633-5.572-7.715
												c-26.156-10.868,22.76,8.792-11.487-8.011C-106.957,423.674-87.477,437.132-114.314,416.791z"/>
											<path id="path3277_1_" fill="#070708" stroke="#010202" stroke-width="0.125" d="M-271.59,556.747
												c-15.506,2.238-30.228,6.258-40.663,13.999c-30.664,14.89,16.278,13.127-20.116,22.778
												c23.116,2.176,24.931-10.219,15.34,3.669c14.164,4.493,24.48-27.36,20.078-4.786c-17.426,8.21,23.44,15.25,24.491,9.318
												c-6.723-9.28,21.544-1.1,6.098-17.222c16.8-8.971,40.465-0.796,20.133-22.552
												C-251.346,554.667-263.725,558.915-271.59,556.747z M-252.949,567.266c-13.492,3.857-5.014,15.302-28.505,9.43
												c-30.508-1.954,27.762,13.36,2.751,6.173c-8.827-1.924-45.999-1.977-29.31-1.622
												c12.361-0.192,14.872-11.435,35.011-5.825C-266.681,575.407-261.979,567.029-252.949,567.266z"/>
											<path id="path3264_1_" fill="#070708" stroke="#010202" stroke-width="0.125" d="M-420.723,459.078
												c19.397-10.715,41.151-6.542,62.037-4.092c27.244-16.343-19.445-4.925,10.759-14.857
												c20.917-7.122,23.68-14.26,0.088-6.939c-21.224,5.901,19.057-6.871,25.125-13.27c-7.036-1.329-42.579-3.797-34.999-4.726
												c14.661-5.339,30.87-10.307,43.759,1.129c11.376,16.328,32.133-6.954,35.267,2.771c19.709-2.5,12.436-6.41,25.227,2.277
												c29.558,7.812-16.404-5.598-13.794,13.14c0.707,13.613-27.675-7.164-33.527,11.742
												c-1.349,17.684-13.706,18.069-29.498,22.534c-14.726-0.198-32.088-8.888-43.958,6.797
												c-26.027,17.879,5.864,0.1-10.108-6.239c-20.623,21.927-0.563-8.039-23.298,10.531
												c16.77-18.083-20.534-4.448-12.966-8.971c2.56-7.985,44.214-12.843,19.805-13.593
												C-407.446,458.109-414.07,458.875-420.723,459.078z"/>
										</g>
										<path id="path3375_1_" fill="#070708" stroke="#010202" stroke-width="0.125" d="M-210.46,102.645
											c4.363-19.193-21.241-21.076-2.775-23.96c-12.489-14.458,20.949-8.644,11.593-12.574
											c14.399-9.542,17.653,7.649,35.308,1.618c8.523-8.183,45.631-14.693,25.412,0.124c-3.757,20.257,3.245-0.083,16.155-7.65
											c-5.513-3.093-20.699-16.246,0.466-9.095c10.414,19.346,21.83-37.135,17.628-8.374c-7.741,17.325,20.068,3.2-1.048,26.331
											c18.529-4.628,39.28-9.403,58.761-13.618c-24.838,17.603-7.801,8.934,5.69,17.715c12.284,26.505-6.45-14.091-20.59,1.225
											c-21.627,17.294,13.552,6.298,17.912,10.889c7.689,11.747,29.319,9.048,42.779,7.98c15.096-15.72,20.049,10.817,37-3.807
											c-16.39,6.047-10.502,28.971,4.807,33.119c-18.486-3.869-2.647,8.846-25.399,2.203
											c-27.914-12.488-1.903,3.696,10.879,8.486c-7.276-1.586-42.445-11.455-32.905,0.442c7.274,7.679,43.924,6.352,35.07,8.644
											c-2.573,4.905-18.328,6.758-34.253,1.96c-22.327-2.734,19.928,3.64,24.423,12.907c9.022,9.201-24.55,10.788-34.343,13.214
											c-19.312-2.992-31.34,12.651-45.404,22.983c-23.573,2.992-11.969-27.175-16.673-31.387
											c-8.513,19.378-26.223,6.08-41.611,6.208c-0.075-0.839,32.824,0.322-0.028-3.594c-25.154-3.427-18.456-0.307,0.018,9.303
											c16.726,8.344-25.014,13.036-30.42,2.22c-17.092-11.928-29.024-18.733-11.099,3.801
											c5.302,20.801,27.246,7.859,41.58,12.715c29.438,10.21-4.78,11.115-11.039,20.773
											c10.695,21.481-5.559,21.859-22.123,25.601c-15.085,11.246-29.896,22.237-10.681-0.005
											c-12.293-14.013-32.946,13.447-9.742-8.718c3.853-35.391-24.879,32.867-15.957-2.779
											c0.947-16.41-14.826,18.271-23.26,22.033c-31.849,17.381,17.292-9.39-1.164-14.235
											c-13.634,18.202-1.197-29.104-13.504-1.516c-1.568,16.098-4.799-33.503-7.631-3.068
											c3.669,3.586-22.094-14.731-18.559,12.918c-9.034,6.643,4.614-9.009-6.641-2.507
											c13.784-26.356-11.481-0.537-11.412-14.229c-25.605,9.471-8.846,0.4-10.867-6.672
											c-25.322-1.529-6.075,27.953-16.479,19.304c-1.526,21.49,2.026-2.854-13.713-1c8.998,18.406-18.105,13.347-7.158-0.935
											c21.298-7.066-0.062-16.683-4.854-3.869c-5.429-4.659-28.54-4.155-12.369,12.429c-15.891-8.868-28.937-4.967-9.239-21.18
											c11.323-16.905-21.282,2.769-27.186,9.37c23.099-21.017,7.176-5.413-8.781,2.906c-30.948,7.752,17.632-13.987-13.77-1.87
											c18.778-10.819-6.474-3.106,4.511-9.913c-0.233-0.881,3.844-17.076,26.747-6.511c18.977,8.262,29.698-21.383,8.986-21.272
											c-14.908-0.114,22.093-12.501,25.362-23.567c16.124-10.442,16.577-26.659-4.145-28.65
											c-29.914,4.354,26.826-5.48,3.064-16.918c18.305-11.442-28.387-31.281-3.961-20.443
											c7.107-20.974,5.479,22.304,20.102,19.577c19.351-0.903,37.219-11.026,55.747-16.408
											c22.722-18.876-31.987-21.839-0.636-20.777c11.779,3.924,10.656,30.668,30.377,27.976
											C-223.053,114.546-213.934,112.384-210.46,102.645z"/>
									</g>
								</g>
								<path id="path3395_1_" fill="#070708" stroke="#010202" stroke-width="0.125" d="M-273.014,551.91
									c24.969,6.078,26.986-55.17,34.393-19.305c13.121,11.066,32.517-9.224,21.472,8.87c18.647,2.1,28.233,0.143,3.638,6.357
									c25.122,8.974,8.732,3.666,1.365,5.267c19.314,7.996,26.792,18.527,2.23,5.29c3.152,10.465-6.696,23.599-18.188,1.025
									c-6.491-15.713-29.847-3.773-43.629-7.472L-273.014,551.91z"/>
							</g>
						</g>
						<path id="path3423_1_" fill="#070708" stroke="#010202" stroke-width="0.125" d="M-257.123,600.648
							c15.166,5.134,28.193,13.131,37.011,26.81c10.217-0.778,38.774,20.266,28.969,18.087c-8.814-5.66-14.73,7.179-23.883-11.558
							c5.562,18.22,6.516,12.795-8.348,22.339c5.524,2.66-9.185-42.474-7.711-19.479c10.315,23.429-3.355,21.742-6.834,1.538
							c9.629-31.639-28.035,16.918-12.57-7.871c16.847-23.339-27.911-6.986-8.196-26.999l1.272-2.341L-257.123,600.648z"/>
						<path id="path3425_1_" fill="#070708" stroke="#010202" stroke-width="0.125" d="M-131.987,577.777
							c-5.12-17.342,20.395-21.124,32.965-22.827c6.805-2.358-28.565-14.614,2.066-17.366c2.801-5.964,18.748,20.197,29.774,25.355
							c21.9,10.212,25.127,13.433-1.174,9.388c-15.667,2.757-30.752,24.603-7.048,20.048c23.727-13.984-5.419,24.45,23.293,16.555
							c40.296-2.426-13.545,3.422-6.592,5.307c33.458,4.741-22.176,2.712,3.224,15.393c-40.666-20.275,22.588,30.929-16.695,5.802
							c17.762,21.818-15.369,5.118-20.229-5.712c-23.044-22.49,7.867,14.004,5.497,16.964c-13.667-0.965,0.424,2.673-12.93-18.607
							c-16.906-18.139,34.762-28.15-9.931-24.929c-20.923,4.187,12.272-23.004-17.714-4.911
							C-125.785,589.205-107.495,580.264-131.987,577.777z"/>
					</g>
				</g>
			</g>
			<path id="path3493_1_" fill="#070708" stroke="#010202" stroke-width="0.125" d="M-6.173,367.1
				c21.623,4.983,43.256,9.806,61.63,22.504c21.416,2.179-16.306,15.835,15.829,17.91c18.092,0.733,30.201,17.637,45.125,26.316
				c-9.907-13.941-44.574-44.836-3.786-24.217c21.437,10.937,54.515,28.98,14.423,4.717c-41.943-15.833-3.54-14.964,16.856-17.917
				c14.269-5.989,30.193,22.046,35.786,19.836c-17.329-24.596,16.315,6.987,24.148,9.666c9.217-1.692-21.377-31.06-36.831-38.233
				c-16.886-9.605-39.071-2.964-58.147-6.903c-19.233-1.704-33.912-18.289-53.884-19.719c-17.515-12.58-28.215,4.622-43.231,7.709
				C5.784,368.213-0.178,367.657-6.173,367.1z"/>
		</g>
		<g id="g3529_1_" transform="matrix(1.2580453,-7.9958428e-2,7.9958428e-2,1.2580453,-137.90861,157.34541)">
			<g id="g3523_1_">
				<path id="path3521_1_" fill="#070708" stroke="#010202" stroke-width="0.125" d="M-129.95,700.659
					c28.346,2.411,75.885,4.63,25.752,4.62c28.944-0.695,58.629,0.582,87.092,8.197c54.742-5.133-49.662,10.236,0.007,8.726
					c-27.275,1.682-54.561,4.053-81.567-1.528c27.739,10.439-10.152,6.315-20.17,0.675c-22.131-10.869-66.432,7.886-56.916-5.574
					c-17.37,0.772-34.771,1.543-52.176,2.361c7.485-2.7,48.765-11.271,31.081-9.588c-20.592,2.01-36.04,3.339-6.69-1.725
					c25.131-6.309,50.405-10.075,76.152-5.135l-2.473-0.959L-129.95,700.659z"/>
				<path id="path3519_1_" fill="#070708" stroke="#010202" stroke-width="0.125" d="M-303.291,691.406
					c45.664-4.363,90.835,4.329,136.426,5.655c-21.967,2.966-43.918,5.661-66.161,5.643c25.224-6.256-37.513-4.534-54.745-3.656
					c5.352,0.324,27.368-4.916-3.661-4.98C-289.054,689.713-319.299,698.022-303.291,691.406z"/>
			</g>
			<path id="path3527_1_" fill="#070708" stroke="#010202" stroke-width="0.125" d="M-11.94,726.827
				c21.534,1.577,88.17,14.216,37.188-0.203c8.359-1.811,31.443-1.659,45.493-2.69c26.078,4.528,100.85,6.987,99.421,12.301
				c-8.968,1.323-50.493,3.142-34.232,4.159c17.41,1.62,34.84,0.403,52.299,0.245c-19.835,11.297-86.264-2.066-54.859,9.745
				c-50.27,9.203-100.291-11.49-150.89-7.457c-12.111-0.722-53.35-7.432-20.634-6.668c18.603-1.256,37.319-0.499,55.936-0.711
				C7.866,732.64-2.053,729.732-11.94,726.827z"/>
		</g>
		<path id="path2238_1_" fill="#070708" stroke="#010202" stroke-width="0.1576" d="M-244.4,369.907
			c-5.77,24.756-17.23,62.183-49.068,46.889c-12.348,4.338,11.46,54.577,3.511,58.794c-14.486-29.235-38.153-49.21-66.339-64.685
			c-2.825,27.843,78.324,59.196,67.388,109.677c0.767,73.239,5.609,146.338,8.474,219.456
			c-38.698-41.906-52.458-100.417-63.918-154.912c17.311,1.069,69.769,19.349,32.08-7.063
			c-42.652-18.299-69.305-84.174-53.265-122.166c33.492,2.381,58.591-12.711,9.786-14.365
			c-62.021,34.945,5.165-37.043-12.288-37.003c-25.26,40.15-26.35-2.623-51.126-15.616c-44.549-10.088-14.406,9.946,10.653,21.548
			c20.62,39.666-10.088-16.564-30.466-10.007c-39.464,0-50.904,8.474-5.084,8.978c43.056,7.647,8.999,19.834-14.87,2.583
			c-40.978-6.396-83.025-6.598-124.386-4.52c43.338,11.763,89.965,0.848,132.214,13.619c20.358,19.228,62.082,21.185,68.336,50.984
			c-24.171-22.738-106.005-62.485-114.52-47.757c73.623,13.176,133.828,63.354,140.224,141.415
			c-33.069-19.188-70.536-31.213-109.354-26.491c-33.714-20.983-75.661-6.457-113.067-16.524
			c-24.111-0.868,39.585,14.022,54.637,11.157c28.852,1.654,53.668,20.539,83.832,16.524c43.863-4.822,28.872,19.873-4.62,18.542
			c-53.991,4.015-109.274-4.035-162.317,6.819c63.03-6.154,128.018,6.859,189.797-6.86c30.183-16.141,41.885-1.452,35.813,25.14
			c5.992-29.336,25.846-6.779,27.217,24.231c-38.556-14.507-79.494,2.199-119.12-7.525c-41.744,1.17-81.471,18.36-115.004,42.571
			c45.981-9.261,88.815-31.333,136.936-28.63c31.172-2.724-48.826,36.963,7.445,8.857c30.426-20.579,69.688-5.892,93.052,17.372
			c20.781,25.381,14.89,63.413,41.321,86.373c13.8,29.216,21.669,59.641,23.243,91.983c-25.785-6.598-34.299-40.15-53.305-56.049
			c-10.007-28.751-28.085-66.743-64.563-59.822c-30.224,1.896-63.636-1.292-91.963,6.456c-19.248,18.098,42.208-6.255,58.894-0.282
			c3.047,11.218,11.016,6.436,44.488,1.21c31.878,1.695,26.229,46.163,47.252,63.696c15.979,24.797-60.064-13.175-4.479,15.879
			c19.571,23.041,44.67,42.329,57.199,70.576c-27.439-36.075-74.833-50.36-109.496-79.051c-29.336-27.217-45.033-4.6-9.604,14.688
			c38.577,24.171,83.025,43.218,112.623,78.505c-29.134-20.257-37.447,12.65-64.604-4.075c-42.249-10.249-41.704-0.464-0.343,8.333
			c24.09,16.947,40.695-12.308,62.021,7.747c27.984,33.533-9.18-0.424-28.993-2.381c-37.366-8.413-107.619,37.205-96.099,51.248
			c40.09-78.001,151.381-30.466,133.909,38.576c-5.892,28.448-6.94,63.959-2.421,78.082c18.925-10.572,115.589,13.76,58.269-13.841
			c24.796-50.198,29.699-135.947,103.039-126.606c41.664,9.06,41.482-12.711,1.13-9.261c-52.236,0.444,2.966-8.394,7.324-38.617
			c9.402-22.153,5.084-62.97,39.585-53.951c14.688,16.464,75.418,13.498,29.699,4.076c-45.195-6.275-22.477-31.011,8.151-9.039
			c-2.905-11.379-39.404-26.875-55.202-5.911c-25.604-40.05-30.91,32.927-35.308,53.769c-13.599,30.567-92.508,94.707-52.417,31.879
			c24.05-45.195,33.533-95.837,50.561-143.815c23.889,6.759-6.416-21.468,35.349-34.542c10.814-16.867,72.069-3.571,46.405-26.976
			c-31.556,2.725-61.941,8.212-85.224,31.455c-34.38,37.205-26.431,94.344-54.032,136.35
			c-15.818,27.117-22.658,61.739-45.517,83.207c-21.306-52.62,17.271-104.553,31.999-155.438
			c16.02-39.585,19.611-87.685,47.455-120.451c22.879-14.628,32.927-30.587,63.676-30.002c25.543-3.45-57.906,9.06-23.041-26.208
			c-19.41,7.202-54.476,47.776-34.138,3.106c29.639-27.762-7.828-56.13-18.038-19.006c-13.235,62.103-35.934,121.904-59.762,180.557
			c-17.795,22.557-8.999,54.777-26.471,78.948c13.599-21.366,13.538-85.93,9.482-124.083
			c-8.151-94.061,12.994-186.629,15.112-280.367c30.304-8.029,18.098-43.782,53.729-49.714c7.304-45.759-38.698,24.736-33.614,0.687
			C-198.035,369.523-215.629,362.925-244.4,369.907z M-209.495,930.197c-36.479-2.34-21.346,40.555-25.381,62.224
			c-1.453,18.279-49.189,58.066-17.674,23.848c15.939-12.59,14.083-36.982,16.746-56.109
			C-235.724,939.841-233.061,928.946-209.495,930.197z"/>
		<g id="g3334_1_" transform="matrix(1.2580453,-7.9958428e-2,7.9958428e-2,1.2580453,-137.90861,157.34541)">
			<path id="path3248_1_" fill="#070708" stroke="#010202" stroke-width="0.125" d="M-34.821,142.596
				c10.656-12.73,38.379,16.135,28.34,12.338C-15.7,148.077-24.575,145.396-34.821,142.596z"/>
			<g id="g3313_1_">
				<path id="path3254_1_" fill="#070708" stroke="#010202" stroke-width="0.125" d="M-9.8,195.554
					c24.766-10.662,10.304,11.481,2.083,21.736c2.865,2.604,18.833-20.775,28.142-23.904c-1.287,23.783-0.213,9.914,15.469,2.892
					c10.345,8.307,24.634,37.346,12.485,9.47c-13.089-22.932-0.548-2.729,14.287,3.57c18.153,4.827,50.503,15.639,52.656,20.122
					c14.073-11.487,24.636,10.82,38.386,13.249c-22.186-13.791,17.035-5.845,27.263-11.835
					c10.165-2.979,41.482-24.868,16.942-12.716c-31.323,4.312-66.6,13.056-94.906-5.888c29.787-2.341-8.411-7.96-21.889-8.624
					c-18.708-6.69-26.29-17.597-2.807-22.952c35.548-11.998-39.773,1.514-30.012-4.457c24.248-12.844-8.484-6.553-20.651-6.653
					c4.142-10.674-19.899-7.375-31.704-0.282c-13.602,6.849-29.613-2.155-41.491,9.872c-26.514,6.109,17.168,15.012,18.351,18.102
					C-52.846,189.002-9.224,178.415-9.8,195.554z"/>
				<g id="g3282_1_">
					<path id="path3219_1_" fill="#070708" stroke="#010202" stroke-width="0.125" d="M-396.388,582.88
						c5.93-31.731,32.901-7.435,48.385-23.211c2.712,0.477-19.436,3.512-25.878-2.879c-20.615,5.907,18.65-18.894-9.06-8.355
						c14.055-11.953,31.499-6.08,43.876,5.098c28.898,5.574,5.728-15.433,26.592-8.108c13.25,11.315,26.727-0.627,41.66,0.595
						c18.265,3.053,38.793,2.802,54.311,14.021c-20.712,11.979-10.035,11.278-27.721,6.433
						c-22.655-12.217-31.031,13.585-53.044,4.664c-11.778-7.469-33.975-0.893-44.51,6.649c-8.884,6.3-13.361,47.969-20.043,24.419
						C-369,591.035-385.698,589.813-396.388,582.88z"/>
					<path id="path3217_1_" fill="#070708" stroke="#010202" stroke-width="0.125" d="M-333.278,632.566
						c11.561-11.069,16.377-33.6,35.588-31.546c15.929,3.739,29.317-5.562,42.643-2.758c31.224,4.31-21.191,16.984,5.579,22.246
						c4.929,3.199-26.223,3.818-30.866,17.813c25.518-6.589,11.681,18.079-4.319,8.915c1.559-8.882-11.808-14.575-24.673-8.464
						c4.422-18.611-3.08-1.511-19.828-6.232l-2.648,0.024L-333.278,632.566z"/>
					<path id="path3221_1_" fill="#070708" stroke="#010202" stroke-width="0.125" d="M-224.484,526.672
						c-13.004,24.93-19.492-12.514-29.694,2.651c-18.766,18.453-14.815,11.808-2.576-6.659c-7.169,2.784-39.601,26.062-28.9,11.603
						c4.88-16.722,29.235-14.853,31.4-32.277c-10.755-8.173-27.392,20.183-31.231,17.244c19.944-17.047,10.882-20.061-7.912-6.725
						c-16.677-2.311-31.26,4.829-47.211,5.74c5.595-10.309,5.117-8.849-14.819-10.084c14.586-7.942,30.379-3.088,44.644-9.014
						c10.618-11.626,31.73,1.151,38.729-17.12c7.855-16.099,26.413-0.486,39.425,0.437c14.294,3.715,33.194-0.2,37.544,18.681
						c1.846,25.457-2.87,13.866-12.729-0.585c-11.316-10.695-28.225,4.012-21.228,17.062
						C-227.485,520.643-225.975,523.642-224.484,526.672z"/>
					<path id="path3223_1_" fill="#070708" stroke="#010202" stroke-width="0.125" d="M-88.835,670.972
						c15.324-21.062,41.906-25.98,60.921-42.043c-14.631,2.085-44.952-0.275-15.264-4.595c22.866-1.962,45.315-1.402,66.938,7.109
						c15.824,3.876,41.253,14.57,13.84-0.74c-23.42-9.25-48.399-12.154-73.492-10.477c12.502-9.47,14.693-32.842,34.369-22.962
						c24.745,7.843,45.051,24.963,70.536,30.239c10.47,6.856,37.125-3.253,37.603,6.399c-20.264,4.919-34.673,8.574-5.655,2.672
						c9.952,1.386,36.521-20.997,26.134-21.578c-19.7,0.336-33.128-3.629-8.666-15.049c6.966-4.641-35.464,22.54-18.816,0.312
						c0.848-11.83,38.281-26.467,20.842-22.603c-12.197,4.678-43.65,10.537-16.645-2.052c15.444-5.048,39.828-5.648,14.619-19.823
						c-11.045-15.216-25.878-15.502-40.448-4.784c-1.082,10.965,37.166,24.366,11.797,22.817
						c-12.807-3.396-37.825,9.72-23.617-9.937c6.441-3.937-20.136,14.02-29.968,6.21c-22.187,16.007-12.949-6.212,1.595-15.006
						c14.954-16.258,39.435-8.303,56.493-21.332c25.254-6.221,16.985-6.33-4.769-3.688c-18.397,4.813-34.966,14.955-54.34,16.225
						c22.017-15.344,1.348-19.192-14.311-11.013c-9.906-7.911,35.942-16.929,12.124-20.175c31.611-4.31-13.456-15.642,14.165-16.709
						c25.611,3.039,50.931,19.259,77.961,13.086c-20.687,17.642-11.567,14.95,7.44,4.562c17.555-9.485,42.941-12.234,59.293,1.235
						c-22.323-6.583-3.952,12.21-19.18,4.779c24.495,20.096-32.63-15.257-7.5,3.436c17.574,11.911-10.856,6.543-6.882,13.403
						c-18.194,4.393,19.112,12.698,26.618,14.442c30-7.716-24.376,0.488-9.834-16.342c7.575-12.958,23.91,13.916,38.484,5.653
						c23.429,6.846,9.651,12.16,0.922,10.724c8.51,4.887,43.169,23.785,16.124,14.032c-28.785-8.886,9.645,5.184,11.103,18.347
						c-0.982,3.338-34.748-24.068-10.156-0.197c22.424,22.147-3.809,1.394-14.915-6.063c2.413,4.933,31.468,38.325,10.69,17.022
						c-9.595-14.065-24.913-17.3-39.84-22.676c14.366,9.157,29.469,17.286,41.381,29.718c-30.402-11.186,4.211,17.011-21.66-0.864
						c-15.075-5.817-24.629-24.804-42.184-21.622c6.319,5.052,43.683,27.571,21.593,16.56c-14.384-13.407-37.361-5.662-11.776,5.618
						c28.718,16.484-31.103-12.786-6.708,5.604c6.952,7.947,35.594,30.424,9.05,25.161c-10.314-2.757-19.132-37.108-20.876-9.426
						c-27.622,3.618,7.273,15.282,16.53,21.531c28.77,10.377-1.488,11.308-6.478,16.379c14.679,5.488-12.981,23.328-23.139,19.379
						c-22.906-18.36,3.933,12.823,17.772,5.01c12.487-10.753,20.811,18.772,38.952,12.676c28.749,5.147,1.083,6.933-13.049,8.746
						c-28.049,1.761-56.196,5.538-84.283,2.597c9.951-18.036,16.754-31.957-3.568-10.731c-8.6,11.417-41.266,6.583-23.241-10.314
						c43.048,18.629-16.424-29.254-13.792,12.354c-22.326-3.263-18.332-10.579-9.201-15.467c-13.88-5.18-36.909,11.703-15.45-7.734
						c30.105-5.833,3.571-12.78-2.821-5.071c18.843-16.893-0.483-20.655-15.755-12.516c-17.283-3.376-29.802,25.05-32.543-1.731
						c-20.145,0.019-12.228-10.48,6.839-15.747c4.669-2.815-28.46,3.676-37.003,10.414c-13.316,12.192-31.995,11.599-48.598,15.964
						l2.598,0.502L-88.835,670.972z"/>
					<path id="path3225_1_" fill="#070708" stroke="#010202" stroke-width="0.125" d="M-98.256,345.321
						c10.952,9.614,12.323,31.704,30.867,19.523c13.611-6.239,30.344-0.011,44.809-2.525c17.773,4.498,13.082,28.833,29.99,35.328
						c10.717,10.785,29.601-4.213,41.741,9.919c12.94,14.422,36.533,6.828,13.97-6.827c-7.161-9.966-44.937-12.126-26.476-23.494
						c11.413-0.67,42.644,10.857,23.688-7.074c-13.05-11.431-29.826,5.24-45.312-1.677c-30.174-1.405,7.548-3.433,18.857-4.735
						c16.338-4.222,33.014,0.88,44.831,12.776c12.47-8.717,41.872-1.219,17.414,10.136c19.04,9.534,39.026,2.176,58.727-0.71
						c16.036,14.154,35.62,23.466,54.414,33.337c-21.257-19.827-6.357-12.272,10.88-2.885
						c-13.719-9.228-27.299-18.622-35.584-33.358c24.082-16.047,11.193-12.087-8.343-4.491
						c-15.139,0.994-38.36-12.654-14.779-23.841c-5.24-9.907-21.665-21.729-34.193-27.753c-7.276-5.627-44.335,5.666-30.282-6.255
						c20.734-4.503,27.027-7.873,2.045-9.461c-15.759,7.226-31.709,3.325-45.402-4.04c-14.07,2.345-21.259,22.096-40.153,18.842
						c-29.987,0.195,9.704-15.164-1.891-24.498c-20.971-1.109-30.336-1.88-15.05-10.242c-3.581-3.964,28.641,0.04,39.344-0.562
						c23.575,14.649,13.526-3.118-3.438-7.468c-17.491-1.368-31.334,0.703-45.017-8.346c-28.544-0.05,2.738-15.832-23.628-13.305
						c-18.41-3.046-22.258,17.125-38.788,21.335c-28.062-2.072-44.976,22.561-65.147,37.878c-17.795,6.455-38.957-6.79-57.463,2.779
						c-18.097,4.64-35.376,11.801-52.935,18.078c10.06,0.431,45.232-6.395,38.806-1.174c-11.037,6.612-44.754,19.817-14.283,14.28
						c32.674-3.873-3.492,2.2-7.066,16.808c6.352-4.055,26.384-11.634,40.551-6.693c-11.996,28.009,8.374,7.541,21.038-1.454
						c15.751-4.579,40.818-12.898,13.671,2.424c-8.602,15.732,21.469,9.175,26.221-6.047c-15.658,14.722-13.686,28.864,8.137,21.11
						c2.762-21.764,33.052-9.816,28.408-11.939C-101.683,361.142-101.564,354.718-98.256,345.321z"/>
					<path id="path3227_1_" fill="#070708" stroke="#010202" stroke-width="0.125" d="M-457.291,483.841
						c25.01-11.978,35.506,13.147,59.839,10.812c14.99,1.353,27.328-11.847,40.247-18.051c-24.175,7.926-24.84-1.803-2.733-8.722
						c15.694-5.946,31.61,1.512,46.418,1.683c21.621-11.135,10.213-18.885-8.138-14.021c8.731-12.467,26.061-17.653,39.397-14.768
						c15.363-10.33,21.923-2.007,38.194,3.903c22.285-5.176-16.857,19.954,16.3,18.084c7.513-14.759,26.379-13.335,34.52-27.363
						c9.91-14.366,32.016-10.426,39.804,4.31c22.069,11.089-14.355,12.383-24.33,12.118c-16.638-4.683-40.016,7.352-11.42,10.115
						c22.886,0.749,45.151-9.158,67.893-3.864c20.582-1.354,74.724-14.464,59.395,18.289c-30.586-16.875-19.635,1.334,2.079,3.131
						c5.651,12.018-40.612-8.515-13.848,11.469c17.517,22.139-10.949,0.684-17.846-8.399c-10.603-18.636-32.632-8.907-47.333-0.908
						c-24.587-0.985-51.737,3.015-71.807-14.54c-0.888,18.002-15.568-9.906-2.207,14.535c-23.317,9.055-6.738-21.678-32.233-13.676
						c-22.957-12.75-19.915-12.171-12.427,4.759c-17.751,1.214-20.887,13.219-38.052,15.816
						c-13.684,10.148-30.742,4.253-46.392,4.718c23.187-11.549,7.388-21.871-6.969-6.922c-16.502,1.758-29.488,14.292-44.521,20.698
						c9.937-7.965,40.035-28.344,12.586-13.313c-9.721,8.603-38.268,11.135-35.97,22.925c4.216,12.135,32.369,21.623,6.701,17.955
						c-10.559-26.892-18.494,2.561-1.404,10.223c-4.81,4.024-25.022,0.815-35.608,8.642c-19.784,0.667,11.121-20.046-18.64-6.493
						c-20.668,6.496,6.447-15.644,14.998-17.459c-10.593-4.923-41.662,17.352-33.355,1.457
						c15.111-8.133,31.832-10.808,47.877-15.962c-15.154-1.284-30.963-3.876-42.546,6.534c-14.372,1.3,18.84-15.835,10.017-15.546
						c15.053-8.216,31.181,8.269,44.882-1.894c-21.175-7.745-8.283-8.706-28.308-11.582c-18.367,2.586-25.009,1.362-5.41-8.491
						L-457.291,483.841z"/>
					<path id="path3229_1_" fill="#070708" stroke="#010202" stroke-width="0.125" d="M-479.789,415.663
						c7.591-15.218,28.138-37.969-4.353-24.622c16.02-5.526,30.351-13.243,39.182-28.302c16.235-23.538,4.442,22.205,16.399,0.112
						c2.809-17.447,26.097,2.22,37.59-2.487c22.285-7.95,46.854-21.576,70.05-8.538c-19.924,2.102-37.384,11.352-55.672,18
						c-9.564,13.97-22.164,11.597-25.497,5.002c-6.653,31.749-23.206-12.877-28.654,4.21
						c-15.392,17.593-29.193,24.543-28.874,16.752C-466.342,402.436-473.067,409.081-479.789,415.663z"/>
					<path id="path3231_1_" fill="#070708" stroke="#010202" stroke-width="0.125" d="M-398.539,278.604
						c17.818,6.81,28.082-13.884,43.547-12.436c26.784,4.782,48.951,21.137,75.632,26.779c-17.708,3.06-44.471,11.832-60.433-3.472
						c-1.212,18.062-33.69,3.199-26.874,1.933c22.368-11.28-11.681-0.422-20.216,2.147c-1.796-3.033,16.8-14.007-9.635-7.877
						C-426.117,285.817-398.142,292.037-398.539,278.604z"/>
					<path id="path3242_1_" fill="#070708" stroke="#010202" stroke-width="0.125" d="M-312.267,199.537
						c-19.469-1.783-34.709,9.133-50.032,19.594c17.948-16.437,5.044-21.074-11.124-9.688c-13.349,8.165-38.935-9.917-11.377-7.716
						c17.635-9.48,41.574,0.429,53.913-19.09c-3.219-5.882-30.475,5.104-37.955-9.18c-12.812,0.212-47.725,1.714-42.532,3.792
						c-8.728-8.782,9.009-19.106,24.799-11.688c27.46-3.081-22.785-7.382-5.259-14.159c25.038,4.735,16.357-1.494-1.802-10.763
						c1.671-1.818,28.573,6.916,35.367,17.355c12.644,18.83,22.265-10.421,37.543-11.086c26.828-3.234-2.602-19.378-15.694-12.481
						c-30.567,6.542,0.15-9.42-22.967-15.123c3.368-13.627,25.941-2.409,37.6-1.139c12.122-11.065,25.668,12.249,39.962,13.189
						c-8.665-10.013-38.365-23.175-8.782-18.28c29.33,1.303-15.597-11.736-6.774-18.825c16.683,7.764,37.123,4.348,13.495-10.209
						c-0.606-5.347,22.377,14.317,30.874,18.899c16.616,5.53,25.207-6.994,39.361-12.189c-26.709-5.194,3.935-6.39,15.884-5.149
						c22.98-1.234,41.651,12.847,61.736,21.838c-18.895-10.551-35.437-28.859-58.872-24.51c-42.583-13.58,30.713-0.775,1.563-18.28
						c19.448,6.4,25.817-14.333,43.241-11.91c29.891,0.04-10.909,13.677,3.182,27.146c13.46,21.383,11.11,18.475,20.139,1.584
						c2.783-1.892-17.003-13.574,5.983-8.841c-8.971-11.765-5.667-23.888,6.238-23.211c7.313-16.151,9.315,11.144,17.93,14.129
						C-116.832,83.962-86.471,64-81.417,58.419c17.667-5.196,27.323,12.45,20.368,19.674c-29.264,3.464-11.464,3.746,7.656,3.935
						c9.223,13.849-7.099,25.658,11.139,4.413c10.516-2.443,21.358-2.459,9.606-11.354c5.895-12.007,45.753-8.029,39.718-4.676
						c-19.02-5.571-35.272,12.946-7.607,5.13c27.154-12.404,1.939-0.23-3.805,13.438c-0.229,24.298,22.15-9.867,25.462-5.198
						c-3.792,23.078,12.9-24.071,21.256,1.158c-19.287-2.621-14.865,22.679-4.796,24.987c20.712,2.407-15.467,3.893,2.055,8.791
						c-15.443,2.499-27.732,4.845-42.211-4.046c-11.113-2.294-36.121,28.834-27.979,13.779c14.105-19.552-15.039-20.25-28.13-20.184
						c-3.874-22.571-12.786,4.352-21.651-20.188c2.276,11.628-13.75,31.634-25.218,14.996c14.276-6.598-19.245-18.416-20.172-0.304
						c14.669,20.53-2.3,7.921-17.635,18.814c-27.86-5.01-12.688-0.983-4.01,4.797c-19.345,4.592-39.536-10.291-56.736,2.938
						c-26.295,12.266,1.331,10.861,12.702,14.134c10.651,9.562,31.84-12.955,41.648,0.274c15.797,14.139,32.213-6.71,47.176-13.007
						c17.789-3.328,35.021,5.882,52.171,10.083c-6.747,21.126,10.608,25.629,27.208,30.662c20.342,4.693,41.952-5.77,61.913-2.898
						c16.307,2.577,24.809,17.936,35.601,28.805c-31.546-16.904-67.416-5.648-101.289-10.175c-9.14,2.499-46.585-5.88-21.656-10.518
						c-16.594-1.343,11.484-8.588-16.772-11.667c-21.982,7.729-45.16-15.171-64.792,1.015c-7.072,16.903,23.729,7.682,31.506,15.266
						c7.326,14.177-16.459,28.078-27.926,14.696c-11.806-1.728-29.787,11.947-39.245-5.541c-26.079-27.479,15.246,16.99-8.5,4.287
						c-8.204,7.449-36.939-2.716-28.324-5.521c10.394-4.071,0.875-7.466,16.916,2.823c15.644-4.394-12.716-30.061-23.744-21.059
						c-12.925,14.607-29.166-11.46-41.065,4.671c-0.676,12.146-40.827,23.643-19.566,12.116c21.27-12.681,15.412-19.934-4.008-4.569
						C-284.207,196.093-300.104,190.351-312.267,199.537z"/>
					<path id="path3244_1_" fill="#070708" stroke="#010202" stroke-width="0.125" d="M-155.572,294.56
						c10.488-12.853,28.628-11.107,39.798-6.692c13.521-11.378,32.238-2.554,41.427,10.315c-19.117-0.75-37.795,6.21-56.255,1.941
						c-13.213,4.26-40.26,6.647-13.925-4.478C-137.043,289.419-153.483,294.741-155.572,294.56z"/>
					<path id="path3246_1_" fill="#070708" stroke="#010202" stroke-width="0.125" d="M-249.143,220.229
						c2.981-16.362,56.74-3.258,30.198-0.743c-13.167-4.798-36.037,10.347-26.094,1.773
						C-252.479,223.769-262.772,230.524-249.143,220.229z"/>
					<path id="path3250_1_" fill="#070708" stroke="#010202" stroke-width="0.125" d="M-89.554,210.42
						c13.573,10.005,27.229-8.533,41.706-11.238c29.001-3.112-13.424,21.456,1.776,15.959c12.804,2.931,15.764-4.274,33.52-3.547
						c20.473-6.702,35.324,17.513,55.346,18.416c-7.406,10.547-43.115-11.513-27.623-1.419c12.338,10.263-24.923-1.263,3.176,9.071
						c20.025,1.353,10.996,20.281-4.69,11.218c1.309,8.679,17.693,16.857-7.464,9.437c-25.817,2.465,21.682-26.479-3.965-12.809
						c-4.073,2.002-31.006-16.309-22.86-2.416c-20.362,4.191-17.986,14.75-35.569,0.722c-14.747-3.15-16.354,8.759-35.642,8.672
						c-16.537,2.317,36.968,10.336,21.358,11.429c-9.298-1.328-40.094-8.835-33.224,6.709c18.615,5.626-6.645,23.794-17.936,22.547
						c1.828-1.262,12.239-24.256-14.316-13.467c9.279-3.933,34.132-14.702,20.355-19.234c-2.406-11.347-19.53,3.731-27.052,11.303
						c-24.937,21.926,17.49-20.331-8.926-15.258c-27.341,11.558-8.837-12.108,5.521-16.713c14.297-7.174,28.822,6.017,38.121-2.003
						c23.609-3.568,23.301-2.753,1.569-5.514c-17.92-6.206,24.662-5.986-6.398-9.852c-11.777-4.967-41.683-5.536-13.924-8.022
						C-114.024,214.398-100.967,216.896-89.554,210.42z"/>
					<path id="path3252_1_" fill="#070708" stroke="#010202" stroke-width="0.125" d="M19.21,218.039
						c7.051,3.367,36.815-2.407,18.373,9.186c10.793,1.777-5.769,13.041,18.071,15.952c5.732,3.17-28.422,8.634-21.258,14.51
						c5.539,7.73,28.449,1.551,30.978,19.289c4.739-0.373,16.222-5.432,15.031-1.322c25.389,1.743-19.792,12.631,8.931,9.87
						c6.88-4.293,5.624,18.496,14.395,3.144c-2.935-14.38,10.411-6.86,27.666-5.314c-5.911-2.878-31.498-18.922-3.859-8.921
						c18.984,15.207,20.073,1.099-1.441-3.572c-18.573-9.568,22.055,5.251,29.682-0.182c23.084-2.622-15.469-7.189-18.257-16.557
						c-14.876-0.609-23.636,4.993-39.056,5.873c-12.152-2.087-22.006,16.179-35.126,1.569c-25.222-7.906-5.343-7.284,9.422-13.499
						c17.333-4.736,35.748,7.822,52.737,1.187c11.238,1.837,33.828-3.094,36.97,2.479c-25.832-16.221,27.995,2.115,9.078-7.843
						c-9.341-11.002-27.39-2.815-40.448-4.784c-14.753,3.007-28.431-12.424-42.564,0.005c-35.266,0.245,16.999-5.543-1.911-8.798
						c-13.749-1.435-36.5-8.094-9.889-5.649c13.957-4.357-21.07-9.647-26.998-15.3C37.691,202.807,28.697,211.601,19.21,218.039z"/>
					<path id="path3256_1_" fill="#070708" stroke="#010202" stroke-width="0.125" d="M-323.294,220.118
						c12.871-8.211,25.283-17.269,39.508-23.069C-293.373,210.104-309.623,212.952-323.294,220.118z"/>
					<path id="path3260_1_" fill="#070708" stroke="#010202" stroke-width="0.125" d="M-150.462,511.409
						c5.307-18.138,24.792-3.492,29.773,7.714c10.387,30.362-5.791-18.394,2.178-14.584c6.227,22.383,7.223-20.278-3.748-18.746
						c-11.919-1.222-28.011,4.683-35.377,14.35C-159.616,506.802-155.031,508.104-150.462,511.409z"/>
					<path id="path3258_1_" fill="#070708" stroke="#010202" stroke-width="0.125" d="M-219.188,514.499
						c14.057-13.252,29.117,9.966,35.424-12.311c17.835,17.139,8.596-7.056,20.97-1.906c22.587-5.653-2.591-3.148-17.103-6.957
						c-13.271,4.16-18.007-0.311-36.285,1.126c-3.875,3.442-18.98,34.686-3.207,20.18L-219.188,514.499z"/>
					<path id="path3262_1_" fill="#070708" stroke="#010202" stroke-width="0.125" d="M24.404,441.132
						c29.206-16.426-15.823-18.519,5.666-20.505c-17.622-0.302-1.56-18.863-28.571-9.209c-10.318-2.933-46.449,17.223-33.408,7.338
						c20.387-17.965,49.201-19.903,75.296-20.682c14.06,8.655,27.092,19.107,42.073,26.153
						c-17.278-13.287,23.525,7.349-6.178-11.299c-2.875-13.815,27.601,0.761,31.839,10.781c14.65,13.248,31.322,1.253,25.038-16.451
						c2.682-18.481,30.811-5.339,27.245,9.895c11.394,26.128,42.522,20.345,64.955,27.223c16.634,7.777-34.999-0.941-16.774,10.578
						c-10.936-4.063-45.002-7.576-22.205,7.714c13.578,5.883,25.422,37.043,4.361,15.658c-7.916-1.61,2.834,10.925-13.23-7.08
						c-16.149-1.267-2.31,6.572-22.22-1.397c11.194,19.187,17.716,15.737,2.018,18.476c-2.486,9.593-30.052-27.041-21.149-7.15
						c15.425,24.78-0.879,11.058-13.371-0.561c-6.866-8.295-32.272-24.151-14.301-7.645c24.112,14.267-20.467,11.658,5.756,17.43
						c7.59,13.056,31.778,19.822,6.197,27.657c15.298-18.898-20.628-5.24-30.697-11.589c-26.251-2.823-19.238-5.152,2.969-6.852
						c-19.68-0.225-39.059-5.69-57.434-10.29c-14.387-0.241-32.275,25.854-16.594,1.688c21.572-24.498-25.044,16.547-9.653-1.784
						c25.825-25.302-19.956,9.669-4.72-11.783c-10.793-16.66,24.028,1.463,29.482-11.694c6.644-19.497,31.181,8.012,5.31-13.904
						c-10.603,9.366-24.041,18.936-41.25,13.384c29.469,0.879,13.532-9.019-6.231-2.641c13.453,1.304,4-18.783,12.942-15.633
						C13.449,445.953,18.821,443.183,24.404,441.132z"/>
				</g>
			</g>
		</g>
	</g>
</g>
</svg>
