<?xml version="1.0" encoding="utf-8"?>
<!-- Generator: Adobe Illustrator 15.1.0, SVG Export Plug-In . SVG Version: 6.00 Build 0)  -->
<!DOCTYPE svg PUBLIC "-//W3C//DTD SVG 1.1//EN" "http://www.w3.org/Graphics/SVG/1.1/DTD/svg11.dtd">
<svg version="1.1" id="Ebene_1" xmlns="http://www.w3.org/2000/svg" xmlns:xlink="http://www.w3.org/1999/xlink" x="0px" y="0px"
	 width="48px" height="48px" viewBox="0 0 48 48" enable-background="new 0 0 48 48" xml:space="preserve">
<g id="layer1" transform="translate(-36.935893,-183.78194)">
	<g id="g3341">
		<g id="g3495" transform="matrix(1.2580453,-7.9958428e-2,7.9958428e-2,1.2580453,-137.90861,157.34541)">
			<g id="g3473">
				<path id="path3471" fill="#070708" stroke="#010202" stroke-width="0.125" d="M161.678,58.68
					c0.751,0.438-0.32,0.299,0.218,0.664c-1.175-0.821-0.024,0.776,0.624,0.703c1.039,0.402,2.267-0.049,3.266,0.529
					c0.295-0.386,1.858-1.552,0.586-0.97c-0.349,0.33-2.365-0.112-1.528-0.209c1.376-0.284,0.764-0.242-0.267-0.13
					c-1.18-0.07-1.006-0.519,0.134-0.366c0.746-0.119,2.376-1.515,0.521-0.62c-1.022,0.391-2.297,0.506-0.584,0.028
					c2.491-0.571-1.474-0.337-1.049-0.395c1.123-0.236,2.307-0.224,3.311-0.848c-0.755,0.11-1.505,0.496-2.266,0.229
					c0.403-0.092,2.502-0.339,1.331-0.288c-0.411-0.025-2.433,0.124-1.619-0.032c0.422-0.1,2.629-0.495,2.057-0.434
					c-1.911-0.003-3.958,0.298-5.664-0.772c1.085,0.789,0.553,0.454,0.084,0.287c0.705,0.614-1.074,0.95,0.541,0.929
					c0.566,0.211,0.758,0.988,1.686,1.014c1.37,0.424-1.552-0.123-0.915,0.235c0.388,0.152,1.991,1.252,1.172,1.022
					C162.77,59.063,162.224,58.871,161.678,58.68z"/>
				<g id="g3451">
					<path id="path3443" fill="#070708" stroke="#010202" stroke-width="0.125" d="M157.114,63.05
						c0.513-1.397,2.096-1.588,3.299-2.106c1.905,0.372,3.872,0.272,5.766-0.022c0.7-0.462,1.4-0.799,2.093-0.131
						c1.179,0.825,2.663,0.762,4.03,0.997c1.349-0.015-0.724,0.063-1.185,0.097c-1.165-0.131-1.183-0.14-0.032,0.184
						c1.372,0.149,0.911,0.146-0.195,0.089c-1.118-0.225-1.376,0.134-0.135,0.261c0.777,0.018,1.505,0.334,2.226,0.597
						c-1.119-0.369-0.956-0.006-1.008,0.005c-1.154-0.525-0.097,0.254-1.319-0.297c0.316,0.456,0.091,0.173-0.253,0.138
						c0.952,0.858,0.343,0.882-0.298,0.049c-0.051,1.053-0.975-0.396-0.703,0.527c-0.878,0.221-0.273,0.264-0.761-0.6
						c-0.312,0.361-1.967,1.344-1.076,0.289c0.006-0.723,2.057-0.621,1.093-0.946c-0.721,0.201-1.796-0.026-1.848,0.993
						c-0.471,0.566-1.679,0.836-0.956-0.285c-0.406,0.411-1.347,1.708-0.693,0.395c0.243-0.8-1.09,0.687-1.654,0.37
						c-1.093,0.153,0.298-1.395-1.157-0.643c-0.984,0.564-0.849,0.847-0.236-0.275c0.792-1.326-1.437-0.029-0.521-0.84
						c-0.357-1.12-0.75,0.986-0.489,0.935c-0.555-0.343-0.102,0.897-1.248,0.993c0.901-1.029,0.491-0.823-0.402-0.168
						c-1.126,0.819,1.324-1.284-0.124-0.291c-1.271,0.775-0.53,0.201,0.228-0.384c1.218-0.873,0.283-0.372-0.507,0.034
						c0.753-0.716,1.031-1.034-0.004-0.26c-0.796,0.584,1.222-1.389,0.598-0.963c-0.747,0.536-1.539,0.233-0.689,0.576
						c-1.08,0.045-1.038,0.364-0.759,0.494c-0.622,0.085,0.486,1.202-0.554,0.049c-0.405,0.848-0.111,0.508-0.244,0.072
						c-0.48,0.323-1.17,0.804-0.357,0.139L157.114,63.05z"/>
					<g id="g3427">
						<g id="g3410">
							<path id="path3408" fill="#070708" stroke="#010202" stroke-width="0.125" d="M158.298,50.568
								c0.413-0.488,1.768-1.343,0.348-1.114c1.027-0.155,0.041-0.324,0.03-0.421c0.776-0.359,0.582-0.22,1.088-0.123
								c-0.524-0.567,0.015-1.012-1.066-1.369c-0.696-0.035-1.575-0.264-2.129,0.271c-0.887,0.442,0.326-1.111,0.926-0.888
								c0.703-0.357,1.574,0.142,2.147,0.483c0.207,0.801,0.695,1.35,1.416,1.73c0.53,0.501,1.353,1.113,0.807,1.89
								c-0.568,0.68,1.827,1.154,0.825,1.382c-0.549-0.005-2.187,0.843-1.406-0.212c-0.1-0.563-1.518-0.648-1-1.605
								c-0.195-0.98,1.773,0.592,0.796-0.647c0.176-1.115-1.126,0.11-1.68,0.155C159.033,50.257,158.665,50.412,158.298,50.568z"/>
							<g id="g3397">
								<g id="g3386">
									<path id="path3384" fill="#070708" stroke="#010202" stroke-width="0.125" d="M154.621,43.285
										c0.932-0.454,1.296-0.354,1.284,0.653c0.898,1.157,0.576,0.166,0.332-0.686c-0.019-0.844,1.265-0.316,1.781-0.179
										c0.939,0.18,1.713,0.835,2.361,1.511c-0.322,0.551,0.42,2.196,0.725,1.107c0.212-0.839,1.368-0.473,1.989-0.888
										c0.724-0.013,1.124,0.927,1.648,1.141c0.895,0.481,1.318-0.971,1.872,0.104c0.085-0.159,1.122-0.363,1.319,0.035
										c-1.257-0.908,1.13,0.474-0.381-0.426c-0.73-0.559-1.635-0.619-2.458-0.242c0.055-0.663,2.011-0.25,1.303-0.65
										c-1.164-0.698-0.337-0.402,0.081-0.415c-0.365-0.171-2.15-1.12-1.102-0.645c1.006,0.596-0.61-0.992,0.9-0.384
										c0.798,0.513,0.648,0.534,1.309,0.514c0.561-0.431,0.288-0.64-0.552-1.167c-0.746-0.495-1.737,0.086-2.446-0.188
										c-0.167-0.918-1.567-0.313-1.506-1.265c-0.937-0.675,1.007-1.292-0.186-1.732c-0.703-0.571-1.755-0.191-2.607-0.367
										c-1.173-0.083-2.349-0.193-3.489,0.168c0.888,0.386,1.777,0.772,2.667,1.158c-1.064-0.269-2.129-0.538-3.195-0.807
										c-0.114,0.857-0.069,1.6,0.973,1.623c0.827,0.273,1.571,0.754,2.361,1.115c-1.344-0.277-2.685-0.573-4.037-0.807
										c0.311,0.635,1.939,0.764,0.519,1.105C155.6,42.876,155.111,43.081,154.621,43.285z"/>
									<g id="g3377">
										<g id="g3301">
											<path id="path3266" fill="#070708" stroke="#010202" stroke-width="0.125" d="M140.724,41.78
												c-1.504,0.067,0.082,0.064,0.527,0.66c-0.258,0.143-2.252-0.034-0.839,0.165c0.307,0.224,2.038,0.097,0.891,0.317
												c-1.469,0.512,0.031,0.036,0.273,0.53c-0.059,0.632-1.167,1.11,0.123,0.727c0.729-0.348,1.406,0.798,0.159,0.307
												c-0.406-0.243-2.236,0.512-1.373,0.38c0.855-0.122,1.639,0.297,0.344,0.164c0.063,0.528-0.477,0.243-1.351,0.319
												c-0.558,0.019,1.418,0.238,0.455,0.421c0.638,0.008,2.141,0.405,0.67,0.401c0.351,0.5,1.925-0.119,1.287,0.392
												c0.757,0.55,0.114,0.658-0.878,0.711c-0.789,0.042-1.545,0.166-2.105,0.778c-0.845,0.787-1.996,1.112-2.851,1.871
												c0.737,0.01,0.446-0.362,1.331-0.172c0.417,0.557,0.348-0.168,0.729-0.698c0.268,0.627,0.307-0.122,0.528,0.193
												c1.01-1.026-0.639,1.348,0.476,0.159c0.641-0.89,0.214,0.909,0.598-0.465c0.664-0.039,0.592-0.168,0.263,0.817
												c-1.074,0.848,0.054-0.004,0.086,0.29c0.165-0.66,1.044,0.301,0.586-0.539c0.284-0.327,0.71,0.351,0.623-0.588
												c0.623,0.372,0.021-0.712,0.888-0.462c-0.551-0.339,0.971-0.392,0.021-0.592c0.204-0.036,1.424-0.159,1.988-0.45
												c-1.394-0.001-0.815-0.177,0.201-0.391c0.489-0.196,2.123-0.166,0.991,0.342c-0.328,0.266-1.638,0.274-0.593,0.498
												c-0.835,0.428-1.389-0.338-1.588,0.333c1.665,0.311-0.778,0.18-0.795,0.35c0.589-0.039-0.873,0.628-0.101,0.557
												c-1.071,0.985,0.527,0.003,1.042-0.181c0.55-0.188-1.924,1.227-0.59,0.767c1.108-0.292,2.013-1.477,3.222-1.307
												c-0.699,0.308-1.353,0.585-2.014,1.008c-0.397,0.574,1.012-0.373,1.344-0.536c0.397,0.272-1.524,1.113,0.048,0.771
												c0.564-0.116,1.223,0.77,0.671-0.347c-0.199-0.327,1.047-0.249,1.124-1.115c1.001-0.809-0.075,1.124,0.787-0.178
												c0.518,0.135-0.603,1.195-0.823,1.633c-0.908,0.935,0.686-0.132,0.934-0.545c0.386-0.787,1.318-0.956,0.7-0.267
												c-0.913,0.644-0.903,0.629,0.145,0.279c0.096,0.36-0.699,1.113,0.514,0.497c0.388-0.237-0.035-0.712,1.115-0.354
												c1.218,0.113-0.427-0.707-0.966-0.604c-0.8-0.808,0.123-0.679,0.741-0.39c0.556-1.297,0.617,0.401,0.863,0.987
												c-0.049,0.675-0.321,0.729,0.25,1.052c-0.614,0.483,0.923,0.995,1.159,1.583c0.425,0.934,1.309,0.377,2.058,0.255
												c-0.185,1.111-0.5,0.387,0.083,1.118c0.087,0.457,0.834-1.003,1.583-0.832c0.798-0.798,0.826,1.093,1.127-0.264
												c0.748,0.841,0.798-0.522,0.77-1.092c-0.293-0.354-1.132,0.204-1.391-0.496c-0.462-1.009-0.951-0.652-0.645-0.496
												c-0.313,0.008-0.679-0.233-1.465-0.423c0.459-0.22-0.729-0.967,0.213-0.53c-0.322-1.092-2.135-3.503-1.622-3.959
												c1.003-0.16-0.892-0.305-1.24-0.479c-0.617-0.4-1.58-0.204-1.837-1.056c-0.955,0.027-0.808,0.031-0.397,0.321
												c-1.026,0.455-0.23,1.287-0.623,1.13c-0.873,0.42-1.268-0.192-1.15,0.337c-0.918,0.458-0.727-0.442-1.485-0.722
												c-1.353-0.275,0.584,0.157,0.638-0.079c0.46,0.101,1.653,0.097,1.568-0.696c-0.189-0.631-1.43-1.126-1.092-0.226
												c-0.285-0.426-1.971-0.492-1.314-0.869c-0.522-0.421-1.176,0.857-1.788,0.1c-0.684-0.569-1.631-0.474-2.445-0.422
												C141.543,42.541,141.186,42.01,140.724,41.78z M143.304,45.181c0.482,0.043,2.5,0.096,1.097,0.129
												c-1.501,0.04-0.468,0.065,0.438,0.09c0.424,0.177,2.476-0.289,1.352,0.032c-1.041,0.269,0.673,0.215-0.855,0.236
												c-1.26,0.059,1.081-0.204-0.722-0.116c-0.822,0.025-1.638-0.152-2.451,0.05c1.293-0.21,0.564-0.242,0.175-0.268
												C142.661,45.284,142.982,45.232,143.304,45.181z M151.795,46.671c-0.182,0.638,0.988,1.841,0.68,1.718
												c-0.53-0.012,1.08,1.219-0.232,0.441c0.893,1.208,0.142,0.144,0.087,0.391c0.138,0.445,0.868,2.118,0.146,0.977
												c-0.187-0.861-0.744-1.754-0.583-2.566C151.861,47.311,151.828,46.991,151.795,46.671z M154.513,50.009
												c1.006,0.494,1.991,1.173,3.128,1.278c-0.774,0.084-1.458-0.234-2.146-0.534c0.689,0.322,1.238,1.086,2.034,1.067
												c-0.756,0.368-1.285-0.625-2.068-0.652c-1.19-0.619-0.786-0.477-0.2-0.228c-0.7-0.565,0.921,0.563-0.27-0.373
												c-1.266-0.526,1.102,0.425-0.556-0.387C154.868,50.342,155.811,50.994,154.513,50.009z"/>
											<path id="path3277" fill="#070708" stroke="#010202" stroke-width="0.125" d="M146.9,56.784
												c-0.75,0.109-1.463,0.303-1.968,0.678c-1.484,0.722,0.788,0.635-0.974,1.103c1.12,0.105,1.207-0.495,0.743,0.177
												c0.686,0.218,1.185-1.324,0.972-0.232c-0.844,0.398,1.134,0.74,1.185,0.453c-0.325-0.451,1.043-0.054,0.295-0.834
												c0.813-0.433,1.959-0.038,0.975-1.092C147.879,56.683,147.281,56.888,146.9,56.784z M147.803,57.293
												c-0.653,0.187-0.243,0.741-1.38,0.456c-1.477-0.094,1.344,0.647,0.133,0.3c-0.427-0.093-2.226-0.096-1.419-0.079
												c0.599-0.009,0.72-0.553,1.695-0.282C147.137,57.687,147.365,57.28,147.803,57.293z"/>
											<path id="path3264" fill="#070708" stroke="#010202" stroke-width="0.125" d="M139.682,52.055
												c0.939-0.519,1.992-0.317,3.003-0.197c1.318-0.791-0.942-0.238,0.521-0.719c1.012-0.345,1.146-0.69,0.004-0.336
												c-1.028,0.285,0.922-0.333,1.216-0.642c-0.341-0.065-2.061-0.184-1.694-0.229c0.71-0.257,1.494-0.499,2.118,0.055
												c0.551,0.79,1.555-0.336,1.707,0.134c0.954-0.121,0.602-0.311,1.221,0.111c1.431,0.378-0.794-0.271-0.668,0.636
												c0.034,0.659-1.339-0.347-1.622,0.568c-0.066,0.856-0.664,0.875-1.428,1.091c-0.713-0.01-1.553-0.43-2.128,0.329
												c-1.26,0.865,0.284,0.005-0.489-0.302c-0.998,1.061-0.028-0.389-1.128,0.51c0.812-0.875-0.994-0.215-0.628-0.434
												c0.124-0.387,2.141-0.622,0.959-0.658C140.325,52.009,140.004,52.046,139.682,52.055z"/>
										</g>
										<path id="path3375" fill="#070708" stroke="#010202" stroke-width="0.125" d="M149.858,34.804
											c0.211-0.929-1.028-1.02-0.134-1.16c-0.605-0.7,1.014-0.418,0.561-0.608c0.697-0.462,0.854,0.37,1.709,0.078
											c0.413-0.396,2.209-0.711,1.23,0.006c-0.182,0.98,0.157-0.004,0.782-0.37c-0.267-0.15-1.002-0.787,0.022-0.44
											c0.504,0.936,1.057-1.798,0.854-0.406c-0.375,0.839,0.971,0.155-0.051,1.275c0.898-0.224,1.901-0.455,2.845-0.659
											c-1.203,0.852-0.378,0.432,0.275,0.857c0.595,1.283-0.311-0.682-0.997,0.059c-1.047,0.837,0.656,0.305,0.867,0.527
											c0.373,0.569,1.42,0.438,2.071,0.387c0.731-0.761,0.97,0.523,1.789-0.185c-0.793,0.293-0.508,1.403,0.233,1.603
											c-0.895-0.187-0.127,0.428-1.229,0.107c-1.35-0.604-0.093,0.179,0.527,0.411c-0.354-0.077-2.054-0.555-1.593,0.021
											c0.351,0.372,2.126,0.308,1.698,0.418c-0.125,0.238-0.887,0.328-1.658,0.095c-1.081-0.132,0.964,0.177,1.183,0.625
											c0.437,0.445-1.189,0.522-1.661,0.64c-0.936-0.145-1.518,0.612-2.198,1.112c-1.141,0.145-0.579-1.314-0.807-1.519
											c-0.412,0.938-1.27,0.294-2.014,0.3c-0.003-0.04,1.589,0.016-0.001-0.174c-1.218-0.166-0.893-0.014,0.001,0.451
											c0.809,0.404-1.211,0.631-1.473,0.107c-0.827-0.577-1.404-0.907-0.537,0.184c0.257,1.007,1.319,0.381,2.013,0.616
											c1.426,0.494-0.232,0.538-0.535,1.005c0.518,1.04-0.269,1.058-1.071,1.239c-0.729,0.544-1.446,1.077-0.516,0
											c-0.595-0.678-1.595,0.651-0.472-0.422c0.187-1.713-1.204,1.591-0.772-0.134c0.046-0.795-0.718,0.884-1.126,1.066
											c-1.542,0.841,0.837-0.455-0.056-0.689c-0.661,0.881-0.059-1.409-0.654-0.074c-0.076,0.78-0.232-1.621-0.37-0.148
											c0.178,0.173-1.069-0.713-0.898,0.625c-0.437,0.322,0.224-0.436-0.321-0.121c0.667-1.276-0.556-0.026-0.552-0.689
											c-1.24,0.459-0.429,0.019-0.527-0.323c-1.225-0.074-0.293,1.353-0.797,0.935c-0.074,1.04,0.098-0.138-0.664-0.049
											c0.436,0.891-0.876,0.646-0.346-0.045c1.03-0.342-0.003-0.808-0.235-0.187c-0.263-0.226-1.381-0.202-0.599,0.601
											c-0.769-0.429-1.401-0.24-0.447-1.025c0.548-0.818-1.03,0.134-1.316,0.454c1.118-1.018,0.347-0.262-0.425,0.14
											c-1.498,0.376,0.853-0.677-0.667-0.09c0.909-0.524-0.313-0.151,0.219-0.48c-0.011-0.043,0.186-0.827,1.295-0.315
											c0.918,0.4,1.437-1.035,0.434-1.03c-0.721-0.005,1.07-0.605,1.228-1.141c0.781-0.505,0.803-1.29-0.201-1.386
											c-1.448,0.211,1.299-0.265,0.149-0.819c0.886-0.554-1.374-1.514-0.192-0.99c0.344-1.015,0.265,1.08,0.973,0.948
											c0.937-0.044,1.801-0.534,2.698-0.794c1.1-0.914-1.548-1.057-0.03-1.006c0.57,0.19,0.515,1.485,1.47,1.354
											C149.25,35.381,149.69,35.275,149.858,34.804z"/>
									</g>
								</g>
								<path id="path3395" fill="#070708" stroke="#010202" stroke-width="0.125" d="M146.83,56.549
									c1.209,0.294,1.307-2.67,1.665-0.934c0.635,0.536,1.574-0.446,1.039,0.429c0.903,0.102,1.367,0.006,0.176,0.308
									c1.216,0.434,0.423,0.177,0.066,0.255c0.935,0.387,1.297,0.897,0.109,0.256c0.152,0.506-0.325,1.142-0.881,0.05
									c-0.314-0.761-1.444-0.183-2.112-0.362L146.83,56.549z"/>
							</g>
						</g>
						<path id="path3423" fill="#070708" stroke="#010202" stroke-width="0.125" d="M147.6,58.908
							c0.734,0.248,1.364,0.635,1.791,1.298c0.495-0.038,1.877,0.981,1.402,0.875c-0.426-0.274-0.713,0.347-1.156-0.559
							c0.269,0.882,0.316,0.619-0.404,1.081c0.267,0.129-0.445-2.056-0.373-0.943c0.499,1.134-0.163,1.052-0.331,0.074
							c0.466-1.531-1.357,0.819-0.608-0.381c0.815-1.13-1.351-0.338-0.397-1.308l0.061-0.113L147.6,58.908z"/>
						<path id="path3425" fill="#070708" stroke="#010202" stroke-width="0.125" d="M153.657,57.801
							c-0.248-0.839,0.987-1.022,1.596-1.106c0.329-0.113-1.383-0.707,0.1-0.84c0.135-0.289,0.907,0.977,1.441,1.227
							c1.06,0.494,1.216,0.65-0.057,0.454c-0.759,0.133-1.488,1.19-0.342,0.97c1.148-0.677-0.262,1.183,1.127,0.801
							c1.952-0.117-0.654,0.166-0.318,0.256c1.62,0.23-1.073,0.132,0.156,0.746c-1.968-0.981,1.093,1.496-0.808,0.281
							c0.86,1.056-0.744,0.248-0.978-0.276c-1.115-1.089,0.381,0.678,0.265,0.821c-0.662-0.047,0.02,0.129-0.626-0.901
							c-0.817-0.878,1.683-1.363-0.479-1.206c-1.013,0.203,0.594-1.114-0.859-0.238C153.957,58.355,154.843,57.923,153.657,57.801z"
							/>
					</g>
				</g>
			</g>
			<path id="path3493" fill="#070708" stroke="#010202" stroke-width="0.125" d="M159.747,47.604
				c1.046,0.241,2.093,0.475,2.983,1.09c1.036,0.105-0.79,0.766,0.766,0.866c0.876,0.037,1.462,0.855,2.183,1.274
				c-0.479-0.674-2.157-2.17-0.182-1.172c1.038,0.53,2.638,1.403,0.698,0.228c-2.031-0.765-0.171-0.724,0.816-0.866
				c0.69-0.29,1.461,1.067,1.732,0.96c-0.84-1.191,0.79,0.338,1.169,0.468c0.446-0.082-1.035-1.505-1.783-1.851
				c-0.817-0.464-1.892-0.144-2.814-0.334c-0.931-0.082-1.642-0.885-2.609-0.954c-0.847-0.608-1.366,0.224-2.092,0.373
				C160.325,47.658,160.036,47.631,159.747,47.604z"/>
		</g>
		<g id="g3529" transform="matrix(1.2580453,-7.9958428e-2,7.9958428e-2,1.2580453,-137.90861,157.34541)">
			<g id="g3523">
				<path id="path3521" fill="#070708" stroke="#010202" stroke-width="0.125" d="M153.756,63.749
					c1.373,0.118,3.672,0.224,1.246,0.224c1.401-0.034,2.839,0.028,4.215,0.397c2.65-0.248-2.404,0.495,0,0.422
					c-1.319,0.081-2.64,0.196-3.947-0.074c1.343,0.505-0.491,0.305-0.976,0.033c-1.071-0.527-3.216,0.381-2.755-0.27
					c-0.841,0.037-1.683,0.075-2.525,0.114c0.362-0.132,2.36-0.546,1.504-0.464c-0.997,0.097-1.744,0.161-0.324-0.084
					c1.217-0.305,2.44-0.487,3.686-0.248l-0.119-0.047L153.756,63.749z"/>
				<path id="path3519" fill="#070708" stroke="#010202" stroke-width="0.125" d="M145.365,63.301
					c2.21-0.211,4.397,0.21,6.603,0.274c-1.063,0.144-2.126,0.274-3.202,0.273c1.221-0.303-1.816-0.219-2.65-0.177
					c0.259,0.016,1.325-0.238-0.177-0.241C146.055,63.219,144.59,63.621,145.365,63.301z"/>
			</g>
			<path id="path3527" fill="#070708" stroke="#010202" stroke-width="0.125" d="M159.467,65.016c1.042,0.076,4.268,0.688,1.8-0.01
				c0.405-0.088,1.523-0.08,2.202-0.13c1.262,0.219,4.882,0.338,4.813,0.595c-0.435,0.065-2.445,0.152-1.658,0.2
				c0.843,0.079,1.686,0.02,2.531,0.012c-0.959,0.548-4.174-0.1-2.655,0.472c-2.433,0.445-4.854-0.556-7.303-0.362
				c-0.586-0.034-2.582-0.36-0.999-0.323c0.901-0.059,1.806-0.023,2.707-0.034C160.426,65.297,159.946,65.156,159.467,65.016z"/>
		</g>
		<path id="path2238" fill="#070708" stroke="#010202" stroke-width="0.1576" d="M60.667,192.372
			c-0.279,1.198-0.835,3.01-2.375,2.269c-0.597,0.21,0.556,2.642,0.171,2.846c-0.702-1.415-1.847-2.382-3.212-3.131
			c-0.136,1.348,3.791,2.866,3.262,5.309c0.037,3.545,0.272,7.082,0.411,10.622c-1.873-2.029-2.54-4.86-3.094-7.498
			c0.838,0.051,3.377,0.936,1.553-0.342c-2.065-0.886-3.355-4.074-2.578-5.913c1.621,0.115,2.836-0.616,0.473-0.695
			c-3.002,1.691,0.25-1.793-0.594-1.791c-1.224,1.943-1.276-0.128-2.476-0.757c-2.155-0.488-0.696,0.482,0.516,1.043
			c0.999,1.921-0.488-0.801-1.474-0.484c-1.91,0-2.464,0.411-0.246,0.435c2.083,0.37,0.435,0.96-0.72,0.125
			c-1.983-0.31-4.019-0.319-6.02-0.219c2.097,0.57,4.354,0.041,6.399,0.659c0.985,0.931,3.005,1.026,3.308,2.468
			c-1.171-1.101-5.131-3.024-5.543-2.312c3.563,0.638,6.477,3.067,6.786,6.845c-1.6-0.928-3.414-1.51-5.292-1.282
			c-1.632-1.015-3.663-0.313-5.473-0.8c-1.167-0.042,1.916,0.679,2.645,0.54c1.396,0.081,2.597,0.994,4.057,0.8
			c2.123-0.234,1.398,0.962-0.224,0.898c-2.613,0.194-5.288-0.196-7.856,0.329c3.051-0.297,6.197,0.333,9.186-0.331
			c1.461-0.781,2.028-0.071,1.734,1.216c0.29-1.419,1.251-0.328,1.318,1.173c-1.867-0.702-3.849,0.107-5.766-0.364
			c-2.021,0.056-3.943,0.888-5.567,2.061c2.226-0.449,4.299-1.517,6.628-1.386c1.509-0.132-2.363,1.789,0.361,0.428
			c1.472-0.996,3.372-0.285,4.504,0.841c1.006,1.229,0.72,3.069,1.999,4.181c0.669,1.414,1.049,2.887,1.125,4.452
			c-1.248-0.319-1.659-1.943-2.58-2.714c-0.484-1.391-1.359-3.23-3.125-2.895c-1.462,0.092-3.079-0.063-4.451,0.313
			c-0.931,0.876,2.043-0.303,2.851-0.014c0.147,0.543,0.533,0.312,2.153,0.059c1.543,0.082,1.269,2.234,2.287,3.083
			c0.774,1.2-2.907-0.638-0.217,0.769c0.948,1.115,2.162,2.049,2.769,3.416c-1.328-1.746-3.622-2.438-5.3-3.826
			c-1.42-1.317-2.179-0.223-0.465,0.711c1.867,1.17,4.019,2.092,5.452,3.799c-1.41-0.979-1.813,0.613-3.127-0.196
			c-2.046-0.496-2.019-0.022-0.017,0.403c1.166,0.819,1.97-0.596,3.002,0.375c1.354,1.623-0.444-0.021-1.404-0.115
			c-1.808-0.407-5.209,1.801-4.651,2.48c1.94-3.775,7.328-1.475,6.481,1.867c-0.285,1.376-0.335,3.096-0.116,3.779
			c0.915-0.512,5.594,0.666,2.82-0.67c1.2-2.43,1.438-6.58,4.987-6.128c2.016,0.438,2.008-0.615,0.055-0.448
			c-2.528,0.021,0.144-0.406,0.354-1.869c0.455-1.072,0.246-3.048,1.915-2.611c0.711,0.797,3.651,0.653,1.438,0.197
			c-2.188-0.304-1.088-1.501,0.395-0.438c-0.143-0.551-1.908-1.301-2.672-0.286c-1.241-1.938-1.497,1.594-1.709,2.602
			c-0.658,1.48-4.479,4.584-2.537,1.544c1.163-2.188,1.623-4.639,2.445-6.961c1.158,0.327-0.311-1.039,1.713-1.672
			c0.521-0.816,3.486-0.173,2.244-1.306c-1.526,0.132-2.998,0.397-4.125,1.522c-1.662,1.801-1.278,4.566-2.614,6.6
			c-0.767,1.313-1.097,2.988-2.202,4.027c-1.032-2.548,0.835-5.061,1.548-7.523c0.776-1.916,0.95-4.245,2.298-5.83
			c1.107-0.708,1.594-1.481,3.082-1.452c1.236-0.167-2.803,0.439-1.115-1.269c-0.938,0.349-2.637,2.313-1.651,0.151
			c1.433-1.344-0.379-2.717-0.873-0.92c-0.642,3.005-1.741,5.9-2.894,8.739c-0.86,1.092-0.435,2.651-1.281,3.821
			c0.659-1.034,0.656-4.159,0.459-6.006c-0.393-4.553,0.63-9.034,0.733-13.57c1.468-0.389,0.876-2.119,2.601-2.406
			c0.354-2.215-1.873,1.197-1.629,0.033C62.911,192.353,62.059,192.034,60.667,192.372z M62.357,219.491
			c-1.767-0.113-1.033,1.963-1.23,3.012c-0.069,0.885-2.38,2.811-0.855,1.154c0.771-0.609,0.682-1.79,0.811-2.716
			C61.087,219.957,61.216,219.43,62.357,219.491z"/>
		<g id="g3334" transform="matrix(1.2580453,-7.9958428e-2,7.9958428e-2,1.2580453,-137.90861,157.34541)">
			<path id="path3248" fill="#070708" stroke="#010202" stroke-width="0.125" d="M158.36,36.738
				c0.517-0.616,1.858,0.781,1.372,0.597C159.287,37.004,158.856,36.873,158.36,36.738z"/>
			<g id="g3313">
				<path id="path3254" fill="#070708" stroke="#010202" stroke-width="0.125" d="M159.571,39.301c1.2-0.516,0.5,0.556,0.102,1.052
					c0.139,0.126,0.912-1.005,1.363-1.157c-0.062,1.151-0.01,0.48,0.749,0.14c0.501,0.402,1.192,1.808,0.604,0.458
					c-0.633-1.11-0.025-0.132,0.693,0.173c0.879,0.234,2.443,0.757,2.549,0.974c0.68-0.556,1.192,0.524,1.858,0.642
					c-1.074-0.668,0.824-0.284,1.319-0.573c0.492-0.145,2.008-1.204,0.82-0.616c-1.516,0.209-3.223,0.632-4.594-0.285
					c1.442-0.113-0.407-0.385-1.059-0.417c-0.905-0.324-1.272-0.852-0.136-1.111c1.721-0.581-1.925,0.073-1.452-0.216
					c1.172-0.622-0.411-0.317-1-0.322c0.201-0.517-0.963-0.357-1.535-0.014c-0.658,0.332-1.433-0.104-2.008,0.478
					c-1.283,0.296,0.831,0.727,0.887,0.876C157.487,38.984,159.599,38.472,159.571,39.301z"/>
				<g id="g3282">
					<path id="path3219" fill="#070708" stroke="#010202" stroke-width="0.125" d="M140.86,58.048
						c0.287-1.537,1.592-0.36,2.342-1.123c0.131,0.023-0.941,0.17-1.253-0.14c-0.997,0.287,0.903-0.914-0.438-0.404
						c0.68-0.578,1.524-0.294,2.124,0.248c1.398,0.27,0.277-0.747,1.287-0.393c0.641,0.548,1.293-0.03,2.016,0.03
						c0.884,0.148,1.878,0.136,2.629,0.679c-1.003,0.58-0.486,0.546-1.342,0.311c-1.096-0.591-1.502,0.658-2.568,0.226
						c-0.569-0.361-1.644-0.043-2.154,0.322c-0.43,0.305-0.647,2.322-0.97,1.182C142.185,58.443,141.376,58.384,140.86,58.048z"/>
					<path id="path3217" fill="#070708" stroke="#010202" stroke-width="0.125" d="M143.914,60.453
						c0.56-0.536,0.793-1.626,1.723-1.527c0.771,0.181,1.419-0.27,2.064-0.134c1.511,0.209-1.026,0.822,0.27,1.077
						c0.238,0.155-1.269,0.184-1.494,0.862c1.235-0.319,0.566,0.875-0.209,0.432c0.076-0.431-0.572-0.705-1.194-0.41
						c0.214-0.901-0.149-0.074-0.96-0.302l-0.128,0.001L143.914,60.453z"/>
					<path id="path3221" fill="#070708" stroke="#010202" stroke-width="0.125" d="M149.18,55.328
						c-0.629,1.206-0.943-0.606-1.437,0.128c-0.908,0.894-0.717,0.572-0.125-0.322c-0.347,0.135-1.916,1.262-1.398,0.561
						c0.236-0.809,1.415-0.719,1.52-1.562c-0.521-0.395-1.326,0.978-1.512,0.835c0.965-0.825,0.526-0.971-0.383-0.326
						c-0.807-0.113-1.513,0.234-2.285,0.277c0.271-0.498,0.247-0.428-0.717-0.488c0.706-0.384,1.47-0.15,2.16-0.436
						c0.514-0.563,1.536,0.055,1.875-0.829c0.38-0.779,1.278-0.024,1.908,0.022c0.692,0.18,1.607-0.01,1.817,0.904
						c0.09,1.232-0.139,0.671-0.616-0.028c-0.547-0.518-1.366,0.194-1.027,0.826C149.034,55.036,149.107,55.181,149.18,55.328z"/>
					<path id="path3223" fill="#070708" stroke="#010202" stroke-width="0.125" d="M155.745,62.312
						c0.742-1.019,2.028-1.257,2.949-2.036c-0.708,0.101-2.174-0.012-0.739-0.222c1.107-0.095,2.194-0.068,3.24,0.344
						c0.766,0.188,1.997,0.705,0.671-0.036c-1.135-0.448-2.343-0.588-3.559-0.507c0.605-0.458,0.711-1.59,1.664-1.111
						c1.198,0.379,2.181,1.208,3.415,1.464c0.506,0.332,1.797-0.157,1.819,0.31c-0.981,0.238-1.678,0.415-0.274,0.129
						c0.482,0.068,1.768-1.016,1.265-1.044c-0.953,0.016-1.603-0.176-0.419-0.728c0.338-0.225-1.717,1.09-0.911,0.014
						c0.041-0.572,1.853-1.281,1.009-1.093c-0.59,0.226-2.112,0.51-0.806-0.099c0.748-0.244,1.928-0.273,0.708-0.959
						c-0.535-0.737-1.252-0.75-1.958-0.232c-0.053,0.531,1.799,1.179,0.57,1.104c-0.62-0.164-1.831,0.471-1.142-0.48
						c0.313-0.191-0.975,0.679-1.45,0.301c-1.074,0.775-0.627-0.301,0.076-0.726c0.725-0.787,1.91-0.402,2.734-1.033
						c1.222-0.301,0.823-0.306-0.231-0.178c-0.89,0.233-1.692,0.724-2.629,0.785c1.065-0.744,0.064-0.929-0.693-0.533
						c-0.479-0.383,1.74-0.819,0.588-0.976c1.529-0.209-0.651-0.757,0.686-0.809c1.239,0.147,2.464,0.932,3.773,0.633
						c-1.002,0.854-0.561,0.724,0.359,0.222c0.85-0.459,2.079-0.592,2.871,0.06c-1.08-0.319-0.192,0.591-0.928,0.231
						c1.186,0.973-1.579-0.738-0.364,0.165c0.852,0.577-0.524,0.317-0.332,0.649c-0.882,0.213,0.925,0.615,1.287,0.7
						c1.453-0.373-1.181,0.024-0.475-0.791c0.367-0.627,1.157,0.674,1.863,0.274c1.134,0.331,0.467,0.589,0.045,0.519
						c0.412,0.237,2.089,1.15,0.78,0.679c-1.393-0.43,0.467,0.251,0.538,0.888c-0.048,0.162-1.682-1.166-0.492-0.01
						c1.085,1.072-0.186,0.067-0.723-0.294c0.118,0.24,1.522,1.856,0.517,0.825c-0.464-0.682-1.204-0.837-1.928-1.098
						c0.694,0.444,1.426,0.837,2.002,1.439c-1.472-0.541,0.204,0.823-1.048-0.042c-0.73-0.282-1.193-1.201-2.043-1.047
						c0.307,0.245,2.114,1.334,1.044,0.801c-0.695-0.649-1.808-0.274-0.57,0.272c1.392,0.798-1.505-0.619-0.323,0.271
						c0.337,0.385,1.723,1.473,0.436,1.218c-0.498-0.133-0.926-1.796-1.01-0.456c-1.336,0.175,0.352,0.74,0.801,1.042
						c1.393,0.502-0.072,0.547-0.314,0.793c0.71,0.266-0.629,1.129-1.12,0.938c-1.109-0.889,0.19,0.621,0.859,0.242
						c0.604-0.521,1.007,0.909,1.885,0.614c1.392,0.249,0.053,0.336-0.631,0.423c-1.358,0.085-2.72,0.267-4.079,0.127
						c0.482-0.873,0.811-1.547-0.174-0.52c-0.415,0.553-1.996,0.319-1.125-0.499c2.084,0.902-0.795-1.416-0.667,0.598
						c-1.081-0.158-0.887-0.512-0.445-0.749c-0.673-0.249-1.786,0.567-0.749-0.374c1.457-0.282,0.174-0.618-0.137-0.245
						c0.912-0.818-0.023-1-0.763-0.606c-0.836-0.163-1.442,1.212-1.574-0.084c-0.974,0.001-0.592-0.506,0.331-0.761
						c0.226-0.136-1.378,0.178-1.791,0.503c-0.645,0.59-1.549,0.561-2.352,0.773l0.126,0.024L155.745,62.312z"/>
					<path id="path3225" fill="#070708" stroke="#010202" stroke-width="0.125" d="M155.289,46.55
						c0.529,0.465,0.596,1.535,1.495,0.945c0.658-0.302,1.47-0.001,2.168-0.122c0.86,0.217,0.633,1.395,1.452,1.71
						c0.518,0.522,1.432-0.204,2.02,0.48c0.626,0.698,1.768,0.33,0.676-0.329c-0.347-0.483-2.176-0.587-1.281-1.138
						c0.552-0.032,2.064,0.526,1.147-0.342c-0.633-0.553-1.445,0.254-2.194-0.081c-1.46-0.068,0.365-0.167,0.913-0.23
						c0.79-0.204,1.599,0.043,2.171,0.619c0.604-0.422,2.025-0.059,0.841,0.491c0.922,0.461,1.89,0.105,2.844-0.035
						c0.775,0.685,1.723,1.136,2.634,1.614c-1.029-0.96-0.308-0.594,0.527-0.14c-0.665-0.446-1.322-0.901-1.722-1.615
						c1.164-0.776,0.54-0.584-0.405-0.217c-0.733,0.048-1.857-0.612-0.716-1.154c-0.253-0.479-1.049-1.052-1.655-1.343
						c-0.352-0.273-2.146,0.274-1.466-0.303c1.002-0.218,1.307-0.381,0.098-0.458c-0.763,0.35-1.535,0.161-2.198-0.195
						c-0.681,0.113-1.027,1.069-1.942,0.912c-1.451,0.009,0.469-0.734-0.093-1.186c-1.015-0.054-1.467-0.091-0.727-0.496
						c-0.173-0.192,1.385,0.002,1.904-0.027c1.141,0.709,0.655-0.151-0.166-0.362c-0.847-0.066-1.517,0.034-2.18-0.403
						c-1.381-0.003,0.133-0.767-1.143-0.644c-0.891-0.148-1.079,0.828-1.878,1.032c-1.358-0.1-2.177,1.092-3.153,1.834
						c-0.862,0.312-1.886-0.329-2.782,0.134c-0.876,0.224-1.712,0.571-2.562,0.875c0.487,0.021,2.19-0.309,1.879-0.057
						c-0.535,0.32-2.167,0.959-0.692,0.691c1.582-0.187-0.169,0.107-0.342,0.814c0.307-0.197,1.277-0.563,1.963-0.324
						c-0.581,1.356,0.405,0.365,1.018-0.07c0.762-0.222,1.976-0.625,0.662,0.117c-0.416,0.761,1.039,0.444,1.269-0.293
						c-0.758,0.713-0.662,1.397,0.394,1.022c0.134-1.053,1.599-0.475,1.375-0.578C155.124,47.316,155.13,47.005,155.289,46.55z"/>
					<path id="path3227" fill="#070708" stroke="#010202" stroke-width="0.125" d="M137.911,53.256
						c1.211-0.581,1.719,0.636,2.896,0.523c0.726,0.066,1.323-0.573,1.949-0.874c-1.171,0.384-1.203-0.087-0.133-0.421
						c0.76-0.289,1.53,0.072,2.247,0.082c1.046-0.539,0.494-0.914-0.394-0.679c0.423-0.603,1.261-0.854,1.907-0.715
						c0.744-0.5,1.061-0.097,1.848,0.189c1.079-0.25-0.816,0.967,0.79,0.875c0.363-0.714,1.276-0.645,1.67-1.324
						c0.48-0.695,1.55-0.505,1.927,0.209c1.068,0.536-0.695,0.599-1.178,0.586c-0.805-0.227-1.937,0.356-0.552,0.49
						c1.107,0.035,2.185-0.445,3.286-0.187c0.996-0.066,3.616-0.7,2.873,0.884c-1.48-0.817-0.949,0.065,0.101,0.151
						c0.274,0.583-1.964-0.411-0.67,0.557c0.848,1.071-0.529,0.033-0.864-0.407c-0.513-0.902-1.579-0.431-2.29-0.044
						c-1.19-0.048-2.504,0.146-3.476-0.704c-0.042,0.872-0.753-0.479-0.106,0.704c-1.129,0.438-0.326-1.048-1.561-0.661
						c-1.111-0.617-0.963-0.589-0.601,0.23c-0.859,0.059-1.011,0.64-1.842,0.766c-0.662,0.491-1.488,0.207-2.245,0.228
						c1.122-0.559,0.357-1.059-0.337-0.335c-0.799,0.085-1.428,0.692-2.155,1.003c0.48-0.386,1.937-1.373,0.609-0.646
						c-0.471,0.417-1.852,0.539-1.741,1.11c0.204,0.587,1.566,1.047,0.324,0.869c-0.511-1.302-0.895,0.124-0.068,0.495
						c-0.233,0.196-1.211,0.039-1.723,0.418c-0.958,0.033,0.538-0.97-0.903-0.314c-1,0.315,0.312-0.756,0.726-0.845
						c-0.512-0.237-2.016,0.841-1.614,0.071c0.731-0.394,1.541-0.525,2.317-0.773c-0.733-0.062-1.498-0.188-2.059,0.316
						c-0.696,0.063,0.912-0.766,0.485-0.752c0.728-0.399,1.509,0.399,2.172-0.092c-1.025-0.375-0.401-0.421-1.37-0.561
						c-0.889,0.127-1.21,0.067-0.262-0.411L137.911,53.256z"/>
					<path id="path3229" fill="#070708" stroke="#010202" stroke-width="0.125" d="M136.823,49.956
						c0.368-0.737,1.361-1.837-0.21-1.193c0.775-0.267,1.468-0.641,1.896-1.369c0.786-1.139,0.215,1.076,0.794,0.005
						c0.136-0.844,1.263,0.108,1.819-0.12c1.079-0.385,2.268-1.044,3.391-0.413c-0.965,0.102-1.81,0.549-2.695,0.871
						c-0.463,0.676-1.073,0.562-1.234,0.242c-0.322,1.537-1.123-0.623-1.387,0.205c-0.745,0.852-1.413,1.188-1.397,0.811
						C137.473,49.315,137.148,49.635,136.823,49.956z"/>
					<path id="path3231" fill="#070708" stroke="#010202" stroke-width="0.125" d="M140.755,43.321
						c0.862,0.329,1.359-0.672,2.108-0.602c1.296,0.231,2.369,1.023,3.66,1.296c-0.857,0.148-2.152,0.573-2.925-0.168
						c-0.059,0.874-1.631,0.155-1.301,0.094c1.083-0.546-0.565-0.021-0.978,0.104c-0.087-0.147,0.813-0.678-0.467-0.382
						C139.42,43.67,140.774,43.971,140.755,43.321z"/>
					<path id="path3242" fill="#070708" stroke="#010202" stroke-width="0.125" d="M144.932,39.494
						c-0.943-0.086-1.681,0.442-2.422,0.948c0.868-0.795,0.244-1.02-0.538-0.469c-0.647,0.395-1.885-0.48-0.551-0.373
						c0.853-0.459,2.012,0.021,2.609-0.924c-0.155-0.285-1.475,0.247-1.837-0.445c-0.62,0.011-2.31,0.083-2.058,0.184
						c-0.423-0.425,0.435-0.925,1.2-0.566c1.329-0.149-1.103-0.357-0.255-0.685c1.212,0.229,0.792-0.072-0.087-0.521
						c0.081-0.088,1.383,0.335,1.712,0.84c0.612,0.911,1.077-0.504,1.817-0.537c1.299-0.156-0.126-0.937-0.76-0.604
						c-1.479,0.317,0.008-0.456-1.111-0.731c0.163-0.66,1.255-0.117,1.82-0.056c0.586-0.535,1.242,0.593,1.934,0.639
						c-0.419-0.485-1.857-1.122-0.425-0.885c1.42,0.063-0.755-0.568-0.328-0.911c0.807,0.375,1.797,0.21,0.653-0.494
						c-0.029-0.259,1.083,0.693,1.495,0.914c0.804,0.268,1.22-0.338,1.905-0.59c-1.293-0.251,0.19-0.309,0.768-0.249
						c1.113-0.06,2.017,0.622,2.989,1.057c-0.915-0.51-1.715-1.397-2.85-1.186c-2.061-0.658,1.487-0.038,0.076-0.885
						c0.941,0.31,1.249-0.694,2.093-0.577c1.447,0.003-0.528,0.663,0.154,1.314c0.651,1.035,0.537,0.895,0.974,0.077
						c0.135-0.092-0.822-0.657,0.29-0.428c-0.434-0.569-0.274-1.156,0.302-1.123c0.354-0.782,0.451,0.539,0.868,0.684
						c-0.978,0.988,0.492,0.022,0.736-0.249c0.855-0.251,1.322,0.603,0.986,0.953c-1.416,0.167-0.553,0.181,0.372,0.191
						c0.446,0.67-0.345,1.242,0.538,0.214c0.51-0.118,1.035-0.119,0.465-0.55c0.285-0.581,2.214-0.389,1.922-0.226
						c-0.921-0.27-1.707,0.626-0.368,0.247c1.314-0.6,0.094-0.011-0.183,0.651c-0.011,1.176,1.072-0.478,1.232-0.252
						c-0.184,1.117,0.622-1.165,1.029,0.056c-0.936-0.127-0.722,1.098-0.232,1.209c1.002,0.117-0.749,0.189,0.099,0.426
						c-0.747,0.121-1.342,0.234-2.043-0.196c-0.539-0.111-1.748,1.396-1.354,0.667c0.683-0.946-0.729-0.98-1.362-0.977
						c-0.187-1.092-0.618,0.211-1.048-0.977c0.111,0.563-0.665,1.531-1.22,0.726c0.691-0.319-0.932-0.891-0.977-0.015
						c0.71,0.994-0.111,0.383-0.853,0.911c-1.349-0.243-0.614-0.048-0.194,0.232c-0.937,0.222-1.914-0.498-2.746,0.142
						c-1.273,0.594,0.064,0.526,0.614,0.684c0.516,0.463,1.542-0.627,2.016,0.014c0.765,0.684,1.559-0.325,2.284-0.63
						c0.861-0.161,1.695,0.285,2.524,0.488c-0.327,1.022,0.514,1.24,1.317,1.484c0.985,0.227,2.03-0.279,2.997-0.14
						c0.789,0.124,1.202,0.868,1.724,1.394c-1.528-0.818-3.264-0.273-4.903-0.492c-0.442,0.12-2.254-0.285-1.048-0.509
						c-0.803-0.066,0.557-0.416-0.812-0.565c-1.064,0.374-2.185-0.735-3.136,0.049c-0.342,0.818,1.149,0.372,1.525,0.739
						c0.355,0.686-0.797,1.359-1.351,0.711c-0.572-0.084-1.442,0.578-1.9-0.268c-1.262-1.33,0.738,0.822-0.411,0.207
						c-0.398,0.361-1.788-0.131-1.371-0.267c0.503-0.197,0.042-0.361,0.818,0.137c0.757-0.213-0.615-1.455-1.149-1.019
						c-0.626,0.707-1.412-0.555-1.988,0.226c-0.032,0.588-1.976,1.144-0.947,0.586c1.03-0.614,0.746-0.965-0.193-0.221
						C146.289,39.328,145.52,39.05,144.932,39.494z"/>
					<path id="path3244" fill="#070708" stroke="#010202" stroke-width="0.125" d="M152.515,44.093
						c0.507-0.622,1.385-0.537,1.926-0.324c0.654-0.55,1.561-0.123,2.006,0.5c-0.925-0.037-1.829,0.3-2.724,0.093
						c-0.639,0.207-1.948,0.322-0.674-0.216C153.413,43.844,152.616,44.102,152.515,44.093z"/>
					<path id="path3246" fill="#070708" stroke="#010202" stroke-width="0.125" d="M147.986,40.495
						c0.144-0.792,2.746-0.157,1.462-0.036c-0.638-0.232-1.745,0.501-1.263,0.086C147.825,40.667,147.326,40.994,147.986,40.495z"/>
					<path id="path3250" fill="#070708" stroke="#010202" stroke-width="0.125" d="M155.71,40.021
						c0.658,0.484,1.319-0.413,2.019-0.544c1.404-0.151-0.649,1.038,0.088,0.772c0.62,0.142,0.763-0.207,1.622-0.172
						c0.992-0.324,1.71,0.848,2.679,0.892c-0.358,0.51-2.087-0.558-1.336-0.069c0.596,0.497-1.206-0.061,0.154,0.439
						c0.968,0.066,0.531,0.982-0.227,0.543c0.063,0.42,0.856,0.816-0.361,0.457c-1.25,0.119,1.049-1.282-0.192-0.62
						c-0.196,0.097-1.501-0.789-1.107-0.117c-0.985,0.203-0.87,0.714-1.72,0.035c-0.714-0.153-0.792,0.424-1.727,0.42
						c-0.8,0.112,1.791,0.5,1.035,0.553c-0.45-0.065-1.941-0.428-1.608,0.325c0.901,0.272-0.322,1.151-0.868,1.091
						c0.089-0.061,0.592-1.174-0.693-0.652c0.449-0.19,1.651-0.711,0.985-0.931c-0.116-0.549-0.945,0.181-1.309,0.547
						c-1.207,1.062,0.847-0.984-0.432-0.738c-1.323,0.559-0.428-0.586,0.267-0.809c0.692-0.347,1.395,0.291,1.845-0.097
						c1.144-0.173,1.128-0.134,0.076-0.267c-0.867-0.3,1.194-0.29-0.31-0.477c-0.57-0.24-2.017-0.268-0.674-0.388
						C154.527,40.213,155.159,40.334,155.71,40.021z"/>
					<path id="path3252" fill="#070708" stroke="#010202" stroke-width="0.125" d="M160.975,40.389
						c0.341,0.163,1.783-0.116,0.889,0.445c0.523,0.086-0.279,0.631,0.875,0.772c0.277,0.154-1.376,0.418-1.029,0.702
						c0.268,0.375,1.376,0.075,1.499,0.934c0.229-0.018,0.785-0.263,0.728-0.064c1.23,0.084-0.956,0.611,0.432,0.478
						c0.333-0.208,0.273,0.895,0.697,0.152c-0.141-0.696,0.505-0.332,1.339-0.257c-0.286-0.139-1.525-0.916-0.187-0.432
						c0.919,0.736,0.972,0.053-0.07-0.173c-0.898-0.463,1.068,0.254,1.437-0.009c1.117-0.127-0.749-0.348-0.884-0.801
						c-0.719-0.03-1.143,0.242-1.89,0.284c-0.588-0.101-1.066,0.783-1.701,0.076c-1.22-0.383-0.258-0.352,0.456-0.653
						c0.84-0.23,1.731,0.378,2.553,0.057c0.544,0.089,1.637-0.15,1.79,0.12c-1.251-0.785,1.354,0.102,0.439-0.379
						c-0.451-0.533-1.326-0.137-1.958-0.232c-0.714,0.145-1.376-0.601-2.06,0c-1.705,0.012,0.824-0.268-0.092-0.426
						c-0.666-0.069-1.766-0.391-0.479-0.273c0.676-0.211-1.019-0.466-1.307-0.741C161.869,39.652,161.434,40.079,160.975,40.389z"/>
					<path id="path3256" fill="#070708" stroke="#010202" stroke-width="0.125" d="M144.397,40.49
						c0.623-0.397,1.223-0.836,1.912-1.117C145.846,40.005,145.058,40.143,144.397,40.49z"/>
					<path id="path3260" fill="#070708" stroke="#010202" stroke-width="0.125" d="M152.763,54.589
						c0.257-0.879,1.2-0.169,1.44,0.373c0.503,1.47-0.28-0.89,0.107-0.706c0.302,1.083,0.349-0.982-0.183-0.907
						c-0.576-0.059-1.355,0.227-1.712,0.695C152.32,54.366,152.541,54.429,152.763,54.589z"/>
					<path id="path3258" fill="#070708" stroke="#010202" stroke-width="0.125" d="M149.436,54.739
						c0.68-0.641,1.409,0.482,1.714-0.596c0.863,0.83,0.416-0.341,1.015-0.092c1.093-0.274-0.125-0.152-0.827-0.337
						c-0.643,0.201-0.872-0.015-1.757,0.054c-0.187,0.167-0.919,1.679-0.155,0.977L149.436,54.739z"/>
					<path id="path3262" fill="#070708" stroke="#010202" stroke-width="0.125" d="M161.227,51.188
						c1.413-0.794-0.766-0.896,0.274-0.992c-0.854-0.015-0.075-0.913-1.383-0.446c-0.499-0.142-2.249,0.834-1.618,0.356
						c0.987-0.869,2.382-0.963,3.645-1.002c0.68,0.419,1.311,0.925,2.036,1.267c-0.835-0.644,1.139,0.356-0.299-0.547
						c-0.14-0.668,1.336,0.036,1.54,0.522c0.709,0.641,1.517,0.06,1.212-0.797c0.131-0.895,1.491-0.259,1.319,0.479
						c0.551,1.265,2.058,0.985,3.143,1.318c0.806,0.376-1.693-0.046-0.811,0.512c-0.529-0.197-2.179-0.367-1.075,0.373
						c0.656,0.285,1.23,1.794,0.211,0.759c-0.383-0.079,0.137,0.527-0.64-0.343c-0.781-0.061-0.112,0.318-1.076-0.067
						c0.542,0.928,0.858,0.761,0.098,0.894c-0.12,0.464-1.456-1.31-1.025-0.346c0.747,1.199-0.041,0.535-0.647-0.027
						c-0.331-0.402-1.562-1.169-0.691-0.37c1.168,0.69-0.991,0.564,0.279,0.843c0.367,0.632,1.538,0.959,0.299,1.339
						c0.74-0.916-0.999-0.254-1.486-0.562c-1.271-0.137-0.931-0.249,0.144-0.332c-0.953-0.011-1.89-0.275-2.781-0.498
						c-0.697-0.012-1.563,1.251-0.803,0.082c1.044-1.186-1.211,0.802-0.467-0.086c1.252-1.225-0.964,0.468-0.227-0.571
						c-0.522-0.806,1.162,0.072,1.427-0.566c0.322-0.943,1.508,0.389,0.256-0.673c-0.513,0.453-1.164,0.917-1.997,0.649
						c1.429,0.041,0.655-0.437-0.299-0.128c0.65,0.063,0.193-0.909,0.626-0.757C160.696,51.421,160.956,51.287,161.227,51.188z"/>
				</g>
			</g>
		</g>
	</g>
</g>
<g id="layer1_1_" transform="translate(-36.935893,-183.78194)">
	<g id="g3341_1_">
		<g id="g3495_1_" transform="matrix(1.2580453,-7.9958428e-2,7.9958428e-2,1.2580453,-137.90861,157.34541)">
			<g id="g3473_1_">
				<path id="path3471_1_" fill="#070708" stroke="#010202" stroke-width="0.125" d="M161.478,60.591
					c0.752,0.438-0.32,0.299,0.219,0.664c-1.177-0.82-0.023,0.776,0.623,0.703c1.039,0.402,2.267-0.049,3.267,0.529
					c0.295-0.386,1.859-1.552,0.585-0.97c-0.349,0.331-2.364-0.112-1.527-0.208c1.375-0.284,0.764-0.243-0.267-0.13
					c-1.18-0.07-1.006-0.519,0.134-0.366c0.746-0.119,2.375-1.515,0.521-0.619c-1.022,0.391-2.297,0.506-0.584,0.027
					c2.491-0.571-1.474-0.337-1.049-0.395c1.123-0.236,2.307-0.224,3.311-0.848c-0.755,0.11-1.505,0.496-2.266,0.229
					c0.403-0.092,2.502-0.339,1.33-0.288c-0.41-0.024-2.433,0.124-1.62-0.032c0.422-0.1,2.63-0.496,2.058-0.434
					c-1.911-0.003-3.958,0.298-5.663-0.772c1.085,0.789,0.553,0.454,0.083,0.287c0.705,0.615-1.074,0.95,0.543,0.929
					c0.566,0.211,0.757,0.988,1.684,1.014c1.37,0.424-1.551-0.123-0.915,0.235c0.388,0.152,1.991,1.252,1.172,1.022
					C162.571,60.974,162.025,60.782,161.478,60.591z"/>
				<g id="g3451_1_">
					<path id="path3443_1_" fill="#070708" stroke="#010202" stroke-width="0.125" d="M156.915,64.961
						c0.513-1.397,2.096-1.588,3.299-2.106c1.906,0.372,3.872,0.272,5.766-0.022c0.7-0.462,1.4-0.799,2.093-0.131
						c1.179,0.825,2.662,0.762,4.029,0.997c1.349-0.014-0.723,0.064-1.185,0.097c-1.165-0.131-1.183-0.14-0.032,0.183
						c1.374,0.149,0.913,0.147-0.195,0.089c-1.117-0.225-1.376,0.135-0.135,0.262c0.777,0.017,1.505,0.333,2.226,0.596
						c-1.119-0.369-0.956-0.006-1.008,0.005c-1.154-0.524-0.097,0.254-1.319-0.297c0.316,0.456,0.091,0.173-0.253,0.138
						c0.953,0.858,0.343,0.882-0.298,0.049c-0.051,1.054-0.975-0.396-0.703,0.527c-0.877,0.221-0.273,0.265-0.761-0.6
						c-0.313,0.36-1.967,1.344-1.076,0.289c0.007-0.723,2.058-0.622,1.093-0.947c-0.722,0.202-1.796-0.026-1.848,0.993
						c-0.471,0.566-1.68,0.836-0.958-0.285c-0.405,0.411-1.346,1.708-0.693,0.395c0.245-0.799-1.088,0.686-1.652,0.37
						c-1.095,0.152,0.298-1.395-1.158-0.643c-0.984,0.564-0.849,0.847-0.236-0.275c0.792-1.326-1.437-0.029-0.521-0.84
						c-0.357-1.12-0.75,0.985-0.489,0.934c-0.556-0.342-0.101,0.897-1.248,0.993c0.902-1.029,0.492-0.823-0.401-0.168
						c-1.126,0.819,1.325-1.283-0.124-0.291c-1.27,0.776-0.53,0.202,0.229-0.384c1.217-0.872,0.283-0.372-0.508,0.034
						c0.753-0.716,1.031-1.034-0.004-0.26c-0.796,0.584,1.222-1.389,0.598-0.963c-0.748,0.537-1.539,0.233-0.689,0.576
						c-1.08,0.045-1.038,0.364-0.761,0.493c-0.622,0.084,0.487,1.201-0.554,0.049c-0.405,0.847-0.11,0.508-0.244,0.072
						c-0.48,0.323-1.17,0.804-0.358,0.139L156.915,64.961z"/>
					<g id="g3427_1_">
						<g id="g3410_1_">
							<path id="path3408_1_" fill="#070708" stroke="#010202" stroke-width="0.125" d="M158.098,52.479
								c0.413-0.488,1.767-1.343,0.349-1.113c1.028-0.155,0.039-0.324,0.03-0.42c0.774-0.36,0.582-0.22,1.088-0.123
								c-0.524-0.567,0.015-1.012-1.067-1.369c-0.695-0.035-1.575-0.264-2.129,0.271c-0.888,0.442,0.325-1.111,0.926-0.888
								c0.703-0.357,1.573,0.142,2.147,0.483c0.204,0.801,0.695,1.35,1.416,1.731c0.529,0.501,1.353,1.112,0.804,1.889
								c-0.568,0.68,1.827,1.154,0.825,1.381c-0.549-0.005-2.185,0.844-1.404-0.212c-0.102-0.562-1.519-0.648-0.999-1.605
								c-0.195-0.98,1.773,0.592,0.796-0.647c0.176-1.115-1.125,0.11-1.68,0.155C158.834,52.168,158.465,52.323,158.098,52.479z"/>
							<g id="g3397_1_">
								<g id="g3386_1_">
									<path id="path3384_1_" fill="#070708" stroke="#010202" stroke-width="0.125" d="M154.422,45.196
										c0.932-0.454,1.296-0.354,1.284,0.653c0.9,1.157,0.576,0.166,0.332-0.686c-0.019-0.844,1.265-0.316,1.781-0.179
										c0.939,0.18,1.712,0.835,2.36,1.511c-0.322,0.551,0.421,2.196,0.726,1.107c0.21-0.839,1.367-0.473,1.989-0.888
										c0.724-0.013,1.124,0.927,1.646,1.141c0.896,0.481,1.318-0.971,1.872,0.104c0.086-0.159,1.124-0.363,1.319,0.035
										c-1.257-0.908,1.131,0.474-0.381-0.426c-0.73-0.559-1.634-0.619-2.458-0.242c0.056-0.663,2.011-0.25,1.303-0.65
										c-1.163-0.698-0.336-0.402,0.081-0.415c-0.365-0.171-2.15-1.12-1.102-0.645c1.005,0.596-0.611-0.992,0.9-0.384
										c0.798,0.513,0.646,0.534,1.309,0.514c0.56-0.431,0.286-0.64-0.553-1.167c-0.746-0.495-1.737,0.086-2.446-0.188
										c-0.167-0.918-1.567-0.313-1.506-1.265c-0.934-0.675,1.007-1.292-0.186-1.732c-0.703-0.571-1.755-0.191-2.607-0.367
										c-1.173-0.083-2.349-0.193-3.488,0.168c0.888,0.386,1.777,0.772,2.667,1.158c-1.063-0.269-2.128-0.538-3.194-0.807
										c-0.115,0.857-0.069,1.6,0.973,1.623c0.827,0.273,1.571,0.754,2.363,1.115c-1.345-0.277-2.685-0.573-4.038-0.807
										c0.311,0.635,1.939,0.764,0.518,1.105C155.4,44.787,154.911,44.992,154.422,45.196z"/>
									<g id="g3377_1_">
										<g id="g3301_1_">
											<path id="path3266_1_" fill="#070708" stroke="#010202" stroke-width="0.125" d="M140.524,43.69
												c-1.504,0.067,0.082,0.064,0.527,0.66c-0.258,0.143-2.252-0.034-0.839,0.165c0.307,0.224,2.038,0.097,0.891,0.317
												c-1.469,0.512,0.031,0.036,0.273,0.53c-0.059,0.632-1.167,1.11,0.123,0.727c0.729-0.348,1.406,0.798,0.159,0.307
												c-0.406-0.243-2.236,0.512-1.373,0.38c0.855-0.122,1.639,0.297,0.344,0.164c0.063,0.528-0.477,0.243-1.351,0.319
												c-0.558,0.019,1.418,0.238,0.455,0.421c0.638,0.008,2.141,0.405,0.67,0.401c0.351,0.5,1.925-0.119,1.287,0.392
												c0.757,0.55,0.114,0.658-0.878,0.711c-0.789,0.042-1.545,0.165-2.105,0.778c-0.845,0.785-1.996,1.112-2.851,1.87
												c0.737,0.01,0.446-0.361,1.331-0.172c0.417,0.556,0.348-0.168,0.729-0.697c0.268,0.626,0.307-0.123,0.528,0.193
												c1.01-1.026-0.639,1.348,0.476,0.16c0.641-0.891,0.214,0.909,0.598-0.465c0.664-0.039,0.592-0.169,0.263,0.816
												c-1.074,0.848,0.054-0.004,0.086,0.29c0.165-0.659,1.044,0.302,0.586-0.539c0.284-0.327,0.71,0.35,0.623-0.588
												c0.623,0.373,0.021-0.713,0.888-0.462c-0.551-0.339,0.971-0.392,0.021-0.592c0.204-0.036,1.424-0.159,1.988-0.451
												c-1.394-0.001-0.815-0.177,0.201-0.391c0.489-0.196,2.123-0.166,0.991,0.342c-0.328,0.266-1.638,0.274-0.593,0.498
												c-0.834,0.428-1.389-0.338-1.588,0.333c1.665,0.31-0.778,0.18-0.795,0.349c0.589-0.039-0.873,0.628-0.101,0.557
												c-1.071,0.985,0.527,0.002,1.042-0.181c0.55-0.188-1.924,1.227-0.59,0.767c1.108-0.292,2.013-1.477,3.222-1.307
												c-0.699,0.306-1.353,0.585-2.014,1.008c-0.397,0.574,1.012-0.373,1.344-0.536c0.397,0.272-1.524,1.113,0.048,0.772
												c0.564-0.116,1.223,0.77,0.671-0.347c-0.199-0.328,1.047-0.249,1.124-1.116c1.001-0.809-0.075,1.123,0.787-0.178
												c0.518,0.135-0.603,1.196-0.823,1.634c-0.908,0.934,0.686-0.132,0.934-0.545c0.386-0.787,1.318-0.956,0.7-0.267
												c-0.913,0.645-0.903,0.63,0.145,0.279c0.095,0.36-0.699,1.115,0.514,0.498c0.388-0.237-0.035-0.712,1.115-0.354
												c1.218,0.112-0.427-0.707-0.966-0.605c-0.8-0.808,0.123-0.679,0.741-0.389c0.556-1.297,0.617,0.401,0.863,0.986
												c-0.049,0.675-0.321,0.729,0.25,1.052c-0.614,0.483,0.923,0.995,1.159,1.583c0.425,0.934,1.309,0.377,2.058,0.255
												c-0.185,1.109-0.5,0.387,0.083,1.118c0.087,0.457,0.833-1.004,1.583-0.832c0.799-0.798,0.826,1.091,1.127-0.265
												c0.749,0.841,0.797-0.522,0.77-1.092c-0.293-0.353-1.131,0.204-1.391-0.496c-0.462-1.009-0.951-0.652-0.644-0.497
												c-0.313,0.008-0.681-0.233-1.466-0.422c0.459-0.222-0.729-0.968,0.213-0.531c-0.322-1.092-2.135-3.502-1.622-3.958
												c1.003-0.16-0.892-0.305-1.24-0.479c-0.617-0.4-1.58-0.204-1.837-1.056c-0.955,0.027-0.808,0.031-0.397,0.321
												c-1.026,0.455-0.23,1.287-0.623,1.13c-0.873,0.42-1.268-0.192-1.15,0.337c-0.918,0.458-0.727-0.442-1.485-0.722
												c-1.353-0.275,0.584,0.157,0.638-0.079c0.46,0.101,1.653,0.097,1.568-0.696c-0.189-0.631-1.43-1.126-1.092-0.226
												c-0.285-0.426-1.971-0.492-1.314-0.869c-0.522-0.421-1.176,0.857-1.788,0.1c-0.684-0.569-1.631-0.474-2.445-0.422
												C141.344,44.452,140.986,43.92,140.524,43.69z M143.105,47.092c0.482,0.043,2.5,0.096,1.097,0.129
												c-1.501,0.04-0.468,0.065,0.438,0.09c0.424,0.177,2.476-0.289,1.352,0.032c-1.041,0.269,0.673,0.215-0.855,0.236
												c-1.26,0.059,1.081-0.204-0.722-0.116c-0.822,0.025-1.638-0.152-2.451,0.05c1.293-0.21,0.564-0.242,0.175-0.268
												C142.461,47.195,142.783,47.143,143.105,47.092z M151.595,48.582c-0.182,0.638,0.988,1.84,0.68,1.718
												c-0.53-0.012,1.08,1.219-0.232,0.44c0.893,1.209,0.142,0.144,0.087,0.391c0.138,0.445,0.868,2.118,0.146,0.977
												c-0.187-0.861-0.744-1.754-0.583-2.566C151.661,49.222,151.628,48.902,151.595,48.582z M154.313,51.92
												c1.006,0.494,1.991,1.173,3.127,1.278c-0.771,0.084-1.457-0.234-2.146-0.534c0.689,0.322,1.241,1.086,2.036,1.068
												c-0.755,0.368-1.285-0.625-2.07-0.652c-1.19-0.619-0.786-0.477-0.199-0.228c-0.701-0.565,0.921,0.563-0.27-0.373
												c-1.266-0.526,1.102,0.426-0.556-0.388C154.669,52.253,155.612,52.905,154.313,51.92z"/>
											<path id="path3277_1_" fill="#070708" stroke="#010202" stroke-width="0.125" d="M146.7,58.694
												c-0.75,0.108-1.463,0.303-1.968,0.678c-1.484,0.721,0.788,0.635-0.974,1.102c1.12,0.105,1.207-0.495,0.743,0.178
												c0.686,0.217,1.185-1.324,0.972-0.232c-0.844,0.397,1.134,0.738,1.185,0.451c-0.325-0.449,1.043-0.053,0.295-0.834
												c0.813-0.434,1.959-0.039,0.975-1.092C147.68,58.594,147.081,58.799,146.7,58.694z M147.603,59.204
												c-0.653,0.187-0.243,0.741-1.38,0.456c-1.477-0.095,1.344,0.647,0.133,0.299c-0.427-0.093-2.226-0.096-1.419-0.079
												c0.599-0.009,0.72-0.554,1.695-0.282C146.938,59.598,147.165,59.192,147.603,59.204z"/>
											<path id="path3264_1_" fill="#070708" stroke="#010202" stroke-width="0.125" d="M139.482,53.967
												c0.939-0.519,1.992-0.317,3.003-0.198c1.318-0.791-0.942-0.238,0.521-0.719c1.012-0.345,1.146-0.69,0.004-0.336
												c-1.028,0.286,0.922-0.333,1.216-0.642c-0.341-0.064-2.061-0.184-1.694-0.229c0.71-0.258,1.494-0.499,2.118,0.055
												c0.551,0.79,1.555-0.337,1.707,0.134c0.954-0.121,0.602-0.31,1.221,0.11c1.431,0.378-0.794-0.271-0.668,0.636
												c0.034,0.659-1.339-0.347-1.622,0.568c-0.066,0.856-0.664,0.875-1.428,1.091c-0.713-0.01-1.553-0.43-2.128,0.329
												c-1.26,0.865,0.284,0.005-0.489-0.302c-0.998,1.061-0.028-0.389-1.128,0.51c0.812-0.875-0.994-0.215-0.628-0.434
												c0.124-0.386,2.141-0.622,0.959-0.658C140.125,53.92,139.804,53.957,139.482,53.967z"/>
										</g>
										<path id="path3375_1_" fill="#070708" stroke="#010202" stroke-width="0.125" d="M149.659,36.715
											c0.211-0.929-1.028-1.02-0.134-1.16c-0.605-0.7,1.014-0.418,0.561-0.608c0.697-0.462,0.854,0.37,1.709,0.078
											c0.413-0.396,2.209-0.711,1.23,0.006c-0.182,0.98,0.157-0.004,0.782-0.37c-0.267-0.15-1.002-0.787,0.022-0.44
											c0.504,0.936,1.057-1.798,0.854-0.406c-0.375,0.839,0.971,0.155-0.051,1.275c0.897-0.224,1.901-0.455,2.844-0.659
											c-1.202,0.852-0.378,0.432,0.275,0.857c0.595,1.283-0.312-0.682-0.997,0.059c-1.047,0.837,0.656,0.305,0.867,0.527
											c0.372,0.569,1.419,0.438,2.071,0.387c0.731-0.761,0.97,0.523,1.791-0.185c-0.793,0.293-0.508,1.403,0.233,1.603
											c-0.895-0.187-0.128,0.428-1.229,0.107c-1.351-0.604-0.092,0.179,0.527,0.411c-0.352-0.077-2.054-0.555-1.593,0.021
											c0.352,0.372,2.126,0.308,1.697,0.418c-0.125,0.238-0.887,0.328-1.658,0.095c-1.081-0.132,0.964,0.177,1.182,0.625
											c0.437,0.445-1.188,0.522-1.662,0.64c-0.935-0.145-1.517,0.612-2.198,1.112c-1.141,0.145-0.579-1.315-0.807-1.519
											c-0.412,0.938-1.269,0.294-2.014,0.3c-0.003-0.04,1.589,0.016-0.001-0.174c-1.218-0.166-0.893-0.014,0.001,0.451
											c0.809,0.404-1.211,0.631-1.473,0.107c-0.827-0.577-1.404-0.907-0.537,0.184c0.257,1.007,1.319,0.381,2.013,0.616
											c1.425,0.494-0.232,0.538-0.535,1.005c0.518,1.04-0.269,1.058-1.071,1.239c-0.729,0.544-1.446,1.077-0.516,0
											c-0.595-0.678-1.595,0.651-0.472-0.422c0.187-1.713-1.204,1.591-0.772-0.134c0.046-0.795-0.718,0.884-1.126,1.066
											c-1.542,0.841,0.837-0.455-0.056-0.689c-0.661,0.881-0.059-1.409-0.654-0.074c-0.076,0.78-0.232-1.621-0.37-0.148
											c0.178,0.173-1.069-0.713-0.898,0.625c-0.437,0.322,0.224-0.436-0.321-0.121c0.667-1.276-0.556-0.026-0.552-0.689
											c-1.24,0.459-0.429,0.019-0.527-0.323c-1.225-0.074-0.293,1.353-0.797,0.935c-0.074,1.04,0.098-0.138-0.664-0.049
											c0.436,0.891-0.876,0.646-0.346-0.045c1.03-0.342-0.003-0.808-0.235-0.187c-0.263-0.226-1.381-0.202-0.599,0.601
											c-0.769-0.429-1.401-0.24-0.447-1.025c0.548-0.818-1.03,0.134-1.316,0.454c1.118-1.018,0.347-0.262-0.425,0.14
											c-1.498,0.376,0.853-0.677-0.667-0.09c0.909-0.524-0.313-0.151,0.219-0.48c-0.011-0.043,0.186-0.827,1.295-0.315
											c0.918,0.4,1.437-1.035,0.434-1.03c-0.721-0.005,1.07-0.605,1.228-1.141c0.781-0.505,0.803-1.29-0.201-1.386
											c-1.448,0.211,1.299-0.265,0.149-0.819c0.886-0.554-1.374-1.514-0.192-0.99c0.344-1.015,0.265,1.08,0.973,0.948
											c0.937-0.044,1.801-0.534,2.698-0.794c1.1-0.914-1.548-1.057-0.03-1.006c0.57,0.19,0.515,1.485,1.47,1.354
											C149.05,37.291,149.491,37.186,149.659,36.715z"/>
									</g>
								</g>
								<path id="path3395_1_" fill="#070708" stroke="#010202" stroke-width="0.125" d="M146.631,58.46
									c1.209,0.294,1.307-2.67,1.665-0.934c0.635,0.536,1.574-0.446,1.039,0.429c0.903,0.102,1.367,0.007,0.176,0.308
									c1.216,0.434,0.423,0.177,0.066,0.255c0.935,0.387,1.297,0.897,0.109,0.256c0.152,0.506-0.325,1.142-0.881,0.05
									c-0.314-0.761-1.444-0.183-2.112-0.362L146.631,58.46z"/>
							</g>
						</g>
						<path id="path3423_1_" fill="#070708" stroke="#010202" stroke-width="0.125" d="M147.401,60.819
							c0.734,0.248,1.364,0.636,1.791,1.298c0.495-0.038,1.877,0.981,1.402,0.875c-0.426-0.274-0.713,0.347-1.156-0.559
							c0.269,0.882,0.316,0.619-0.404,1.081c0.267,0.129-0.445-2.056-0.373-0.943c0.499,1.134-0.163,1.052-0.331,0.074
							c0.466-1.531-1.357,0.819-0.608-0.381c0.815-1.13-1.351-0.338-0.397-1.307l0.061-0.113L147.401,60.819z"/>
						<path id="path3425_1_" fill="#070708" stroke="#010202" stroke-width="0.125" d="M153.457,59.712
							c-0.248-0.839,0.987-1.022,1.596-1.105c0.329-0.114-1.383-0.707,0.1-0.841c0.136-0.289,0.907,0.978,1.441,1.227
							c1.06,0.494,1.216,0.65-0.057,0.454c-0.758,0.133-1.488,1.191-0.341,0.97c1.148-0.677-0.262,1.183,1.127,0.801
							c1.95-0.117-0.656,0.166-0.319,0.257c1.619,0.229-1.073,0.131,0.156,0.745c-1.968-0.981,1.093,1.497-0.808,0.281
							c0.86,1.056-0.744,0.248-0.979-0.276c-1.115-1.089,0.381,0.678,0.266,0.821c-0.661-0.047,0.02,0.129-0.626-0.901
							c-0.819-0.878,1.683-1.363-0.481-1.207c-1.013,0.203,0.594-1.113-0.857-0.238C153.757,60.265,154.643,59.833,153.457,59.712z"
							/>
					</g>
				</g>
			</g>
			<path id="path3493_1_" fill="#070708" stroke="#010202" stroke-width="0.125" d="M159.547,49.515
				c1.047,0.241,2.094,0.475,2.983,1.09c1.037,0.105-0.789,0.766,0.766,0.866c0.876,0.035,1.462,0.854,2.184,1.274
				c-0.48-0.675-2.157-2.17-0.183-1.172c1.038,0.529,2.639,1.403,0.698,0.228c-2.03-0.766-0.171-0.724,0.816-0.867
				c0.691-0.29,1.461,1.067,1.732,0.96c-0.839-1.191,0.79,0.338,1.169,0.468c0.446-0.082-1.035-1.504-1.783-1.851
				c-0.817-0.464-1.891-0.143-2.814-0.334c-0.931-0.082-1.641-0.885-2.608-0.954c-0.848-0.609-1.366,0.224-2.092,0.373
				C160.126,49.569,159.837,49.542,159.547,49.515z"/>
		</g>
		<g id="g3529_1_" transform="matrix(1.2580453,-7.9958428e-2,7.9958428e-2,1.2580453,-137.90861,157.34541)">
			<g id="g3523_1_">
				<path id="path3521_1_" fill="#070708" stroke="#010202" stroke-width="0.125" d="M153.556,65.66
					c1.372,0.117,3.673,0.224,1.246,0.224c1.401-0.034,2.838,0.028,4.215,0.397c2.65-0.248-2.404,0.495,0,0.422
					c-1.32,0.081-2.641,0.196-3.948-0.074c1.343,0.505-0.491,0.306-0.976,0.033c-1.071-0.526-3.216,0.382-2.755-0.27
					c-0.841,0.037-1.683,0.075-2.525,0.114c0.362-0.131,2.36-0.546,1.504-0.464c-0.997,0.097-1.744,0.162-0.324-0.083
					c1.217-0.305,2.44-0.488,3.686-0.249l-0.119-0.046L153.556,65.66z"/>
				<path id="path3519_1_" fill="#070708" stroke="#010202" stroke-width="0.125" d="M145.166,65.212
					c2.21-0.211,4.397,0.21,6.603,0.274c-1.063,0.144-2.126,0.274-3.202,0.273c1.221-0.303-1.816-0.219-2.65-0.177
					c0.259,0.016,1.325-0.238-0.177-0.241C145.855,65.13,144.391,65.532,145.166,65.212z"/>
			</g>
			<path id="path3527_1_" fill="#070708" stroke="#010202" stroke-width="0.125" d="M159.268,66.927
				c1.042,0.076,4.268,0.688,1.8-0.01c0.405-0.088,1.522-0.08,2.202-0.13c1.262,0.219,4.881,0.338,4.812,0.595
				c-0.434,0.064-2.444,0.152-1.657,0.201c0.843,0.078,1.686,0.019,2.531,0.012c-0.96,0.547-4.175-0.1-2.655,0.472
				c-2.433,0.445-4.854-0.556-7.303-0.361c-0.586-0.035-2.582-0.36-0.999-0.323c0.9-0.061,1.806-0.024,2.707-0.034
				C160.227,67.208,159.746,67.067,159.268,66.927z"/>
		</g>
		<path id="path2238_1_" fill="#070708" stroke="#010202" stroke-width="0.1576" d="M60.568,194.792
			c-0.279,1.198-0.834,3.01-2.375,2.27c-0.597,0.21,0.556,2.642,0.171,2.846c-0.702-1.415-1.847-2.382-3.212-3.131
			c-0.136,1.348,3.791,2.866,3.262,5.309c0.037,3.545,0.272,7.083,0.411,10.622c-1.873-2.028-2.54-4.86-3.094-7.498
			c0.838,0.051,3.377,0.937,1.553-0.342c-2.065-0.886-3.355-4.074-2.578-5.913c1.621,0.115,2.836-0.616,0.473-0.695
			c-3.002,1.691,0.25-1.793-0.594-1.791c-1.224,1.943-1.276-0.128-2.476-0.757c-2.155-0.488-0.696,0.482,0.516,1.043
			c0.999,1.921-0.488-0.801-1.474-0.484c-1.91,0-2.464,0.411-0.246,0.435c2.083,0.37,0.435,0.96-0.72,0.125
			c-1.983-0.31-4.019-0.319-6.02-0.219c2.097,0.57,4.354,0.041,6.399,0.659c0.985,0.931,3.005,1.026,3.308,2.468
			c-1.171-1.101-5.131-3.024-5.543-2.312c3.563,0.638,6.477,3.067,6.786,6.845c-1.6-0.928-3.414-1.51-5.292-1.282
			c-1.632-1.015-3.663-0.313-5.473-0.8c-1.167-0.042,1.916,0.679,2.645,0.54c1.396,0.081,2.597,0.994,4.057,0.8
			c2.123-0.234,1.398,0.962-0.224,0.898c-2.613,0.194-5.288-0.196-7.856,0.329c3.051-0.297,6.197,0.333,9.186-0.331
			c1.461-0.781,2.028-0.071,1.734,1.216c0.29-1.419,1.251-0.328,1.318,1.173c-1.867-0.702-3.849,0.107-5.766-0.364
			c-2.021,0.056-3.943,0.888-5.567,2.061c2.226-0.448,4.299-1.517,6.628-1.386c1.509-0.132-2.363,1.789,0.361,0.428
			c1.472-0.996,3.372-0.285,4.504,0.841c1.006,1.229,0.72,3.069,1.999,4.181c0.669,1.414,1.049,2.887,1.125,4.452
			c-1.248-0.319-1.659-1.943-2.58-2.713c-0.484-1.392-1.359-3.23-3.125-2.896c-1.462,0.092-3.079-0.063-4.451,0.313
			c-0.931,0.876,2.043-0.303,2.851-0.014c0.147,0.543,0.533,0.312,2.153,0.059c1.543,0.082,1.269,2.234,2.287,3.083
			c0.774,1.2-2.907-0.638-0.217,0.769c0.948,1.115,2.162,2.049,2.769,3.416c-1.328-1.746-3.622-2.438-5.3-3.826
			c-1.42-1.317-2.179-0.223-0.465,0.711c1.867,1.17,4.019,2.092,5.452,3.8c-1.41-0.98-1.813,0.612-3.127-0.197
			c-2.046-0.496-2.019-0.022-0.017,0.403c1.166,0.82,1.97-0.596,3.002,0.375c1.354,1.623-0.444-0.021-1.404-0.115
			c-1.808-0.407-5.209,1.801-4.651,2.48c1.94-3.775,7.328-1.475,6.481,1.867c-0.285,1.377-0.335,3.096-0.116,3.779
			c0.915-0.512,5.594,0.666,2.82-0.67c1.2-2.43,1.438-6.58,4.987-6.128c2.017,0.438,2.008-0.615,0.055-0.448
			c-2.528,0.021,0.144-0.406,0.354-1.869c0.455-1.072,0.246-3.048,1.916-2.611c0.711,0.797,3.65,0.653,1.438,0.197
			c-2.188-0.304-1.088-1.501,0.395-0.438c-0.141-0.551-1.907-1.301-2.672-0.286c-1.239-1.938-1.496,1.594-1.709,2.603
			c-0.658,1.479-4.478,4.584-2.537,1.543c1.164-2.188,1.623-4.639,2.447-6.961c1.156,0.327-0.311-1.039,1.711-1.672
			c0.523-0.816,3.488-0.173,2.246-1.306c-1.527,0.132-2.998,0.397-4.125,1.522c-1.664,1.801-1.279,4.566-2.615,6.6
			c-0.766,1.313-1.097,2.988-2.203,4.027c-1.032-2.547,0.835-5.061,1.548-7.523c0.775-1.916,0.949-4.244,2.297-5.83
			c1.107-0.708,1.594-1.481,3.082-1.452c1.236-0.167-2.803,0.439-1.115-1.269c-0.939,0.349-2.637,2.313-1.652,0.151
			c1.435-1.344-0.379-2.717-0.873-0.92c-0.641,3.006-1.739,5.9-2.893,8.739c-0.861,1.092-0.436,2.651-1.282,3.821
			c0.659-1.034,0.656-4.159,0.459-6.006c-0.394-4.553,0.63-9.033,0.732-13.57c1.467-0.389,0.876-2.119,2.601-2.406
			c0.354-2.215-1.873,1.197-1.627,0.033C62.813,194.773,61.961,194.454,60.568,194.792z M62.258,221.911
			c-1.766-0.113-1.033,1.963-1.229,3.012c-0.069,0.885-2.38,2.811-0.855,1.154c0.771-0.609,0.682-1.79,0.811-2.716
			C60.988,222.378,61.118,221.85,62.258,221.911z"/>
		<g id="g3334_1_" transform="matrix(1.2580453,-7.9958428e-2,7.9958428e-2,1.2580453,-137.90861,157.34541)">
			<path id="path3248_1_" fill="#070708" stroke="#010202" stroke-width="0.125" d="M158.16,38.649
				c0.516-0.616,1.858,0.781,1.372,0.597C159.086,38.914,158.656,38.784,158.16,38.649z"/>
			<g id="g3313_1_">
				<path id="path3254_1_" fill="#070708" stroke="#010202" stroke-width="0.125" d="M159.372,41.212
					c1.199-0.516,0.499,0.556,0.101,1.052c0.139,0.126,0.912-1.005,1.362-1.157c-0.062,1.151-0.01,0.48,0.749,0.14
					c0.501,0.402,1.192,1.808,0.604,0.458c-0.634-1.11-0.027-0.132,0.692,0.173c0.879,0.234,2.444,0.757,2.549,0.974
					c0.681-0.556,1.192,0.524,1.858,0.642c-1.074-0.668,0.825-0.284,1.32-0.573c0.492-0.145,2.008-1.204,0.82-0.616
					c-1.516,0.209-3.224,0.632-4.594-0.285c1.442-0.113-0.407-0.385-1.059-0.417c-0.905-0.324-1.272-0.852-0.136-1.111
					c1.721-0.581-1.925,0.073-1.453-0.216c1.174-0.622-0.411-0.317-1-0.322c0.201-0.517-0.963-0.357-1.535-0.014
					c-0.658,0.332-1.433-0.104-2.008,0.478c-1.283,0.296,0.831,0.727,0.888,0.876C157.288,40.895,159.399,40.383,159.372,41.212z"/>
				<g id="g3282_1_">
					<path id="path3219_1_" fill="#070708" stroke="#010202" stroke-width="0.125" d="M140.66,59.959
						c0.287-1.536,1.592-0.36,2.342-1.123c0.131,0.023-0.941,0.17-1.253-0.139c-0.997,0.286,0.903-0.914-0.438-0.404
						c0.68-0.579,1.524-0.294,2.124,0.247c1.398,0.27,0.277-0.747,1.287-0.392c0.641,0.548,1.293-0.03,2.016,0.029
						c0.884,0.148,1.878,0.136,2.629,0.679c-1.003,0.58-0.486,0.546-1.342,0.311c-1.096-0.591-1.502,0.658-2.568,0.226
						c-0.569-0.361-1.644-0.043-2.154,0.322c-0.43,0.305-0.647,2.322-0.97,1.182C141.985,60.354,141.177,60.295,140.66,59.959z"/>
					<path id="path3217_1_" fill="#070708" stroke="#010202" stroke-width="0.125" d="M143.714,62.364
						c0.56-0.536,0.793-1.626,1.723-1.527c0.771,0.181,1.419-0.269,2.064-0.134c1.511,0.209-1.026,0.822,0.27,1.077
						c0.238,0.155-1.269,0.185-1.494,0.862c1.235-0.319,0.566,0.875-0.209,0.432c0.076-0.43-0.572-0.705-1.194-0.41
						c0.214-0.901-0.149-0.073-0.96-0.302l-0.128,0.001L143.714,62.364z"/>
					<path id="path3221_1_" fill="#070708" stroke="#010202" stroke-width="0.125" d="M148.98,57.239
						c-0.629,1.207-0.943-0.606-1.437,0.128c-0.908,0.893-0.717,0.572-0.125-0.322c-0.347,0.135-1.916,1.262-1.398,0.562
						c0.236-0.809,1.415-0.719,1.52-1.562c-0.521-0.396-1.326,0.977-1.512,0.835c0.965-0.825,0.526-0.971-0.383-0.326
						c-0.807-0.112-1.513,0.234-2.285,0.278c0.271-0.499,0.247-0.428-0.717-0.488c0.706-0.384,1.47-0.15,2.16-0.436
						c0.514-0.563,1.536,0.056,1.875-0.829c0.38-0.779,1.278-0.024,1.908,0.021c0.692,0.18,1.607-0.01,1.817,0.904
						c0.09,1.232-0.139,0.671-0.616-0.028c-0.547-0.518-1.366,0.194-1.027,0.826C148.835,56.947,148.908,57.092,148.98,57.239z"/>
					<path id="path3223_1_" fill="#070708" stroke="#010202" stroke-width="0.125" d="M155.546,64.223
						c0.742-1.019,2.028-1.257,2.949-2.035c-0.708,0.101-2.176-0.013-0.739-0.222c1.107-0.095,2.193-0.068,3.24,0.344
						c0.766,0.188,1.997,0.705,0.67-0.036c-1.134-0.448-2.343-0.588-3.557-0.507c0.605-0.458,0.711-1.59,1.664-1.111
						c1.198,0.38,2.181,1.208,3.414,1.464c0.507,0.332,1.797-0.157,1.82,0.31c-0.981,0.238-1.678,0.415-0.274,0.129
						c0.482,0.067,1.768-1.016,1.265-1.044c-0.954,0.016-1.603-0.176-0.419-0.728c0.337-0.225-1.717,1.091-0.911,0.015
						c0.041-0.573,1.853-1.281,1.009-1.094c-0.59,0.226-2.113,0.51-0.806-0.099c0.748-0.244,1.928-0.273,0.708-0.959
						c-0.535-0.736-1.253-0.75-1.958-0.232c-0.052,0.531,1.799,1.179,0.571,1.104c-0.62-0.164-1.831,0.47-1.143-0.481
						c0.312-0.191-0.975,0.679-1.451,0.301c-1.074,0.775-0.627-0.301,0.077-0.726c0.724-0.787,1.909-0.402,2.734-1.033
						c1.222-0.301,0.822-0.306-0.231-0.178c-0.89,0.233-1.692,0.724-2.63,0.785c1.066-0.743,0.065-0.929-0.693-0.533
						c-0.479-0.383,1.74-0.819,0.587-0.976c1.53-0.209-0.651-0.757,0.686-0.809c1.24,0.147,2.465,0.932,3.773,0.633
						c-1.001,0.854-0.56,0.724,0.36,0.221c0.85-0.459,2.078-0.592,2.87,0.06c-1.08-0.319-0.191,0.591-0.928,0.231
						c1.186,0.973-1.579-0.738-0.363,0.166c0.851,0.576-0.525,0.317-0.333,0.649c-0.881,0.213,0.925,0.615,1.288,0.699
						c1.452-0.373-1.18,0.024-0.476-0.791c0.367-0.627,1.157,0.674,1.863,0.274c1.134,0.331,0.467,0.589,0.045,0.519
						c0.412,0.237,2.089,1.151,0.78,0.679c-1.393-0.43,0.467,0.251,0.537,0.888c-0.048,0.162-1.682-1.165-0.492-0.01
						c1.085,1.072-0.184,0.067-0.722-0.294c0.117,0.239,1.523,1.855,0.517,0.824c-0.464-0.681-1.206-0.837-1.928-1.098
						c0.695,0.443,1.426,0.837,2.003,1.438c-1.472-0.541,0.204,0.823-1.048-0.042c-0.73-0.282-1.192-1.201-2.042-1.047
						c0.306,0.245,2.114,1.334,1.045,0.802c-0.696-0.649-1.808-0.274-0.57,0.272c1.39,0.798-1.505-0.619-0.325,0.271
						c0.337,0.385,1.723,1.473,0.438,1.218c-0.499-0.133-0.926-1.796-1.01-0.456c-1.337,0.175,0.352,0.74,0.8,1.042
						c1.393,0.502-0.072,0.547-0.314,0.793c0.71,0.266-0.628,1.129-1.12,0.938c-1.109-0.889,0.19,0.621,0.86,0.243
						c0.604-0.52,1.007,0.909,1.885,0.614c1.392,0.249,0.052,0.336-0.632,0.423c-1.358,0.085-2.72,0.268-4.079,0.126
						c0.482-0.873,0.811-1.547-0.173-0.519c-0.416,0.553-1.997,0.319-1.125-0.499c2.084,0.902-0.795-1.416-0.668,0.598
						c-1.081-0.158-0.887-0.512-0.445-0.749c-0.672-0.251-1.786,0.566-0.748-0.374c1.457-0.282,0.173-0.619-0.137-0.245
						c0.912-0.818-0.023-1-0.763-0.606c-0.837-0.163-1.442,1.212-1.575-0.084c-0.975,0.001-0.592-0.507,0.331-0.762
						c0.226-0.136-1.378,0.178-1.791,0.504c-0.645,0.59-1.549,0.561-2.352,0.773l0.126,0.024L155.546,64.223z"/>
					<path id="path3225_1_" fill="#070708" stroke="#010202" stroke-width="0.125" d="M155.09,48.461
						c0.53,0.465,0.596,1.535,1.494,0.945c0.659-0.302,1.469-0.001,2.169-0.122c0.86,0.217,0.633,1.396,1.452,1.71
						c0.519,0.522,1.433-0.204,2.02,0.48c0.626,0.698,1.768,0.331,0.676-0.33c-0.347-0.482-2.175-0.587-1.281-1.138
						c0.552-0.032,2.064,0.526,1.147-0.342c-0.632-0.553-1.444,0.254-2.193-0.081c-1.46-0.068,0.365-0.167,0.913-0.23
						c0.791-0.204,1.598,0.043,2.17,0.619c0.604-0.422,2.027-0.059,0.843,0.491c0.922,0.461,1.889,0.105,2.843-0.035
						c0.776,0.685,1.724,1.136,2.634,1.614c-1.029-0.96-0.308-0.594,0.527-0.14c-0.664-0.447-1.321-0.901-1.722-1.615
						c1.166-0.776,0.542-0.584-0.404-0.217c-0.733,0.048-1.857-0.612-0.715-1.154c-0.254-0.479-1.049-1.052-1.655-1.343
						c-0.352-0.273-2.146,0.274-1.466-0.303c1.004-0.218,1.308-0.381,0.099-0.458c-0.763,0.35-1.535,0.161-2.198-0.195
						c-0.681,0.113-1.029,1.069-1.943,0.912c-1.451,0.009,0.47-0.734-0.092-1.186c-1.015-0.054-1.468-0.091-0.728-0.496
						c-0.173-0.192,1.386,0.002,1.904-0.027c1.141,0.709,0.655-0.151-0.166-0.362c-0.847-0.066-1.517,0.034-2.179-0.403
						c-1.382-0.003,0.133-0.767-1.144-0.644c-0.891-0.148-1.077,0.828-1.877,1.032c-1.359-0.1-2.177,1.092-3.153,1.834
						c-0.862,0.312-1.886-0.329-2.782,0.134c-0.876,0.224-1.712,0.571-2.562,0.875c0.487,0.021,2.19-0.309,1.879-0.057
						c-0.535,0.32-2.167,0.959-0.692,0.691c1.582-0.187-0.169,0.107-0.342,0.814c0.307-0.197,1.277-0.563,1.963-0.324
						c-0.581,1.356,0.405,0.365,1.018-0.07c0.762-0.222,1.976-0.625,0.662,0.117c-0.416,0.761,1.039,0.444,1.269-0.293
						c-0.758,0.713-0.662,1.397,0.394,1.022c0.134-1.053,1.599-0.475,1.375-0.578C154.924,49.227,154.93,48.916,155.09,48.461z"/>
					<path id="path3227_1_" fill="#070708" stroke="#010202" stroke-width="0.125" d="M137.712,55.166
						c1.211-0.58,1.719,0.636,2.896,0.523c0.726,0.066,1.323-0.573,1.949-0.874c-1.171,0.384-1.203-0.087-0.133-0.422
						c0.76-0.288,1.53,0.073,2.247,0.081c1.046-0.539,0.494-0.914-0.394-0.679c0.423-0.603,1.261-0.854,1.907-0.715
						c0.744-0.5,1.061-0.097,1.848,0.189c1.079-0.25-0.816,0.966,0.79,0.875c0.363-0.714,1.276-0.645,1.67-1.324
						c0.48-0.695,1.55-0.505,1.927,0.209c1.068,0.537-0.695,0.599-1.178,0.587c-0.805-0.227-1.937,0.356-0.552,0.49
						c1.107,0.036,2.185-0.443,3.286-0.187c0.996-0.066,3.616-0.7,2.874,0.885c-1.48-0.817-0.95,0.065,0.101,0.152
						c0.274,0.582-1.965-0.412-0.67,0.555c0.848,1.072-0.53,0.033-0.864-0.407c-0.513-0.902-1.579-0.431-2.291-0.044
						c-1.19-0.048-2.504,0.146-3.476-0.704c-0.042,0.871-0.753-0.479-0.106,0.704c-1.129,0.438-0.326-1.049-1.561-0.662
						c-1.111-0.617-0.963-0.589-0.601,0.23c-0.859,0.059-1.011,0.64-1.842,0.766c-0.662,0.491-1.488,0.206-2.245,0.228
						c1.122-0.559,0.357-1.059-0.337-0.335c-0.799,0.085-1.428,0.692-2.155,1.002c0.48-0.386,1.937-1.372,0.609-0.644
						c-0.471,0.416-1.852,0.539-1.741,1.11c0.204,0.587,1.566,1.047,0.324,0.869c-0.511-1.302-0.895,0.124-0.068,0.495
						c-0.233,0.195-1.211,0.039-1.723,0.418c-0.958,0.032,0.538-0.97-0.903-0.314c-1,0.314,0.312-0.757,0.726-0.845
						c-0.512-0.238-2.016,0.84-1.614,0.071c0.731-0.394,1.541-0.523,2.317-0.773c-0.733-0.062-1.498-0.188-2.059,0.316
						c-0.696,0.063,0.912-0.766,0.485-0.752c0.728-0.398,1.509,0.4,2.172-0.092c-1.025-0.375-0.401-0.421-1.37-0.561
						c-0.889,0.125-1.21,0.066-0.262-0.411L137.712,55.166z"/>
					<path id="path3229_1_" fill="#070708" stroke="#010202" stroke-width="0.125" d="M136.623,51.866
						c0.368-0.737,1.362-1.838-0.21-1.192c0.775-0.267,1.468-0.641,1.896-1.37c0.786-1.139,0.215,1.075,0.794,0.005
						c0.136-0.844,1.263,0.108,1.819-0.12c1.079-0.385,2.268-1.044,3.391-0.413c-0.965,0.102-1.81,0.549-2.695,0.871
						c-0.463,0.676-1.073,0.561-1.234,0.242c-0.322,1.537-1.123-0.623-1.387,0.204c-0.745,0.852-1.413,1.188-1.397,0.811
						C137.274,51.225,136.949,51.547,136.623,51.866z"/>
					<path id="path3231_1_" fill="#070708" stroke="#010202" stroke-width="0.125" d="M140.556,45.232
						c0.862,0.329,1.359-0.672,2.108-0.602c1.296,0.231,2.369,1.023,3.66,1.296c-0.857,0.148-2.152,0.573-2.925-0.168
						c-0.059,0.874-1.631,0.155-1.301,0.094c1.083-0.546-0.565-0.021-0.978,0.104c-0.087-0.147,0.813-0.678-0.467-0.382
						C139.221,45.581,140.575,45.882,140.556,45.232z"/>
					<path id="path3242_1_" fill="#070708" stroke="#010202" stroke-width="0.125" d="M144.732,41.405
						c-0.943-0.086-1.681,0.442-2.422,0.948c0.868-0.795,0.244-1.02-0.538-0.469c-0.647,0.395-1.885-0.48-0.551-0.373
						c0.853-0.459,2.012,0.021,2.609-0.924c-0.155-0.285-1.475,0.247-1.837-0.445c-0.62,0.011-2.31,0.083-2.058,0.184
						c-0.423-0.425,0.435-0.925,1.2-0.566c1.329-0.149-1.103-0.357-0.255-0.685c1.212,0.229,0.792-0.072-0.087-0.521
						c0.081-0.088,1.383,0.335,1.712,0.84c0.612,0.911,1.077-0.504,1.817-0.537c1.299-0.156-0.126-0.937-0.76-0.604
						c-1.479,0.317,0.008-0.456-1.111-0.731c0.163-0.66,1.255-0.117,1.82-0.056c0.586-0.535,1.242,0.593,1.934,0.639
						c-0.419-0.485-1.857-1.122-0.425-0.885c1.42,0.063-0.755-0.568-0.328-0.911c0.807,0.375,1.797,0.21,0.653-0.494
						c-0.029-0.259,1.083,0.693,1.495,0.914c0.804,0.268,1.22-0.338,1.905-0.59c-1.293-0.251,0.19-0.309,0.768-0.249
						c1.113-0.06,2.017,0.622,2.989,1.057c-0.915-0.51-1.715-1.397-2.85-1.186c-2.061-0.658,1.487-0.038,0.076-0.885
						c0.941,0.31,1.249-0.694,2.093-0.577c1.447,0.003-0.528,0.663,0.154,1.314c0.651,1.035,0.537,0.895,0.974,0.077
						c0.135-0.092-0.822-0.657,0.29-0.428c-0.434-0.569-0.274-1.156,0.302-1.123c0.354-0.782,0.451,0.539,0.868,0.684
						c-0.978,0.988,0.492,0.022,0.736-0.249c0.855-0.251,1.322,0.603,0.986,0.953c-1.416,0.167-0.555,0.181,0.371,0.19
						c0.446,0.67-0.344,1.242,0.539,0.214c0.509-0.118,1.034-0.119,0.465-0.55c0.285-0.581,2.215-0.389,1.922-0.226
						c-0.921-0.27-1.707,0.626-0.368,0.248c1.314-0.6,0.094-0.011-0.184,0.651c-0.011,1.176,1.072-0.478,1.232-0.252
						c-0.184,1.117,0.624-1.165,1.029,0.056c-0.934-0.127-0.72,1.098-0.232,1.209c1.002,0.117-0.749,0.189,0.099,0.426
						c-0.747,0.121-1.342,0.234-2.043-0.196c-0.538-0.111-1.748,1.396-1.354,0.667c0.683-0.946-0.728-0.98-1.362-0.977
						c-0.188-1.092-0.619,0.211-1.048-0.977c0.111,0.563-0.665,1.531-1.22,0.726c0.691-0.319-0.932-0.891-0.977-0.015
						c0.71,0.994-0.111,0.383-0.853,0.911c-1.349-0.243-0.614-0.048-0.194,0.232c-0.937,0.222-1.914-0.498-2.746,0.142
						c-1.273,0.594,0.064,0.526,0.614,0.684c0.516,0.463,1.542-0.627,2.016,0.014c0.765,0.684,1.559-0.325,2.284-0.63
						c0.861-0.161,1.695,0.285,2.525,0.488c-0.327,1.022,0.513,1.24,1.317,1.484c0.985,0.227,2.031-0.279,2.997-0.14
						c0.789,0.124,1.201,0.868,1.723,1.394c-1.527-0.818-3.263-0.273-4.903-0.492c-0.442,0.12-2.255-0.285-1.048-0.509
						c-0.803-0.066,0.556-0.416-0.812-0.565c-1.064,0.374-2.185-0.735-3.136,0.049c-0.342,0.818,1.149,0.372,1.525,0.739
						c0.355,0.686-0.797,1.359-1.351,0.711c-0.572-0.084-1.442,0.578-1.9-0.268c-1.262-1.33,0.738,0.822-0.411,0.207
						c-0.398,0.361-1.788-0.131-1.371-0.267c0.503-0.197,0.042-0.361,0.818,0.137c0.757-0.213-0.615-1.455-1.149-1.019
						c-0.626,0.707-1.412-0.555-1.988,0.226c-0.032,0.588-1.976,1.144-0.947,0.586c1.03-0.614,0.746-0.965-0.193-0.221
						C146.09,41.238,145.32,40.96,144.732,41.405z"/>
					<path id="path3244_1_" fill="#070708" stroke="#010202" stroke-width="0.125" d="M152.316,46.004
						c0.507-0.622,1.385-0.537,1.926-0.324c0.654-0.55,1.56-0.123,2.005,0.5c-0.925-0.037-1.829,0.3-2.723,0.093
						c-0.639,0.207-1.948,0.322-0.674-0.216C153.213,45.755,152.417,46.013,152.316,46.004z"/>
					<path id="path3246_1_" fill="#070708" stroke="#010202" stroke-width="0.125" d="M147.787,42.406
						c0.144-0.792,2.746-0.157,1.462-0.036c-0.638-0.232-1.745,0.501-1.263,0.086C147.625,42.578,147.127,42.905,147.787,42.406z"/>
					<path id="path3250_1_" fill="#070708" stroke="#010202" stroke-width="0.125" d="M155.511,41.932
						c0.657,0.484,1.318-0.413,2.019-0.544c1.404-0.151-0.65,1.038,0.086,0.772c0.62,0.142,0.763-0.207,1.622-0.172
						c0.991-0.324,1.71,0.848,2.679,0.892c-0.358,0.51-2.087-0.558-1.337-0.069c0.597,0.497-1.206-0.061,0.154,0.439
						c0.969,0.066,0.532,0.982-0.227,0.543c0.063,0.42,0.856,0.816-0.361,0.457c-1.25,0.119,1.049-1.282-0.192-0.62
						c-0.197,0.097-1.501-0.789-1.106-0.117c-0.986,0.203-0.871,0.714-1.722,0.035c-0.714-0.152-0.792,0.424-1.726,0.42
						c-0.8,0.112,1.79,0.5,1.034,0.553c-0.45-0.065-1.94-0.428-1.608,0.325c0.901,0.272-0.322,1.151-0.868,1.091
						c0.089-0.061,0.592-1.174-0.693-0.652c0.449-0.19,1.652-0.711,0.985-0.931c-0.116-0.549-0.945,0.181-1.309,0.547
						c-1.207,1.062,0.847-0.984-0.432-0.738c-1.323,0.559-0.428-0.586,0.267-0.809c0.692-0.347,1.395,0.291,1.845-0.097
						c1.143-0.173,1.128-0.134,0.076-0.267c-0.867-0.3,1.194-0.29-0.31-0.477c-0.57-0.24-2.017-0.268-0.674-0.388
						C154.327,42.124,154.959,42.245,155.511,41.932z"/>
					<path id="path3252_1_" fill="#070708" stroke="#010202" stroke-width="0.125" d="M160.776,42.3
						c0.341,0.163,1.782-0.116,0.889,0.445c0.522,0.086-0.279,0.631,0.875,0.772c0.277,0.154-1.376,0.418-1.029,0.702
						c0.268,0.375,1.377,0.075,1.499,0.934c0.229-0.018,0.785-0.263,0.728-0.064c1.229,0.084-0.958,0.611,0.432,0.478
						c0.333-0.208,0.272,0.895,0.697,0.152c-0.142-0.696,0.504-0.332,1.339-0.257c-0.286-0.139-1.525-0.916-0.187-0.432
						c0.919,0.736,0.972,0.053-0.07-0.173c-0.899-0.463,1.067,0.254,1.437-0.009c1.117-0.127-0.749-0.348-0.884-0.801
						c-0.72-0.03-1.144,0.242-1.89,0.284c-0.588-0.101-1.065,0.783-1.7,0.076c-1.221-0.383-0.259-0.352,0.456-0.653
						c0.839-0.23,1.73,0.378,2.553,0.057c0.544,0.089,1.637-0.15,1.789,0.12c-1.25-0.785,1.355,0.102,0.439-0.379
						c-0.452-0.533-1.326-0.137-1.958-0.232c-0.714,0.145-1.376-0.601-2.06,0c-1.707,0.012,0.823-0.268-0.092-0.426
						c-0.666-0.069-1.767-0.391-0.479-0.273c0.676-0.211-1.02-0.467-1.307-0.741C161.67,41.563,161.235,41.989,160.776,42.3z"/>
					<path id="path3256_1_" fill="#070708" stroke="#010202" stroke-width="0.125" d="M144.198,42.401
						c0.623-0.397,1.223-0.836,1.912-1.117C145.646,41.916,144.859,42.054,144.198,42.401z"/>
					<path id="path3260_1_" fill="#070708" stroke="#010202" stroke-width="0.125" d="M152.563,56.5
						c0.257-0.878,1.2-0.169,1.441,0.373c0.503,1.47-0.28-0.89,0.106-0.706c0.301,1.083,0.349-0.982-0.182-0.907
						c-0.577-0.059-1.355,0.227-1.712,0.695C152.12,56.277,152.342,56.34,152.563,56.5z"/>
					<path id="path3258_1_" fill="#070708" stroke="#010202" stroke-width="0.125" d="M149.237,56.65
						c0.68-0.641,1.409,0.482,1.714-0.596c0.863,0.83,0.416-0.341,1.015-0.092c1.093-0.274-0.125-0.152-0.827-0.337
						c-0.643,0.201-0.872-0.015-1.757,0.054c-0.187,0.167-0.919,1.679-0.155,0.977L149.237,56.65z"/>
					<path id="path3262_1_" fill="#070708" stroke="#010202" stroke-width="0.125" d="M161.027,53.098
						c1.414-0.795-0.766-0.896,0.274-0.992c-0.853-0.015-0.075-0.913-1.383-0.446c-0.499-0.142-2.248,0.834-1.617,0.355
						c0.987-0.87,2.381-0.963,3.644-1.001c0.681,0.419,1.311,0.925,2.036,1.266c-0.836-0.643,1.139,0.356-0.299-0.547
						c-0.139-0.669,1.336,0.037,1.541,0.522c0.709,0.641,1.516,0.061,1.212-0.796c0.13-0.895,1.491-0.258,1.319,0.479
						c0.551,1.265,2.058,0.985,3.144,1.318c0.805,0.376-1.694-0.046-0.812,0.512c-0.529-0.197-2.178-0.367-1.075,0.373
						c0.657,0.285,1.231,1.793,0.211,0.758c-0.383-0.078,0.137,0.529-0.64-0.343c-0.782-0.061-0.112,0.318-1.075-0.068
						c0.542,0.929,0.857,0.762,0.098,0.894c-0.12,0.464-1.455-1.309-1.024-0.346c0.747,1.199-0.043,0.535-0.647-0.027
						c-0.332-0.401-1.562-1.169-0.692-0.37c1.167,0.691-0.991,0.564,0.279,0.844c0.367,0.632,1.538,0.959,0.3,1.339
						c0.74-0.915-0.998-0.254-1.486-0.561c-1.271-0.137-0.931-0.249,0.144-0.332c-0.953-0.011-1.891-0.275-2.78-0.498
						c-0.696-0.012-1.562,1.251-0.803,0.082c1.044-1.186-1.212,0.801-0.467-0.086c1.25-1.225-0.966,0.468-0.228-0.57
						c-0.522-0.806,1.163,0.071,1.427-0.566c0.322-0.944,1.509,0.388,0.257-0.673c-0.513,0.453-1.164,0.917-1.997,0.648
						c1.426,0.043,0.655-0.437-0.302-0.128c0.651,0.063,0.194-0.909,0.626-0.757C160.497,53.332,160.757,53.198,161.027,53.098z"/>
				</g>
			</g>
		</g>
	</g>
</g>
</svg>
