<?xml version="1.0" encoding="utf-8"?>
<!-- Generator: Adobe Illustrator 15.1.0, SVG Export Plug-In . SVG Version: 6.00 Build 0)  -->
<!DOCTYPE svg PUBLIC "-//W3C//DTD SVG 1.1//EN" "http://www.w3.org/Graphics/SVG/1.1/DTD/svg11.dtd">
<svg version="1.1" id="Ebene_1" xmlns="http://www.w3.org/2000/svg" xmlns:xlink="http://www.w3.org/1999/xlink" x="0px" y="0px"
	 width="48px" height="48px" viewBox="0 0 1000 1000" enable-background="new 0 0 1000 1000" xml:space="preserve">
<path d="M622.951,692.568c-24.43-3.887-24.986-71.063-24.986-71.063s71.785-71.063,87.431-166.622
	c42.086,0,68.082-101.592,25.989-137.336C713.142,279.92,765.48,22.179,500.5,22.179c-264.982,0-212.642,257.742-210.889,295.369
	c-42.09,35.744-16.097,137.336,25.991,137.336c15.644,95.559,87.428,166.622,87.428,166.622s-0.557,67.176-24.985,71.063
	C299.353,705.089,5.5,834.698,5.5,976.821h495h495C995.5,834.698,701.646,705.089,622.951,692.568z"/>
</svg>
