<svg xmlns="http://www.w3.org/2000/svg" xmlns:xlink="http://www.w3.org/1999/xlink" width="48" height="48"><defs><linearGradient id="weather-clear-k"><stop offset="0" stop-color="#fff" stop-opacity="0"/><stop offset=".75" stop-color="#fff" stop-opacity="0"/><stop offset="1" stop-color="#fff"/></linearGradient><linearGradient id="weather-clear-j"><stop offset="0" stop-color="#fff7c2" stop-opacity=".638"/><stop offset=".594" stop-color="#fcaf3e" stop-opacity=".183"/><stop offset=".839" stop-color="#fcaf3e" stop-opacity=".505"/><stop offset="1" stop-color="#fcaf3e"/></linearGradient><linearGradient id="weather-clear-i"><stop offset="0" stop-color="#fff9c6"/><stop offset=".542" stop-color="#fff28c"/><stop offset="1" stop-color="#ffea85"/></linearGradient><linearGradient xlink:href="#weather-clear-a" gradientUnits="userSpaceOnUse" x1="-27.007" y1="-37.55" x2="-34.7" y2="-4.449"/><linearGradient xlink:href="#weather-clear-b" gradientUnits="userSpaceOnUse" x1="-25.137" y1="-1.249" x2="-35.653" y2="-24.884"/><linearGradient xlink:href="#weather-clear-c" gradientUnits="userSpaceOnUse" x1="11.149" y1="-43.997" x2="4.963" y2="-8.308"/><linearGradient id="weather-clear-h"><stop offset="0"/><stop offset="1" stop-opacity="0"/></linearGradient><linearGradient id="weather-clear-c"><stop offset="0" stop-color="#fff"/><stop offset="1" stop-color="#fff" stop-opacity="0"/></linearGradient><linearGradient id="weather-clear-a"><stop offset="0" stop-color="#fff"/><stop offset="1" stop-color="#fff" stop-opacity="0"/></linearGradient><linearGradient id="weather-clear-g"><stop offset="0" stop-color="#edd400"/><stop offset="1" stop-color="#edd400" stop-opacity="0"/></linearGradient><linearGradient id="weather-clear-b"><stop offset="0" stop-color="#fcaf3e" stop-opacity="0"/><stop offset=".666" stop-color="#fcaf3e" stop-opacity=".174"/><stop offset=".865" stop-color="#fcaf3e" stop-opacity=".56"/><stop offset="1" stop-color="#fcaf3e"/></linearGradient><linearGradient id="weather-clear-f"><stop offset="0" stop-color="#fce94f"/><stop offset="1" stop-color="#fce94f" stop-opacity="0"/></linearGradient><linearGradient id="weather-clear-e"><stop offset="0" stop-color="#eeeeec"/><stop offset="1" stop-color="#eeeeec" stop-opacity="0"/></linearGradient><linearGradient id="weather-clear-d"><stop offset="0" stop-color="#fff"/><stop offset="1" stop-color="#fff" stop-opacity="0"/></linearGradient><linearGradient xlink:href="#weather-clear-d" gradientUnits="userSpaceOnUse" x1="14.261" y1="9.286" x2="16.852" y2="16.269" gradientTransform="translate(-1.609 3.097)"/><linearGradient xlink:href="#weather-clear-d" gradientUnits="userSpaceOnUse" gradientTransform="translate(3.555 .969)" x1="14.261" y1="9.286" x2="16.852" y2="16.269"/><linearGradient xlink:href="#weather-clear-d" gradientUnits="userSpaceOnUse" gradientTransform="translate(9.264 3.495)" x1="14.261" y1="9.286" x2="16.852" y2="16.269"/><linearGradient xlink:href="#weather-clear-d" gradientUnits="userSpaceOnUse" gradientTransform="translate(8.497 -2.331)" x1="14.261" y1="9.286" x2="16.852" y2="16.269"/><linearGradient xlink:href="#weather-clear-d" gradientUnits="userSpaceOnUse" gradientTransform="translate(14.463 2.014)" x1="14.261" y1="9.286" x2="16.852" y2="16.269"/><linearGradient xlink:href="#weather-clear-d" gradientUnits="userSpaceOnUse" gradientTransform="matrix(.751 0 0 1 -.197 7.613)" x1="14.261" y1="9.286" x2="16.852" y2="16.269"/><linearGradient xlink:href="#weather-clear-d" gradientUnits="userSpaceOnUse" gradientTransform="matrix(1.284 0 0 1 14.62 4.452)" x1="14.261" y1="9.286" x2="16.852" y2="16.269"/><linearGradient xlink:href="#weather-clear-d" gradientUnits="userSpaceOnUse" gradientTransform="matrix(.834 0 0 1 14.876 8.57)" x1="14.261" y1="9.286" x2="16.852" y2="16.269"/><linearGradient xlink:href="#weather-clear-d" gradientUnits="userSpaceOnUse" gradientTransform="matrix(1.462 0 0 1.262 -5.687 1.81)" x1="14.261" y1="9.286" x2="16.852" y2="16.269"/><linearGradient xlink:href="#weather-clear-d" gradientUnits="userSpaceOnUse" gradientTransform="matrix(1.107 0 0 1 6.384 6.5)" x1="14.261" y1="9.286" x2="16.852" y2="16.269"/><linearGradient xlink:href="#weather-clear-d" gradientUnits="userSpaceOnUse" gradientTransform="translate(1.708 -5.784)" x1="14.261" y1="9.286" x2="16.852" y2="16.269"/><linearGradient xlink:href="#weather-clear-d" gradientUnits="userSpaceOnUse" gradientTransform="matrix(-.976 0 0 1 53.948 8.564)" x1="14.261" y1="9.286" x2="16.852" y2="16.269"/><linearGradient xlink:href="#weather-clear-d" gradientUnits="userSpaceOnUse" gradientTransform="translate(16.14 24.664)" x1="14.261" y1="9.286" x2="16.852" y2="16.269"/><linearGradient xlink:href="#weather-clear-d" gradientUnits="userSpaceOnUse" gradientTransform="translate(-.932 25.872)" x1="14.261" y1="9.286" x2="16.852" y2="16.269"/><linearGradient xlink:href="#weather-clear-d" gradientUnits="userSpaceOnUse" gradientTransform="translate(5.357 23.869)" x1="14.261" y1="9.286" x2="16.852" y2="16.269"/><linearGradient xlink:href="#weather-clear-d" gradientUnits="userSpaceOnUse" gradientTransform="translate(11.19 26.52)" x1="14.261" y1="9.286" x2="16.852" y2="16.269"/><linearGradient xlink:href="#weather-clear-d" gradientUnits="userSpaceOnUse" gradientTransform="translate(10.306 19.273)" x1="14.261" y1="9.286" x2="16.852" y2="16.269"/><linearGradient xlink:href="#weather-clear-d" gradientUnits="userSpaceOnUse" gradientTransform="matrix(.751 0 0 1 .229 30.763)" x1="14.261" y1="9.286" x2="16.852" y2="16.269"/><linearGradient xlink:href="#weather-clear-d" gradientUnits="userSpaceOnUse" gradientTransform="matrix(1.284 0 0 1 16.671 27.227)" x1="14.261" y1="9.286" x2="16.852" y2="16.269"/><linearGradient xlink:href="#weather-clear-d" gradientUnits="userSpaceOnUse" gradientTransform="matrix(.834 0 0 1 17.053 31.47)" x1="14.261" y1="9.286" x2="16.852" y2="16.269"/><linearGradient xlink:href="#weather-clear-d" gradientUnits="userSpaceOnUse" gradientTransform="matrix(1.462 0 0 1.262 -4.011 24.96)" x1="14.261" y1="9.286" x2="16.852" y2="16.269"/><linearGradient xlink:href="#weather-clear-d" gradientUnits="userSpaceOnUse" gradientTransform="matrix(1.107 0 0 1 8.185 29.526)" x1="14.261" y1="9.286" x2="16.852" y2="16.269"/><linearGradient xlink:href="#weather-clear-d" gradientUnits="userSpaceOnUse" gradientTransform="translate(4.208 21.305)" x1="14.261" y1="9.286" x2="16.852" y2="16.269"/><linearGradient xlink:href="#weather-clear-d" gradientUnits="userSpaceOnUse" gradientTransform="matrix(-.976 0 0 1 56.124 32.089)" x1="14.261" y1="9.286" x2="16.852" y2="16.269"/><linearGradient xlink:href="#weather-clear-e" x1="6.665" y1="13.803" x2="41.404" y2="13.803" gradientUnits="userSpaceOnUse" gradientTransform="matrix(.992 0 0 .991 1.129 5.404)"/><linearGradient xlink:href="#weather-clear-d" gradientUnits="userSpaceOnUse" gradientTransform="translate(14.463 2.014)" x1="14.261" y1="9.286" x2="16.852" y2="16.269"/><linearGradient xlink:href="#weather-clear-d" gradientUnits="userSpaceOnUse" gradientTransform="translate(8.497 -2.331)" x1="14.261" y1="9.286" x2="16.852" y2="16.269"/><linearGradient xlink:href="#weather-clear-d" gradientUnits="userSpaceOnUse" gradientTransform="translate(-1.609 3.097)" x1="14.261" y1="9.286" x2="16.852" y2="16.269"/><linearGradient xlink:href="#weather-clear-d" gradientUnits="userSpaceOnUse" gradientTransform="translate(3.555 .969)" x1="14.261" y1="9.286" x2="16.852" y2="16.269"/><linearGradient xlink:href="#weather-clear-d" gradientUnits="userSpaceOnUse" gradientTransform="translate(9.264 3.495)" x1="14.261" y1="9.286" x2="16.852" y2="16.269"/><linearGradient xlink:href="#weather-clear-d" gradientUnits="userSpaceOnUse" gradientTransform="matrix(.751 0 0 1 -.197 7.613)" x1="14.261" y1="9.286" x2="16.852" y2="16.269"/><linearGradient xlink:href="#weather-clear-d" gradientUnits="userSpaceOnUse" gradientTransform="matrix(1.284 0 0 1 14.62 4.452)" x1="14.261" y1="9.286" x2="16.852" y2="16.269"/><linearGradient xlink:href="#weather-clear-d" gradientUnits="userSpaceOnUse" gradientTransform="matrix(.834 0 0 1 14.876 8.57)" x1="14.261" y1="9.286" x2="16.852" y2="16.269"/><linearGradient xlink:href="#weather-clear-d" gradientUnits="userSpaceOnUse" gradientTransform="matrix(1.462 0 0 1.262 -5.687 1.81)" x1="14.261" y1="9.286" x2="16.852" y2="16.269"/><linearGradient xlink:href="#weather-clear-d" gradientUnits="userSpaceOnUse" gradientTransform="matrix(1.107 0 0 1 6.384 6.5)" x1="14.261" y1="9.286" x2="16.852" y2="16.269"/><linearGradient xlink:href="#weather-clear-d" gradientUnits="userSpaceOnUse" gradientTransform="matrix(-.976 0 0 1 53.948 8.564)" x1="14.261" y1="9.286" x2="16.852" y2="16.269"/><linearGradient xlink:href="#weather-clear-e" gradientUnits="userSpaceOnUse" gradientTransform="matrix(.992 0 0 .991 1.129 5.404)" x1="6.665" y1="13.803" x2="41.404" y2="13.803"/><linearGradient xlink:href="#weather-clear-e" gradientUnits="userSpaceOnUse" gradientTransform="matrix(.992 0 0 .991 4.379 10.654)" x1="6.665" y1="13.803" x2="41.404" y2="13.803"/><linearGradient xlink:href="#weather-clear-d" gradientUnits="userSpaceOnUse" gradientTransform="matrix(1.107 0 0 1 9.634 11.75)" x1="14.261" y1="9.286" x2="16.852" y2="16.269"/><linearGradient xlink:href="#weather-clear-d" gradientUnits="userSpaceOnUse" gradientTransform="matrix(1.462 0 0 1.262 -2.437 7.06)" x1="14.261" y1="9.286" x2="16.852" y2="16.269"/><linearGradient xlink:href="#weather-clear-d" gradientUnits="userSpaceOnUse" gradientTransform="matrix(.834 0 0 1 18.126 13.82)" x1="14.261" y1="9.286" x2="16.852" y2="16.269"/><linearGradient xlink:href="#weather-clear-d" gradientUnits="userSpaceOnUse" gradientTransform="matrix(.751 0 0 1 3.053 12.863)" x1="14.261" y1="9.286" x2="16.852" y2="16.269"/><linearGradient xlink:href="#weather-clear-d" gradientUnits="userSpaceOnUse" gradientTransform="translate(12.514 8.745)" x1="14.261" y1="9.286" x2="16.852" y2="16.269"/><linearGradient xlink:href="#weather-clear-d" gradientUnits="userSpaceOnUse" gradientTransform="translate(6.805 6.219)" x1="14.261" y1="9.286" x2="16.852" y2="16.269"/><linearGradient xlink:href="#weather-clear-d" gradientUnits="userSpaceOnUse" gradientTransform="translate(1.641 8.347)" x1="14.261" y1="9.286" x2="16.852" y2="16.269"/><linearGradient xlink:href="#weather-clear-d" gradientUnits="userSpaceOnUse" gradientTransform="translate(.842 -3.998)" x1="14.261" y1="9.286" x2="16.852" y2="16.269"/><linearGradient xlink:href="#weather-clear-f" x1="37" y1="-21.75" x2="53.75" y2="9" gradientUnits="userSpaceOnUse"/><linearGradient xlink:href="#weather-clear-f" gradientUnits="userSpaceOnUse" x1="37" y1="-21.75" x2="53.75" y2="9" gradientTransform="matrix(.889 0 0 .618 -4.771 39.814)"/><linearGradient xlink:href="#weather-clear-f" gradientUnits="userSpaceOnUse" gradientTransform="matrix(.606 0 0 .711 -.225 42.195)" x1="38.858" y1="-18.407" x2="53.75" y2="9"/><linearGradient xlink:href="#weather-clear-f" gradientUnits="userSpaceOnUse" gradientTransform="matrix(.414 0 0 .779 -1.911 36.879)" x1="37" y1="-21.75" x2="53.75" y2="9"/><linearGradient xlink:href="#weather-clear-b" x1="-25.137" y1="-1.249" x2="-35.653" y2="-24.884" gradientUnits="userSpaceOnUse"/><linearGradient xlink:href="#weather-clear-d" gradientUnits="userSpaceOnUse" gradientTransform="translate(17.338 3.416)" x1="14.261" y1="9.286" x2="16.852" y2="16.269"/><linearGradient xlink:href="#weather-clear-d" gradientUnits="userSpaceOnUse" gradientTransform="translate(13.401 1.353)" x1="14.261" y1="9.286" x2="16.852" y2="16.269"/><linearGradient xlink:href="#weather-clear-d" gradientUnits="userSpaceOnUse" gradientTransform="translate(-7.5 1.709)" x1="14.261" y1="9.286" x2="16.852" y2="16.269"/><linearGradient xlink:href="#weather-clear-d" gradientUnits="userSpaceOnUse" gradientTransform="translate(-.727 2.481)" x1="14.261" y1="9.286" x2="16.852" y2="16.269"/><linearGradient xlink:href="#weather-clear-g" x1="23.304" y1="29.116" x2="29.75" y2="46.093" gradientUnits="userSpaceOnUse"/><linearGradient xlink:href="#weather-clear-d" gradientUnits="userSpaceOnUse" gradientTransform="translate(13.401 1.353)" x1="14.261" y1="9.286" x2="16.852" y2="16.269"/><linearGradient xlink:href="#weather-clear-d" gradientUnits="userSpaceOnUse" gradientTransform="translate(1.641 8.347)" x1="14.261" y1="9.286" x2="16.852" y2="16.269"/><linearGradient xlink:href="#weather-clear-d" gradientUnits="userSpaceOnUse" gradientTransform="translate(6.805 6.219)" x1="14.261" y1="9.286" x2="16.852" y2="16.269"/><linearGradient xlink:href="#weather-clear-d" gradientUnits="userSpaceOnUse" gradientTransform="translate(12.514 8.745)" x1="14.261" y1="9.286" x2="16.852" y2="16.269"/><linearGradient xlink:href="#weather-clear-d" gradientUnits="userSpaceOnUse" gradientTransform="matrix(.751 0 0 1 3.053 12.863)" x1="14.261" y1="9.286" x2="16.852" y2="16.269"/><linearGradient xlink:href="#weather-clear-d" gradientUnits="userSpaceOnUse" gradientTransform="matrix(.834 0 0 1 18.126 13.82)" x1="14.261" y1="9.286" x2="16.852" y2="16.269"/><linearGradient xlink:href="#weather-clear-d" gradientUnits="userSpaceOnUse" gradientTransform="matrix(1.462 0 0 1.262 -2.437 7.06)" x1="14.261" y1="9.286" x2="16.852" y2="16.269"/><linearGradient xlink:href="#weather-clear-d" gradientUnits="userSpaceOnUse" gradientTransform="matrix(1.107 0 0 1 9.634 11.75)" x1="14.261" y1="9.286" x2="16.852" y2="16.269"/><linearGradient xlink:href="#weather-clear-d" gradientUnits="userSpaceOnUse" gradientTransform="matrix(1.107 0 0 1 .795 6.094)" x1="14.261" y1="9.286" x2="16.852" y2="16.269"/><linearGradient xlink:href="#weather-clear-d" gradientUnits="userSpaceOnUse" gradientTransform="matrix(1.462 0 0 1.262 -11.276 1.403)" x1="14.261" y1="9.286" x2="16.852" y2="16.269"/><linearGradient xlink:href="#weather-clear-d" gradientUnits="userSpaceOnUse" gradientTransform="matrix(.834 0 0 1 9.287 8.163)" x1="14.261" y1="9.286" x2="16.852" y2="16.269"/><linearGradient xlink:href="#weather-clear-d" gradientUnits="userSpaceOnUse" gradientTransform="matrix(.751 0 0 1 -5.786 7.206)" x1="14.261" y1="9.286" x2="16.852" y2="16.269"/><linearGradient xlink:href="#weather-clear-d" gradientUnits="userSpaceOnUse" gradientTransform="translate(3.675 3.088)" x1="14.261" y1="9.286" x2="16.852" y2="16.269"/><linearGradient xlink:href="#weather-clear-d" gradientUnits="userSpaceOnUse" gradientTransform="translate(-2.034 .562)" x1="14.261" y1="9.286" x2="16.852" y2="16.269"/><linearGradient xlink:href="#weather-clear-d" gradientUnits="userSpaceOnUse" gradientTransform="translate(-7.198 2.69)" x1="14.261" y1="9.286" x2="16.852" y2="16.269"/><linearGradient xlink:href="#weather-clear-d" gradientUnits="userSpaceOnUse" gradientTransform="translate(4.562 -4.303)" x1="14.261" y1="9.286" x2="16.852" y2="16.269"/><linearGradient xlink:href="#weather-clear-d" gradientUnits="userSpaceOnUse" gradientTransform="translate(88.493 -9.698)" x1="14.261" y1="9.286" x2="16.852" y2="16.269"/><linearGradient xlink:href="#weather-clear-d" gradientUnits="userSpaceOnUse" gradientTransform="matrix(1.462 0 0 1.262 56.255 -12.394)" x1="14.261" y1="9.286" x2="16.852" y2="16.269"/><linearGradient xlink:href="#weather-clear-d" gradientUnits="userSpaceOnUse" gradientTransform="matrix(1.284 0 0 1 79.369 -3.194)" x1="14.261" y1="9.286" x2="16.852" y2="16.269"/><linearGradient xlink:href="#weather-clear-b" gradientUnits="userSpaceOnUse" x1="-25.137" y1="-1.249" x2="-35.653" y2="-24.884"/><linearGradient xlink:href="#weather-clear-d" gradientUnits="userSpaceOnUse" gradientTransform="translate(-7.198 2.69)" x1="14.261" y1="9.286" x2="16.852" y2="16.269"/><linearGradient xlink:href="#weather-clear-d" gradientUnits="userSpaceOnUse" gradientTransform="translate(-2.034 .562)" x1="14.261" y1="9.286" x2="16.852" y2="16.269"/><linearGradient xlink:href="#weather-clear-d" gradientUnits="userSpaceOnUse" gradientTransform="translate(3.675 3.088)" x1="14.261" y1="9.286" x2="16.852" y2="16.269"/><linearGradient xlink:href="#weather-clear-d" gradientUnits="userSpaceOnUse" gradientTransform="matrix(.751 0 0 1 -5.786 7.206)" x1="14.261" y1="9.286" x2="16.852" y2="16.269"/><linearGradient xlink:href="#weather-clear-d" gradientUnits="userSpaceOnUse" gradientTransform="matrix(.834 0 0 1 9.287 8.163)" x1="14.261" y1="9.286" x2="16.852" y2="16.269"/><linearGradient xlink:href="#weather-clear-d" gradientUnits="userSpaceOnUse" gradientTransform="matrix(1.462 0 0 1.262 -11.276 1.403)" x1="14.261" y1="9.286" x2="16.852" y2="16.269"/><linearGradient xlink:href="#weather-clear-d" gradientUnits="userSpaceOnUse" gradientTransform="matrix(1.107 0 0 1 .795 6.094)" x1="14.261" y1="9.286" x2="16.852" y2="16.269"/><linearGradient xlink:href="#weather-clear-d" gradientUnits="userSpaceOnUse" gradientTransform="matrix(-.976 0 0 1 123.116 -5.446)" x1="14.261" y1="9.286" x2="16.852" y2="16.269"/><linearGradient xlink:href="#weather-clear-d" gradientUnits="userSpaceOnUse" gradientTransform="translate(57.977 -10.569)" x1="14.261" y1="9.286" x2="16.852" y2="16.269"/><linearGradient xlink:href="#weather-clear-b" gradientUnits="userSpaceOnUse" x1="-25.137" y1="-1.249" x2="-35.653" y2="-24.884"/><radialGradient xlink:href="#weather-clear-h" cx="-35.002" cy="-1.144" fx="-35.002" fy="-1.144" r="17.501" gradientTransform="matrix(1 0 0 .566 0 -.497)" gradientUnits="userSpaceOnUse"/><linearGradient xlink:href="#weather-clear-a" gradientUnits="userSpaceOnUse" x1="-27.007" y1="-37.55" x2="-34.7" y2="-4.449"/><linearGradient xlink:href="#weather-clear-c" gradientUnits="userSpaceOnUse" x1="11.149" y1="-43.997" x2="4.963" y2="-8.308"/><linearGradient xlink:href="#weather-clear-c" gradientUnits="userSpaceOnUse" x1="11.149" y1="-43.997" x2="4.963" y2="-8.308"/><linearGradient xlink:href="#weather-clear-b" gradientUnits="userSpaceOnUse" x1="-25.137" y1="-1.249" x2="-35.653" y2="-24.884"/><linearGradient xlink:href="#weather-clear-a" gradientUnits="userSpaceOnUse" x1="-27.007" y1="-37.55" x2="-34.7" y2="-4.449"/><linearGradient xlink:href="#weather-clear-b" gradientUnits="userSpaceOnUse" x1="-25.137" y1="-1.249" x2="-35.653" y2="-24.884"/><linearGradient xlink:href="#weather-clear-a" gradientUnits="userSpaceOnUse" x1="-27.007" y1="-37.55" x2="-34.7" y2="-4.449"/><linearGradient xlink:href="#weather-clear-c" gradientUnits="userSpaceOnUse" x1="11.149" y1="-43.997" x2="4.963" y2="-8.308"/><linearGradient xlink:href="#weather-clear-c" gradientUnits="userSpaceOnUse" x1="11.149" y1="-43.997" x2="4.963" y2="-8.308"/><linearGradient xlink:href="#weather-clear-i" id="weather-clear-n" gradientUnits="userSpaceOnUse" x1="-28.969" y1="-25.327" x2="-37.197" y2="-9.559"/><radialGradient xlink:href="#weather-clear-j" id="weather-clear-m" cx="-33.519" cy="-22.113" fx="-33.519" fy="-22.113" r="9.5" gradientUnits="userSpaceOnUse" gradientTransform="matrix(.488 1.292 -1.103 .497 -41.774 32.415)"/><linearGradient xlink:href="#weather-clear-c" gradientUnits="userSpaceOnUse" x1="11.149" y1="-43.997" x2="4.963" y2="-8.308"/><radialGradient xlink:href="#weather-clear-k" id="weather-clear-l" cx="24" cy="23.382" fx="24" fy="23.382" r="19.142" gradientTransform="matrix(1.007 0 0 1.008 -.161 .427)" gradientUnits="userSpaceOnUse"/></defs><g><g opacity=".7" stroke-linecap="square"><path d="M24 2.5l-2.375 6.688c.774-.123 1.566-.188 2.375-.188.809 0 1.601.064 2.375.188l-2.375-6.688zm-15.188 6.281l3.031 6.438c.935-1.29 2.085-2.44 3.375-3.375l-6.406-3.063zm30.406 0l-6.438 3.063c1.29.935 2.44 2.085 3.375 3.375l3.063-6.438zm-30.031 12.813l-6.688 2.375 6.688 2.375c-.12-.764-.188-1.546-.188-2.344 0-.819.061-1.622.188-2.406zm29.625.031c.123.774.188 1.566.188 2.375 0 .809-.064 1.601-.188 2.375l6.688-2.375-6.688-2.375zm-26.969 11.156l-3.031 6.406 6.406-3.031c-1.29-.935-2.44-2.085-3.375-3.375zm24.313 0c-.926 1.278-2.069 2.414-3.344 3.344l6.406 3.063-3.063-6.406zm-14.531 6.031l2.375 6.688 2.375-6.688c-.774.123-1.566.188-2.375.188-.809 0-1.601-.064-2.375-.188z" fill="#fce94f" stroke="#fcaf3e" stroke-width=".737"/><path d="M24 5.25l-1.344 3.813c.443-.039.891-.063 1.344-.063.453 0 .901.023 1.344.063l-1.344-3.813zm-13.219 5.5l1.719 3.625c.572-.681 1.224-1.336 1.906-1.906l-3.625-1.719zm26.469 0l-3.625 1.719c.68.569 1.337 1.227 1.906 1.906l1.719-3.625zm-28.188 11.875l-3.781 1.344 3.781 1.344c-.038-.432-.063-.87-.063-1.313 0-.464.021-.922.063-1.375zm29.875.031c.039.443.063.891.063 1.344 0 .453-.023.901-.063 1.344l3.781-1.344-3.781-1.344zm-3.406 10.938c-.573.686-1.221 1.364-1.906 1.938l3.625 1.719-1.719-3.656zm-23.031.031l-1.719 3.594 3.594-1.719c-.672-.564-1.311-1.203-1.875-1.875zm10.156 5.313l1.344 3.781 1.344-3.781c-.443.039-.891.063-1.344.063-.453 0-.901-.023-1.344-.063z" stroke="url(#weather-clear-l)" stroke-width=".846" fill="none"/></g><g><path transform="matrix(.778 -1.061 1.061 .778 67.48 3.641)" d="M-22.5-17.5a9.5 9.5 0 1 1-19 0 9.5 9.5 0 1 1 19 0z" fill="#ffee54" stroke="#fcaf3e" stroke-width=".76" stroke-linecap="square"/><path transform="matrix(1.244 -.168 .217 1.252 67.616 40.527)" d="M-22.5-17.5a9.5 9.5 0 1 1-19 0 9.5 9.5 0 1 1 19 0z" fill="url(#weather-clear-m)"/><path transform="matrix(.716 -.976 .976 .716 64 5.27)" d="M-22.5-17.5a9.5 9.5 0 1 1-19 0 9.5 9.5 0 1 1 19 0z" stroke="url(#weather-clear-n)" stroke-width=".826" stroke-linecap="square" fill="none"/></g></g></svg>