<svg xmlns="http://www.w3.org/2000/svg" xmlns:xlink="http://www.w3.org/1999/xlink" width="48" height="48"><defs><linearGradient id="weather-clear-night-a"><stop offset="0" stop-color="#787974"/><stop offset="1" stop-color="#787974" stop-opacity="0"/></linearGradient><radialGradient xlink:href="#weather-clear-night-a" id="weather-clear-night-j" gradientUnits="userSpaceOnUse" gradientTransform="matrix(.021 0 0 .028 323.367 -435.104)" cx="97.468" cy="-405.912" fx="97.468" fy="-405.912" r="358.446"/><linearGradient xlink:href="#weather-clear-night-b" gradientUnits="userSpaceOnUse" x1="-27.007" y1="-37.55" x2="-34.7" y2="-4.449"/><linearGradient xlink:href="#weather-clear-night-c" gradientUnits="userSpaceOnUse" x1="-25.137" y1="-1.249" x2="-35.653" y2="-24.884"/><linearGradient xlink:href="#weather-clear-night-d" gradientUnits="userSpaceOnUse" x1="11.149" y1="-43.997" x2="4.963" y2="-8.308"/><linearGradient id="weather-clear-night-i"><stop offset="0"/><stop offset="1" stop-opacity="0"/></linearGradient><linearGradient id="weather-clear-night-d"><stop offset="0" stop-color="#fff"/><stop offset="1" stop-color="#fff" stop-opacity="0"/></linearGradient><linearGradient id="weather-clear-night-b"><stop offset="0" stop-color="#fff"/><stop offset="1" stop-color="#fff" stop-opacity="0"/></linearGradient><linearGradient id="weather-clear-night-h"><stop offset="0" stop-color="#edd400"/><stop offset="1" stop-color="#edd400" stop-opacity="0"/></linearGradient><linearGradient id="weather-clear-night-c"><stop offset="0" stop-color="#fcaf3e"/><stop offset="1" stop-color="#fcaf3e" stop-opacity="0"/></linearGradient><linearGradient id="weather-clear-night-g"><stop offset="0" stop-color="#fce94f"/><stop offset="1" stop-color="#fce94f" stop-opacity="0"/></linearGradient><linearGradient id="weather-clear-night-f"><stop offset="0" stop-color="#eeeeec"/><stop offset="1" stop-color="#eeeeec" stop-opacity="0"/></linearGradient><linearGradient id="weather-clear-night-e"><stop offset="0" stop-color="#fff"/><stop offset="1" stop-color="#fff" stop-opacity="0"/></linearGradient><linearGradient xlink:href="#weather-clear-night-e" gradientUnits="userSpaceOnUse" x1="14.261" y1="9.286" x2="16.852" y2="16.269" gradientTransform="translate(-1.609 3.097)"/><linearGradient xlink:href="#weather-clear-night-e" gradientUnits="userSpaceOnUse" gradientTransform="translate(3.555 .969)" x1="14.261" y1="9.286" x2="16.852" y2="16.269"/><linearGradient xlink:href="#weather-clear-night-e" gradientUnits="userSpaceOnUse" gradientTransform="translate(9.264 3.495)" x1="14.261" y1="9.286" x2="16.852" y2="16.269"/><linearGradient xlink:href="#weather-clear-night-e" gradientUnits="userSpaceOnUse" gradientTransform="translate(8.497 -2.331)" x1="14.261" y1="9.286" x2="16.852" y2="16.269"/><linearGradient xlink:href="#weather-clear-night-e" gradientUnits="userSpaceOnUse" gradientTransform="translate(14.463 2.014)" x1="14.261" y1="9.286" x2="16.852" y2="16.269"/><linearGradient xlink:href="#weather-clear-night-e" gradientUnits="userSpaceOnUse" gradientTransform="matrix(.751 0 0 1 -.197 7.613)" x1="14.261" y1="9.286" x2="16.852" y2="16.269"/><linearGradient xlink:href="#weather-clear-night-e" gradientUnits="userSpaceOnUse" gradientTransform="matrix(1.284 0 0 1 14.62 4.452)" x1="14.261" y1="9.286" x2="16.852" y2="16.269"/><linearGradient xlink:href="#weather-clear-night-e" gradientUnits="userSpaceOnUse" gradientTransform="matrix(.834 0 0 1 14.876 8.57)" x1="14.261" y1="9.286" x2="16.852" y2="16.269"/><linearGradient xlink:href="#weather-clear-night-e" gradientUnits="userSpaceOnUse" gradientTransform="matrix(1.462 0 0 1.262 -5.687 1.81)" x1="14.261" y1="9.286" x2="16.852" y2="16.269"/><linearGradient xlink:href="#weather-clear-night-e" gradientUnits="userSpaceOnUse" gradientTransform="matrix(1.107 0 0 1 6.384 6.5)" x1="14.261" y1="9.286" x2="16.852" y2="16.269"/><linearGradient xlink:href="#weather-clear-night-e" gradientUnits="userSpaceOnUse" gradientTransform="translate(1.708 -5.784)" x1="14.261" y1="9.286" x2="16.852" y2="16.269"/><linearGradient xlink:href="#weather-clear-night-e" gradientUnits="userSpaceOnUse" gradientTransform="matrix(-.976 0 0 1 53.948 8.564)" x1="14.261" y1="9.286" x2="16.852" y2="16.269"/><linearGradient xlink:href="#weather-clear-night-e" gradientUnits="userSpaceOnUse" gradientTransform="translate(16.14 24.664)" x1="14.261" y1="9.286" x2="16.852" y2="16.269"/><linearGradient xlink:href="#weather-clear-night-e" gradientUnits="userSpaceOnUse" gradientTransform="translate(-.932 25.872)" x1="14.261" y1="9.286" x2="16.852" y2="16.269"/><linearGradient xlink:href="#weather-clear-night-e" gradientUnits="userSpaceOnUse" gradientTransform="translate(5.357 23.869)" x1="14.261" y1="9.286" x2="16.852" y2="16.269"/><linearGradient xlink:href="#weather-clear-night-e" gradientUnits="userSpaceOnUse" gradientTransform="translate(11.19 26.52)" x1="14.261" y1="9.286" x2="16.852" y2="16.269"/><linearGradient xlink:href="#weather-clear-night-e" gradientUnits="userSpaceOnUse" gradientTransform="translate(10.306 19.273)" x1="14.261" y1="9.286" x2="16.852" y2="16.269"/><linearGradient xlink:href="#weather-clear-night-e" gradientUnits="userSpaceOnUse" gradientTransform="matrix(.751 0 0 1 .229 30.763)" x1="14.261" y1="9.286" x2="16.852" y2="16.269"/><linearGradient xlink:href="#weather-clear-night-e" gradientUnits="userSpaceOnUse" gradientTransform="matrix(1.284 0 0 1 16.671 27.227)" x1="14.261" y1="9.286" x2="16.852" y2="16.269"/><linearGradient xlink:href="#weather-clear-night-e" gradientUnits="userSpaceOnUse" gradientTransform="matrix(.834 0 0 1 17.053 31.47)" x1="14.261" y1="9.286" x2="16.852" y2="16.269"/><linearGradient xlink:href="#weather-clear-night-e" gradientUnits="userSpaceOnUse" gradientTransform="matrix(1.462 0 0 1.262 -4.011 24.96)" x1="14.261" y1="9.286" x2="16.852" y2="16.269"/><linearGradient xlink:href="#weather-clear-night-e" gradientUnits="userSpaceOnUse" gradientTransform="matrix(1.107 0 0 1 8.185 29.526)" x1="14.261" y1="9.286" x2="16.852" y2="16.269"/><linearGradient xlink:href="#weather-clear-night-e" gradientUnits="userSpaceOnUse" gradientTransform="translate(4.208 21.305)" x1="14.261" y1="9.286" x2="16.852" y2="16.269"/><linearGradient xlink:href="#weather-clear-night-e" gradientUnits="userSpaceOnUse" gradientTransform="matrix(-.976 0 0 1 56.124 32.089)" x1="14.261" y1="9.286" x2="16.852" y2="16.269"/><linearGradient xlink:href="#weather-clear-night-f" x1="6.665" y1="13.803" x2="41.404" y2="13.803" gradientUnits="userSpaceOnUse" gradientTransform="matrix(.992 0 0 .991 1.129 5.404)"/><linearGradient xlink:href="#weather-clear-night-e" gradientUnits="userSpaceOnUse" gradientTransform="translate(14.463 2.014)" x1="14.261" y1="9.286" x2="16.852" y2="16.269"/><linearGradient xlink:href="#weather-clear-night-e" gradientUnits="userSpaceOnUse" gradientTransform="translate(8.497 -2.331)" x1="14.261" y1="9.286" x2="16.852" y2="16.269"/><linearGradient xlink:href="#weather-clear-night-e" gradientUnits="userSpaceOnUse" gradientTransform="translate(-1.609 3.097)" x1="14.261" y1="9.286" x2="16.852" y2="16.269"/><linearGradient xlink:href="#weather-clear-night-e" gradientUnits="userSpaceOnUse" gradientTransform="translate(3.555 .969)" x1="14.261" y1="9.286" x2="16.852" y2="16.269"/><linearGradient xlink:href="#weather-clear-night-e" gradientUnits="userSpaceOnUse" gradientTransform="translate(9.264 3.495)" x1="14.261" y1="9.286" x2="16.852" y2="16.269"/><linearGradient xlink:href="#weather-clear-night-e" gradientUnits="userSpaceOnUse" gradientTransform="matrix(.751 0 0 1 -.197 7.613)" x1="14.261" y1="9.286" x2="16.852" y2="16.269"/><linearGradient xlink:href="#weather-clear-night-e" gradientUnits="userSpaceOnUse" gradientTransform="matrix(1.284 0 0 1 14.62 4.452)" x1="14.261" y1="9.286" x2="16.852" y2="16.269"/><linearGradient xlink:href="#weather-clear-night-e" gradientUnits="userSpaceOnUse" gradientTransform="matrix(.834 0 0 1 14.876 8.57)" x1="14.261" y1="9.286" x2="16.852" y2="16.269"/><linearGradient xlink:href="#weather-clear-night-e" gradientUnits="userSpaceOnUse" gradientTransform="matrix(1.462 0 0 1.262 -5.687 1.81)" x1="14.261" y1="9.286" x2="16.852" y2="16.269"/><linearGradient xlink:href="#weather-clear-night-e" gradientUnits="userSpaceOnUse" gradientTransform="matrix(1.107 0 0 1 6.384 6.5)" x1="14.261" y1="9.286" x2="16.852" y2="16.269"/><linearGradient xlink:href="#weather-clear-night-e" gradientUnits="userSpaceOnUse" gradientTransform="matrix(-.976 0 0 1 53.948 8.564)" x1="14.261" y1="9.286" x2="16.852" y2="16.269"/><linearGradient xlink:href="#weather-clear-night-f" gradientUnits="userSpaceOnUse" gradientTransform="matrix(.992 0 0 .991 1.129 5.404)" x1="6.665" y1="13.803" x2="41.404" y2="13.803"/><linearGradient xlink:href="#weather-clear-night-f" gradientUnits="userSpaceOnUse" gradientTransform="matrix(.992 0 0 .991 4.379 10.654)" x1="6.665" y1="13.803" x2="41.404" y2="13.803"/><linearGradient xlink:href="#weather-clear-night-e" gradientUnits="userSpaceOnUse" gradientTransform="matrix(1.107 0 0 1 9.634 11.75)" x1="14.261" y1="9.286" x2="16.852" y2="16.269"/><linearGradient xlink:href="#weather-clear-night-e" gradientUnits="userSpaceOnUse" gradientTransform="matrix(1.462 0 0 1.262 -2.437 7.06)" x1="14.261" y1="9.286" x2="16.852" y2="16.269"/><linearGradient xlink:href="#weather-clear-night-e" gradientUnits="userSpaceOnUse" gradientTransform="matrix(.834 0 0 1 18.126 13.82)" x1="14.261" y1="9.286" x2="16.852" y2="16.269"/><linearGradient xlink:href="#weather-clear-night-e" gradientUnits="userSpaceOnUse" gradientTransform="matrix(.751 0 0 1 3.053 12.863)" x1="14.261" y1="9.286" x2="16.852" y2="16.269"/><linearGradient xlink:href="#weather-clear-night-e" gradientUnits="userSpaceOnUse" gradientTransform="translate(12.514 8.745)" x1="14.261" y1="9.286" x2="16.852" y2="16.269"/><linearGradient xlink:href="#weather-clear-night-e" gradientUnits="userSpaceOnUse" gradientTransform="translate(6.805 6.219)" x1="14.261" y1="9.286" x2="16.852" y2="16.269"/><linearGradient xlink:href="#weather-clear-night-e" gradientUnits="userSpaceOnUse" gradientTransform="translate(1.641 8.347)" x1="14.261" y1="9.286" x2="16.852" y2="16.269"/><linearGradient xlink:href="#weather-clear-night-e" gradientUnits="userSpaceOnUse" gradientTransform="translate(.842 -3.998)" x1="14.261" y1="9.286" x2="16.852" y2="16.269"/><linearGradient xlink:href="#weather-clear-night-g" x1="37" y1="-21.75" x2="53.75" y2="9" gradientUnits="userSpaceOnUse"/><linearGradient xlink:href="#weather-clear-night-g" gradientUnits="userSpaceOnUse" x1="37" y1="-21.75" x2="53.75" y2="9" gradientTransform="matrix(.889 0 0 .618 -4.771 39.814)"/><linearGradient xlink:href="#weather-clear-night-g" gradientUnits="userSpaceOnUse" gradientTransform="matrix(.606 0 0 .711 -.225 42.195)" x1="38.858" y1="-18.407" x2="53.75" y2="9"/><linearGradient xlink:href="#weather-clear-night-g" gradientUnits="userSpaceOnUse" gradientTransform="matrix(.414 0 0 .779 -1.911 36.879)" x1="37" y1="-21.75" x2="53.75" y2="9"/><linearGradient xlink:href="#weather-clear-night-c" x1="-25.137" y1="-1.249" x2="-35.653" y2="-24.884" gradientUnits="userSpaceOnUse"/><linearGradient xlink:href="#weather-clear-night-e" gradientUnits="userSpaceOnUse" gradientTransform="translate(17.338 3.416)" x1="14.261" y1="9.286" x2="16.852" y2="16.269"/><linearGradient xlink:href="#weather-clear-night-e" gradientUnits="userSpaceOnUse" gradientTransform="translate(13.401 1.353)" x1="14.261" y1="9.286" x2="16.852" y2="16.269"/><linearGradient xlink:href="#weather-clear-night-e" gradientUnits="userSpaceOnUse" gradientTransform="translate(-7.5 1.709)" x1="14.261" y1="9.286" x2="16.852" y2="16.269"/><linearGradient xlink:href="#weather-clear-night-e" gradientUnits="userSpaceOnUse" gradientTransform="translate(-.727 2.481)" x1="14.261" y1="9.286" x2="16.852" y2="16.269"/><linearGradient xlink:href="#weather-clear-night-h" x1="23.304" y1="29.116" x2="29.75" y2="46.093" gradientUnits="userSpaceOnUse"/><linearGradient xlink:href="#weather-clear-night-e" gradientUnits="userSpaceOnUse" gradientTransform="translate(13.401 1.353)" x1="14.261" y1="9.286" x2="16.852" y2="16.269"/><linearGradient xlink:href="#weather-clear-night-e" gradientUnits="userSpaceOnUse" gradientTransform="translate(1.641 8.347)" x1="14.261" y1="9.286" x2="16.852" y2="16.269"/><linearGradient xlink:href="#weather-clear-night-e" gradientUnits="userSpaceOnUse" gradientTransform="translate(6.805 6.219)" x1="14.261" y1="9.286" x2="16.852" y2="16.269"/><linearGradient xlink:href="#weather-clear-night-e" gradientUnits="userSpaceOnUse" gradientTransform="translate(12.514 8.745)" x1="14.261" y1="9.286" x2="16.852" y2="16.269"/><linearGradient xlink:href="#weather-clear-night-e" gradientUnits="userSpaceOnUse" gradientTransform="matrix(.751 0 0 1 3.053 12.863)" x1="14.261" y1="9.286" x2="16.852" y2="16.269"/><linearGradient xlink:href="#weather-clear-night-e" gradientUnits="userSpaceOnUse" gradientTransform="matrix(.834 0 0 1 18.126 13.82)" x1="14.261" y1="9.286" x2="16.852" y2="16.269"/><linearGradient xlink:href="#weather-clear-night-e" gradientUnits="userSpaceOnUse" gradientTransform="matrix(1.462 0 0 1.262 -2.437 7.06)" x1="14.261" y1="9.286" x2="16.852" y2="16.269"/><linearGradient xlink:href="#weather-clear-night-e" gradientUnits="userSpaceOnUse" gradientTransform="matrix(1.107 0 0 1 9.634 11.75)" x1="14.261" y1="9.286" x2="16.852" y2="16.269"/><linearGradient xlink:href="#weather-clear-night-e" gradientUnits="userSpaceOnUse" gradientTransform="matrix(1.107 0 0 1 .795 6.094)" x1="14.261" y1="9.286" x2="16.852" y2="16.269"/><linearGradient xlink:href="#weather-clear-night-e" gradientUnits="userSpaceOnUse" gradientTransform="matrix(1.462 0 0 1.262 -11.276 1.403)" x1="14.261" y1="9.286" x2="16.852" y2="16.269"/><linearGradient xlink:href="#weather-clear-night-e" gradientUnits="userSpaceOnUse" gradientTransform="matrix(.834 0 0 1 9.287 8.163)" x1="14.261" y1="9.286" x2="16.852" y2="16.269"/><linearGradient xlink:href="#weather-clear-night-e" gradientUnits="userSpaceOnUse" gradientTransform="matrix(.751 0 0 1 -5.786 7.206)" x1="14.261" y1="9.286" x2="16.852" y2="16.269"/><linearGradient xlink:href="#weather-clear-night-e" gradientUnits="userSpaceOnUse" gradientTransform="translate(3.675 3.088)" x1="14.261" y1="9.286" x2="16.852" y2="16.269"/><linearGradient xlink:href="#weather-clear-night-e" gradientUnits="userSpaceOnUse" gradientTransform="translate(-2.034 .562)" x1="14.261" y1="9.286" x2="16.852" y2="16.269"/><linearGradient xlink:href="#weather-clear-night-e" gradientUnits="userSpaceOnUse" gradientTransform="translate(-7.198 2.69)" x1="14.261" y1="9.286" x2="16.852" y2="16.269"/><linearGradient xlink:href="#weather-clear-night-e" gradientUnits="userSpaceOnUse" gradientTransform="translate(4.562 -4.303)" x1="14.261" y1="9.286" x2="16.852" y2="16.269"/><linearGradient xlink:href="#weather-clear-night-e" gradientUnits="userSpaceOnUse" gradientTransform="translate(88.493 -9.698)" x1="14.261" y1="9.286" x2="16.852" y2="16.269"/><linearGradient xlink:href="#weather-clear-night-e" gradientUnits="userSpaceOnUse" gradientTransform="matrix(1.462 0 0 1.262 56.255 -12.394)" x1="14.261" y1="9.286" x2="16.852" y2="16.269"/><linearGradient xlink:href="#weather-clear-night-e" gradientUnits="userSpaceOnUse" gradientTransform="matrix(1.284 0 0 1 79.369 -3.194)" x1="14.261" y1="9.286" x2="16.852" y2="16.269"/><linearGradient xlink:href="#weather-clear-night-c" gradientUnits="userSpaceOnUse" x1="-25.137" y1="-1.249" x2="-35.653" y2="-24.884"/><linearGradient xlink:href="#weather-clear-night-e" gradientUnits="userSpaceOnUse" gradientTransform="translate(-7.198 2.69)" x1="14.261" y1="9.286" x2="16.852" y2="16.269"/><linearGradient xlink:href="#weather-clear-night-e" gradientUnits="userSpaceOnUse" gradientTransform="translate(-2.034 .562)" x1="14.261" y1="9.286" x2="16.852" y2="16.269"/><linearGradient xlink:href="#weather-clear-night-e" gradientUnits="userSpaceOnUse" gradientTransform="translate(3.675 3.088)" x1="14.261" y1="9.286" x2="16.852" y2="16.269"/><linearGradient xlink:href="#weather-clear-night-e" gradientUnits="userSpaceOnUse" gradientTransform="matrix(.751 0 0 1 -5.786 7.206)" x1="14.261" y1="9.286" x2="16.852" y2="16.269"/><linearGradient xlink:href="#weather-clear-night-e" gradientUnits="userSpaceOnUse" gradientTransform="matrix(.834 0 0 1 9.287 8.163)" x1="14.261" y1="9.286" x2="16.852" y2="16.269"/><linearGradient xlink:href="#weather-clear-night-e" gradientUnits="userSpaceOnUse" gradientTransform="matrix(1.462 0 0 1.262 -11.276 1.403)" x1="14.261" y1="9.286" x2="16.852" y2="16.269"/><linearGradient xlink:href="#weather-clear-night-e" gradientUnits="userSpaceOnUse" gradientTransform="matrix(1.107 0 0 1 .795 6.094)" x1="14.261" y1="9.286" x2="16.852" y2="16.269"/><linearGradient xlink:href="#weather-clear-night-e" gradientUnits="userSpaceOnUse" gradientTransform="matrix(-.976 0 0 1 123.116 -5.446)" x1="14.261" y1="9.286" x2="16.852" y2="16.269"/><linearGradient xlink:href="#weather-clear-night-e" gradientUnits="userSpaceOnUse" gradientTransform="translate(57.977 -10.569)" x1="14.261" y1="9.286" x2="16.852" y2="16.269"/><linearGradient xlink:href="#weather-clear-night-c" gradientUnits="userSpaceOnUse" x1="-25.137" y1="-1.249" x2="-35.653" y2="-24.884"/><radialGradient xlink:href="#weather-clear-night-i" cx="-35.002" cy="-1.144" fx="-35.002" fy="-1.144" r="17.501" gradientTransform="matrix(1 0 0 .566 0 -.497)" gradientUnits="userSpaceOnUse"/><linearGradient xlink:href="#weather-clear-night-b" gradientUnits="userSpaceOnUse" x1="-27.007" y1="-37.55" x2="-34.7" y2="-4.449"/><linearGradient xlink:href="#weather-clear-night-d" gradientUnits="userSpaceOnUse" x1="11.149" y1="-43.997" x2="4.963" y2="-8.308"/><linearGradient xlink:href="#weather-clear-night-d" gradientUnits="userSpaceOnUse" x1="11.149" y1="-43.997" x2="4.963" y2="-8.308"/><linearGradient xlink:href="#weather-clear-night-c" gradientUnits="userSpaceOnUse" x1="-25.137" y1="-1.249" x2="-35.653" y2="-24.884"/><linearGradient xlink:href="#weather-clear-night-b" gradientUnits="userSpaceOnUse" x1="-27.007" y1="-37.55" x2="-34.7" y2="-4.449"/></defs><g transform="matrix(.999 0 0 .999 -342.541 469.412)"><path transform="matrix(1.386 0 0 1.386 444.99 -446.472)" d="M-46.5.25a9.75 9.75 0 1 1-19.5 0 9.75 9.75 0 1 1 19.5 0z" fill="#eaece8"/><g transform="translate(37.125 -1.625)"><path d="M323.846-456.078c.049.176-.126.394-.279.599-.201.269-.31.448-.08.678.143.143.579.016.718-.04l.998-.359c.246-.098.429-.137.678-.2.287-.072.572.057.678.2.068.091-.462.49-.519.519-.242.121-.473.218-.718.279-.302.076-.572.178-.878.239-.308.062-.524.155-.798.319-.34.204-.626.506-.918.798-.273.273-.367.567-.279.918.084.338.21.457.519.519.343.069.511-.096.678-.319.218-.291.302-.661.559-.918.215-.215.362-.421.599-.599.24-.18.421-.274.718-.2.247.062.449.305.718.359.227.045.562-.261.758-.359l.12-.08c.207-.138.55-.08.798-.08.269 0 .496.128.718.239.269.134.501.126.758.319.273.204.419.359.559.638.132.264.19.43.399.638l.798.599c.143.143.233.531.279.718.073.293.139.599 0 .878l-.479.878c-.145.289-.549.532-.798.718-.343.257-.751.272-1.077.599-.375.375-.411.596-.758 1.117-.257.385.049.556.359.479l.958-.239.16-.04 1.117-.519c.497-.124 1.543.646 1.995.918.357.214-.069.633-.239.718-.317.158-.633.2-.998.2-.236 0-.492-.075-.718-.12-.305-.061-.518-.061-.758.12-.267.2-.236.458-.08.718.156.26.41.444.479.718.087.346-.193.531-.439.678-.247.148-.672-.04-.958-.04-.362 0-.711.184-.998.399-.13.097-.243.613-.279.758l-.04.16c-.097.389.027.587.16.918.096.239.328.457.439.678.138.277.229.459.08.758-.127.255-.176.463-.239.718-.045.179.207.658.279.838.144.361.01.429-.239.678-.221.221-.552.276-.798.399-.229.115-.681-.021-.918-.08-.267-.067-.515.058-.718.16-.322.161-.321.317-.559 0-.252-.336-.461-.686-.559-1.077l-.04-.16c-.067-.267-.04-.596-.04-.878l.08-.838c0-.316-.755.278-.958.359l-.279.12c-.399.171-.359.535-.359.878l.2.958c0 .342-.403.439-.678.439-.391 0-.572-.452-.838-.718-.254-.254-.688-.538-.838-.838-.212-.424-.284-.665.16-.998.254-.191.608-.226.798-.479.199-.266.482-.638 0-.758-.328-.082-.456-.196-.838-.12l-.2.04c-.659.132-.655.072-1.277-.239-.448-.224-.601-.561-.918-.878-.295-.295-.462-.692-.559-1.077l-.279-1.038c-.07-.281-.08-.626-.08-.918l-.08-.918v-.998l.04-.958c0-.277.054-.616.12-.878v-.08c0-.34.197-.692.319-.998.108-.269.275-.549.399-.798.13-.261.261-.481.439-.718.192-.256.397-.516.599-.758.347-.417.708-.807 1.117-1.157.239-.205.357-.547.638-.758l.998-.798c.262-.197.502-.424.678-.718.144-.239.225-.464.439-.678.053-.053.23-.135.279-.16z" opacity=".106" fill="#787974" fill-rule="evenodd"/><path d="M334.86-450.97c-.385.092-1.153.224-1.676.12-.401-.08-.414-.304-.798.08l-.08.08c-.242.242-.279.279-.279.638 0 .236.004.461-.04.678-.047.233-.012.592.04.798.078.314.128.535.279.838.121.242.177.432.399.599.288.216.684.274.998.399.221.088.591.04.838.04.314 0 .359.036.359.399 0 .312-.586.75-.758 1.038-.191.318-.118.564 0 .918.088.263.145.525.2.798.057.285.131.491.359.718.242.242.689-.026.918.279.115.153.12.407.12.599 0 .317.103.467.399.319.27-.135.473-.125.678-.399.196-.261.294-.588.439-.878.129-.258.35-.279.638-.279.267 0 .481.069.758 0 .406-.102.468-.229.758-.519.367-.367.323-.622.399-1.077.034-.205-.034-.455-.08-.638l-.04-.16c-.056-.222-.544-.239-.718-.239-.386 0-.958-.19-1.317-.279-.183-.046-.692-.652-.838-.798-.211-.211-.252-.371-.319-.638l-.12-.998c-.093-.373.016-.583-.279-.878-.209-.209-.347-.497-.399-.758-.05-.252-.287-.535-.479-.678-.14-.105-.157-.079-.359-.12z" opacity=".189" fill="#787974" fill-rule="evenodd"/><path d="M341.005-448.656c-.207.007-.419.259-.599.439-.177.177-.12.48-.12.718 0 .261.056.543.12.798.054.216.253.492.399.638.22.22.502.35.798.399.388.065.602.111.758-.279.107-.268.16-.453.16-.758 0-.276-.012-.489-.08-.758-.081-.326-.186-.492-.479-.638-.207-.104-.418-.344-.599-.479-.103-.078-.236-.08-.359-.08z" opacity=".183" fill="#787974" fill-rule="evenodd"/><path d="M328.355-436.206c.216-.148.846-.794 1.277-1.117l.239-.2c.43-.358.805-.928 1.117-1.397.496-.743.713-1.411.878-2.235.209-1.046.262-.347.04.319l-.08.319c-.109.436-.152.899-.319 1.317-.226.564-.651 1.049-.798 1.636-.078.313-.185.696-.12.958.078.312.533-.377.838-.479.415-.138.519-.229.519.239 0 .283-.143.674-.2.958-.098.489 1.288.077 1.596 0 1.007-.252 1.698-.597 2.514-1.277.898-.749 1.645-1.566 2.474-2.394.667-.667.98-1.085.559.04l-.12.319-.12.319c-.221.589-.624 1.241-1.157 1.596-.831.554-1.37 1.583-2.275 2.035l-1.117.439c-.369.185.719.315.918.359 2.003.445-1.621.638-2.075.638-.749 0-1.123-.156-1.716.2-.203.122.943.588.998.599.468.094.885.399 1.397.399.85 0-1.773.265-2.514.08l-1.836-.439c-.318-.079-.636-.031-.918.04-.056.014.04.823.04.918 0 .591-.155 1.052-.439.2-.153-.459-.439-.944-.439-1.437 0-.312-.412.469-.599.718-.263.351-.782.854-.878.878-.013.003.258-.554.359-.958.076-.303.566-1.115.239-1.197-.305-.076-.725-.017-1.037-.08-.463-.093-.96-.181-1.397-.399-.845-.422-2.163-.81-3.073-1.038-.084-.021-1.456-1.495-.16-.2.855.855 2.191 1.437 3.392 1.437.385 0 .957-.149 1.317-.239.217-.054.517-.382.758-.479.262-.105-.418-.382-.599-.599l-.2-.239c-.715-.858-.966-2.044-1.796-2.873-.133-.133-2.078-2.403-1.157-1.636.952.793 1.832 1.498 2.634 2.434.411.48.765 1.106 1.157 1.596.395.493.312-.103.2-.439-.24-.72-.12-1.721-.12-2.474 0-.998.516 1.025.559 1.197.124.496.38 1.142.758.638.39-.52.439-.619.439.04v.16c0 .248-.013.533.04.798z" opacity=".472" fill="#f3f4f2" fill-rule="evenodd"/><path d="M340.047-444.985c.08.085.16.377.16.638 0 .106-.66.62-.758.718-.192.192-.231.515-.279.758-.063.313-.141.531-.08.838.052.26.16.52.279.758.143.287.351.431.599.678.275.275.616.274.958.359.435.109-.258.523-.359.599-.268.201-.529.26-.678.559-.173.346.185.473.399.559.242.097.607-.33.718-.479.151-.201.399-.427.399-.678 0-.247.12-.508.12-.798 0-.27.061-.565.12-.798.089-.355.217-.497.439-.718.179-.179.174-.62.12-.838l-.279-.718c-.062-.246-.362-.39-.559-.439-.236-.059-.567-.488-.718-.638-.208-.208-.3-.359-.599-.359z" opacity=".117" fill="#787974" fill-rule="evenodd"/><path d="M322.689-446.022z" stroke="#000" stroke-width="1.001" fill="none"/><path d="M327.597-455.679l.838-.239c.34-.085.697.12 1.038.12.035 0 .255.439.638.439h.16c.242 0 .512.192.678.359.161.161.014.545-.08.638-.254.254-.482.077-.678-.12-.211-.211-.321-.29-.599-.359-.276-.069-.57-.027-.838.04-.327.082-.542.16-.918.16-.126 0-.512-.545-.559-.638-.082-.164.219-.374.319-.399z" opacity=".2" fill="#938f8b" fill-rule="evenodd"/><path d="M332.425-455.001c.198.051.64.039.958-.04.352-.088.908-.132 1.277-.04.223.056 1.587.324.958.638-.311.156-.641.193-.918.359-.333.2.402.279.559.279.424 0 .18.511.08.678-.157.262-.05.666 0 .918.057.285.548.239.798.239.343 0 .632.044.838.319.182.243.435.487.319.718-.119.238-.721.279-.918.279-.152 0-.75-.763-.838-.838-.23-.198-.5-.015-.718.04-.389.097-.676-.397-.918-.599-.262-.218-.425-.531-.559-.798-.169-.338.104-.479-.399-.479-.312 0-.483-.063-.718-.239-.319-.239-.559-.147-.559-.599 0-.399.022-.516.359-.718l.399-.12z" opacity=".289" fill="#938f8b" fill-rule="evenodd"/><path d="M323.877-456.19c.049.176-.126.394-.279.599-.201.269-.31.448-.08.678.143.143.579.016.718-.04l.998-.359c.246-.098.429-.137.678-.2.287-.072.572.057.678.2.068.091-.462.49-.519.519-.242.121-.473.218-.718.279-.302.075-.572.178-.878.239-.308.062-.524.155-.798.319-.34.204-.626.506-.918.798-.273.273-.367.567-.279.918.084.338.21.457.519.519.343.069.511-.095.678-.319.218-.291.302-.661.559-.918.215-.215.362-.421.599-.599.24-.18.421-.274.718-.2.247.062.449.305.718.359.227.045.562-.261.758-.359l.12-.08c.207-.138.55-.08.798-.08.269 0 .496.128.718.239.269.134.501.126.758.319.273.204.419.359.559.638.132.264.19.43.399.638l.798.599c.143.143.233.531.279.718.073.293.139.599 0 .878l-.479.878c-.145.289-.549.532-.798.718-.343.257-.751.272-1.077.599-.375.375-.411.596-.758 1.117-.257.385.049.556.359.479l.958-.239.16-.04 1.117-.519c.497-.124 1.543.646 1.995.918.357.214-.069.633-.239.718-.317.158-.633.2-.998.2-.236 0-.492-.075-.718-.12-.305-.061-.518-.061-.758.12-.267.2-.236.458-.08.718.156.26.41.444.479.718.087.346-.193.531-.439.678-.247.148-.672-.04-.958-.04-.362 0-.711.184-.998.399-.13.097-.243.613-.279.758l-.04.16c-.097.389.027.587.16.918.096.239.328.457.439.678.138.277.229.459.08.758-.127.255-.176.463-.239.718-.045.179.207.658.279.838.144.361.01.429-.239.678-.221.221-.552.276-.798.399-.229.115-.681-.021-.918-.08-.267-.067-.515.058-.718.16-.322.161-.321.317-.559 0-.252-.336-.461-.686-.559-1.077l-.04-.16c-.067-.267-.04-.596-.04-.878l.08-.838c0-.316-.755.278-.958.359l-.279.12c-.399.171-.359.535-.359.878l.2.958c0 .342-.403.439-.678.439-.391 0-.572-.452-.838-.718-.254-.254-.688-.538-.838-.838-.212-.424-.284-.665.16-.998.254-.191.608-.226.798-.479.199-.266.482-.638 0-.758-.328-.082-.456-.196-.838-.12l-.2.04c-.659.132-.655.072-1.277-.239-.448-.224-.601-.561-.918-.878-.295-.295-.462-.692-.559-1.077l-.279-1.037c-.07-.281-.08-.626-.08-.918l-.08-.918v-.998l.04-.958c0-.277.054-.616.12-.878v-.08c0-.34.197-.692.319-.998.108-.269.275-.549.399-.798.13-.261.261-.481.439-.718.192-.256.397-.516.599-.758.347-.417.708-.807 1.117-1.157.239-.205.357-.547.638-.758l.998-.798c.262-.197.502-.424.678-.718.144-.239.225-.464.439-.678.053-.053.23-.135.279-.16z" opacity=".178" fill="url(#weather-clear-night-j)" fill-rule="evenodd"/><path d="M-824.731 649.369a31.865 31.865 0 1 1-63.729 0 31.865 31.865 0 1 1 63.729 0z" transform="matrix(.021 0 0 .021 345.155 -457.772)" opacity=".617" fill="#fff"/><path d="M-824.731 649.369a31.865 31.865 0 1 1-63.729 0 31.865 31.865 0 1 1 63.729 0z" transform="matrix(.011 0 0 .011 330.388 -456.653)" opacity=".544" fill="#fff"/><path d="M-824.731 649.369a31.865 31.865 0 1 1-63.729 0 31.865 31.865 0 1 1 63.729 0z" transform="matrix(.021 0 0 .021 354.931 -458.53)" opacity=".544" fill="#c2c3be"/><path d="M-824.731 649.369a31.865 31.865 0 1 1-63.729 0 31.865 31.865 0 1 1 63.729 0z" transform="matrix(.021 0 0 .021 349.824 -448.314)" opacity=".567" fill="#c2c3be"/><path d="M-824.731 649.369a31.865 31.865 0 1 1-63.729 0 31.865 31.865 0 1 1 63.729 0z" transform="matrix(.014 0 0 .014 347.856 -453.491)" opacity=".617" fill="#fff"/><path d="M-824.731 649.369a31.865 31.865 0 1 1-63.729 0 31.865 31.865 0 1 1 63.729 0z" transform="matrix(.011 0 0 .011 337.491 -441.33)" opacity=".617" fill="#fff"/><path d="M-824.731 649.369a31.865 31.865 0 1 1-63.729 0 31.865 31.865 0 1 1 63.729 0z" transform="matrix(.014 0 0 .014 346.181 -447.585)" opacity=".617" fill="#fff"/><path d="M-824.731 649.369a31.865 31.865 0 1 1-63.729 0 31.865 31.865 0 1 1 63.729 0z" transform="matrix(.014 0 0 .014 351.368 -458.998)" opacity=".617" fill="#fff"/><path d="M-824.731 649.369a31.865 31.865 0 1 1-63.729 0 31.865 31.865 0 1 1 63.729 0z" transform="matrix(.014 0 0 .014 348.335 -458.2)" opacity=".617" fill="#fff"/><path d="M-824.731 649.369a31.865 31.865 0 1 1-63.729 0 31.865 31.865 0 1 1 63.729 0z" transform="matrix(.014 0 0 .014 349.533 -462.669)" opacity=".617" fill="#fff"/><path d="M-824.731 649.369a31.865 31.865 0 1 1-63.729 0 31.865 31.865 0 1 1 63.729 0z" transform="matrix(.014 0 0 .014 340.674 -449.421)" opacity=".617" fill="#fff"/><path d="M328.314-435.943c.2-.136.784-.727 1.184-1.023l.222-.183c.399-.328.746-.85 1.036-1.278.459-.68.661-1.292.814-2.045.194-.958.243-.318.037.292l-.074.292c-.101.399-.141.823-.296 1.205-.209.516-.604.96-.74 1.498-.073.287-.171.638-.111.877.072.286.494-.345.777-.438.385-.127.481-.21.481.219 0 .259-.132.617-.185.877-.091.448 1.194.07 1.479 0 .934-.231 1.574-.547 2.33-1.169.833-.685 1.525-1.433 2.293-2.192.618-.61.909-.993.518.037l-.111.292-.111.292c-.205.539-.578 1.136-1.073 1.461-.77.507-1.269 1.449-2.108 1.863l-1.036.402c-.342.169.666.288.851.329 1.857.407-1.503.584-1.923.584-.694 0-1.041-.143-1.59.183-.188.111.874.538.925.548.433.086.82.365 1.295.365.788 0-1.643.243-2.33.073l-1.701-.402c-.294-.073-.59-.028-.851.037-.052.013.037.754.037.84 0 .541-.143.963-.407.183-.142-.42-.407-.864-.407-1.315 0-.285-.381.429-.555.657-.244.321-.725.782-.814.804-.012.003.239-.507.333-.877.07-.278.525-1.021.222-1.096-.283-.07-.672-.016-.962-.073-.43-.085-.89-.166-1.295-.365-.783-.387-2.005-.741-2.848-.95-.078-.019-1.349-1.369-.148-.183.793.783 2.03 1.315 3.144 1.315.357 0 .887-.137 1.221-.219.201-.05.479-.35.703-.438.243-.096-.387-.349-.555-.548l-.185-.219c-.663-.786-.896-1.871-1.664-2.63-.124-.122-1.926-2.2-1.073-1.498.882.726 1.698 1.372 2.441 2.228.381.439.709 1.012 1.073 1.461.366.452.289-.094.185-.402-.223-.659-.111-1.576-.111-2.265 0-.914.478.938.518 1.096.115.454.353 1.045.703.584.362-.476.407-.566.407.037v.146c0 .227-.012.488.037.731z" fill="#fff" fill-rule="evenodd"/><g opacity=".317" fill="#a3a4a0"><path transform="matrix(1 0 0 1.056 461.52 -521.288)" d="M-125.688 68.683a1.768 1.591 0 1 1-3.536 0 1.768 1.591 0 1 1 3.536 0z"/><path transform="matrix(1 0 0 1.056 463.465 -517.31)" d="M-125.688 68.683a1.768 1.591 0 1 1-3.536 0 1.768 1.591 0 1 1 3.536 0z"/><path transform="matrix(.65 0 0 .686 421.418 -491.993)" d="M-125.688 68.683a1.768 1.591 0 1 1-3.536 0 1.768 1.591 0 1 1 3.536 0z"/><path transform="matrix(1.55 0 0 1.636 524.727 -562.744)" d="M-125.688 68.683a1.768 1.591 0 1 1-3.536 0 1.768 1.591 0 1 1 3.536 0z"/><path transform="matrix(1.8 0 0 1.9 550.845 -574.713)" d="M-125.688 68.683a1.768 1.591 0 1 1-3.536 0 1.768 1.591 0 1 1 3.536 0z"/><path transform="matrix(1.4 0 0 1.478 504.017 -542.916)" d="M-125.688 68.683a1.768 1.591 0 1 1-3.536 0 1.768 1.591 0 1 1 3.536 0z"/><path transform="matrix(1.4 0 0 1.478 502.426 -549.492)" d="M-125.688 68.683a1.768 1.591 0 1 1-3.536 0 1.768 1.591 0 1 1 3.536 0z"/></g><path d="M-161.839 69.523a.663.663 0 1 1-1.326 0 .663.663 0 1 1 1.326 0z" transform="translate(490.909 -504.258)" fill="#fff"/></g><path transform="matrix(1.386 0 0 1.386 445.008 -446.365)" d="M-46.5.25a9.75 9.75 0 1 1-19.5 0 9.75 9.75 0 1 1 19.5 0z" stroke="#888a85" stroke-width=".722" fill="none"/><path transform="matrix(.778 -1.061 1.061 .778 410.472 -466.346)" d="M-22.5-17.5a9.5 9.5 0 1 1-19 0 9.5 9.5 0 1 1 19 0z" stroke="#fff" stroke-width=".761" stroke-linecap="square" fill="none"/></g></svg>