<svg xmlns="http://www.w3.org/2000/svg" xmlns:xlink="http://www.w3.org/1999/xlink" width="48" height="48"><defs><linearGradient xlink:href="#weather-snow-a" id="weather-snow-N" gradientUnits="userSpaceOnUse" x1="284.802" y1="-441.233" x2="288.9" y2="-436.831"/><linearGradient xlink:href="#weather-snow-b" id="weather-snow-M" gradientUnits="userSpaceOnUse" x1="286.666" y1="-439.484" x2="289.766" y2="-436.707"/><linearGradient xlink:href="#weather-snow-c" id="weather-snow-L" gradientUnits="userSpaceOnUse" x1="275.942" y1="-437.105" x2="279.975" y2="-431.918"/><linearGradient xlink:href="#weather-snow-a" id="weather-snow-K" gradientUnits="userSpaceOnUse" x1="285.941" y1="-439.939" x2="289.391" y2="-436.443"/><linearGradient xlink:href="#weather-snow-d" id="weather-snow-J" gradientUnits="userSpaceOnUse" x1="286.512" y1="-441.291" x2="289.854" y2="-436.145"/><linearGradient xlink:href="#weather-snow-e" id="weather-snow-I" gradientUnits="userSpaceOnUse" x1="287.517" y1="-439.753" x2="289.676" y2="-436.322"/><linearGradient xlink:href="#weather-snow-f" id="weather-snow-H" gradientUnits="userSpaceOnUse" x1="271.022" y1="-441.052" x2="285.029" y2="-431.97"/><linearGradient xlink:href="#weather-snow-a" id="weather-snow-G" gradientUnits="userSpaceOnUse" x1="284.802" y1="-441.233" x2="288.9" y2="-436.831"/><linearGradient id="weather-snow-b"><stop offset="0" stop-color="#fff"/><stop offset="1" stop-color="#fff" stop-opacity="0"/></linearGradient><linearGradient xlink:href="#weather-snow-b" id="weather-snow-F" gradientUnits="userSpaceOnUse" x1="286.666" y1="-439.484" x2="289.766" y2="-436.707"/><linearGradient id="weather-snow-c"><stop offset="0" stop-color="#fff"/><stop offset="1" stop-color="#fff" stop-opacity="0"/></linearGradient><linearGradient xlink:href="#weather-snow-c" id="weather-snow-E" gradientUnits="userSpaceOnUse" x1="275.942" y1="-437.105" x2="279.975" y2="-431.918"/><linearGradient id="weather-snow-a"><stop offset="0" stop-color="#fff"/><stop offset="1" stop-color="#fff" stop-opacity="0"/></linearGradient><linearGradient xlink:href="#weather-snow-a" id="weather-snow-D" gradientUnits="userSpaceOnUse" x1="285.941" y1="-439.939" x2="289.391" y2="-436.443"/><linearGradient id="weather-snow-d"><stop offset="0" stop-color="#fff"/><stop offset="1" stop-color="#fff" stop-opacity="0"/></linearGradient><linearGradient xlink:href="#weather-snow-d" id="weather-snow-C" gradientUnits="userSpaceOnUse" x1="286.512" y1="-441.291" x2="289.854" y2="-436.145"/><linearGradient id="weather-snow-e"><stop offset="0" stop-color="#fff"/><stop offset="1" stop-color="#fff" stop-opacity="0"/></linearGradient><linearGradient xlink:href="#weather-snow-e" id="weather-snow-B" gradientUnits="userSpaceOnUse" x1="287.517" y1="-439.753" x2="289.676" y2="-436.322"/><linearGradient id="weather-snow-f"><stop offset="0" stop-color="#fff"/><stop offset="1" stop-color="#fff" stop-opacity="0"/></linearGradient><linearGradient xlink:href="#weather-snow-f" id="weather-snow-A" gradientUnits="userSpaceOnUse" x1="271.022" y1="-441.052" x2="285.029" y2="-431.97"/><linearGradient id="weather-snow-g"><stop offset="0" stop-color="#fff"/><stop offset="1" stop-color="#fff" stop-opacity="0"/></linearGradient><linearGradient xlink:href="#weather-snow-g" id="weather-snow-z" gradientUnits="userSpaceOnUse" x1="-156.29" y1="-100.534" x2="-153.098" y2="-96.545"/><linearGradient id="weather-snow-h"><stop offset="0" stop-color="#fff"/><stop offset="1" stop-color="#fff" stop-opacity="0"/></linearGradient><linearGradient xlink:href="#weather-snow-h" id="weather-snow-y" gradientUnits="userSpaceOnUse" x1="238.005" y1="-388.475" x2="245.655" y2="-382.645"/><linearGradient id="weather-snow-i"><stop offset="0" stop-color="#fff"/><stop offset="1" stop-color="#fff" stop-opacity="0"/></linearGradient><linearGradient xlink:href="#weather-snow-i" id="weather-snow-x" gradientUnits="userSpaceOnUse" x1="230.876" y1="-390.44" x2="235.257" y2="-386.959"/><linearGradient id="weather-snow-j"><stop offset="0" stop-color="#fff"/><stop offset="1" stop-color="#fff" stop-opacity="0"/></linearGradient><linearGradient xlink:href="#weather-snow-j" id="weather-snow-w" gradientUnits="userSpaceOnUse" x1="246.74" y1="-391.314" x2="252.698" y2="-385.352"/><linearGradient id="weather-snow-k"><stop offset="0" stop-color="#fff"/><stop offset="1" stop-color="#fff" stop-opacity="0"/></linearGradient><linearGradient xlink:href="#weather-snow-k" id="weather-snow-v" gradientUnits="userSpaceOnUse" x1="240.074" y1="-393.407" x2="245.827" y2="-388.55"/><linearGradient id="weather-snow-l"><stop offset="0" stop-color="#fff"/><stop offset="1" stop-color="#fff" stop-opacity="0"/></linearGradient><linearGradient xlink:href="#weather-snow-l" id="weather-snow-u" gradientUnits="userSpaceOnUse" gradientTransform="translate(122.023 102)" x1="228.503" y1="-392.306" x2="278.915" y2="-375.38"/><linearGradient xlink:href="#weather-snow-m" gradientUnits="userSpaceOnUse" x1="-27.007" y1="-37.55" x2="-34.7" y2="-4.449"/><linearGradient xlink:href="#weather-snow-n" gradientUnits="userSpaceOnUse" x1="-25.137" y1="-1.249" x2="-35.653" y2="-24.884"/><linearGradient xlink:href="#weather-snow-o" gradientUnits="userSpaceOnUse" x1="11.149" y1="-43.997" x2="4.963" y2="-8.308"/><linearGradient id="weather-snow-t"><stop offset="0"/><stop offset="1" stop-opacity="0"/></linearGradient><linearGradient id="weather-snow-o"><stop offset="0" stop-color="#fff"/><stop offset="1" stop-color="#fff" stop-opacity="0"/></linearGradient><linearGradient id="weather-snow-m"><stop offset="0" stop-color="#fff"/><stop offset="1" stop-color="#fff" stop-opacity="0"/></linearGradient><linearGradient id="weather-snow-s"><stop offset="0" stop-color="#edd400"/><stop offset="1" stop-color="#edd400" stop-opacity="0"/></linearGradient><linearGradient id="weather-snow-n"><stop offset="0" stop-color="#fcaf3e"/><stop offset="1" stop-color="#fcaf3e" stop-opacity="0"/></linearGradient><linearGradient id="weather-snow-r"><stop offset="0" stop-color="#fce94f"/><stop offset="1" stop-color="#fce94f" stop-opacity="0"/></linearGradient><linearGradient id="weather-snow-q"><stop offset="0" stop-color="#eeeeec"/><stop offset="1" stop-color="#eeeeec" stop-opacity="0"/></linearGradient><linearGradient id="weather-snow-p"><stop offset="0" stop-color="#fff"/><stop offset="1" stop-color="#fff" stop-opacity="0"/></linearGradient><linearGradient xlink:href="#weather-snow-p" gradientUnits="userSpaceOnUse" x1="14.261" y1="9.286" x2="16.852" y2="16.269" gradientTransform="translate(-1.609 3.097)"/><linearGradient xlink:href="#weather-snow-p" gradientUnits="userSpaceOnUse" gradientTransform="translate(3.555 .969)" x1="14.261" y1="9.286" x2="16.852" y2="16.269"/><linearGradient xlink:href="#weather-snow-p" gradientUnits="userSpaceOnUse" gradientTransform="translate(9.264 3.495)" x1="14.261" y1="9.286" x2="16.852" y2="16.269"/><linearGradient xlink:href="#weather-snow-p" gradientUnits="userSpaceOnUse" gradientTransform="translate(8.497 -2.331)" x1="14.261" y1="9.286" x2="16.852" y2="16.269"/><linearGradient xlink:href="#weather-snow-p" gradientUnits="userSpaceOnUse" gradientTransform="translate(14.463 2.014)" x1="14.261" y1="9.286" x2="16.852" y2="16.269"/><linearGradient xlink:href="#weather-snow-p" gradientUnits="userSpaceOnUse" gradientTransform="matrix(.751 0 0 1 -.197 7.613)" x1="14.261" y1="9.286" x2="16.852" y2="16.269"/><linearGradient xlink:href="#weather-snow-p" gradientUnits="userSpaceOnUse" gradientTransform="matrix(1.284 0 0 1 14.62 4.452)" x1="14.261" y1="9.286" x2="16.852" y2="16.269"/><linearGradient xlink:href="#weather-snow-p" gradientUnits="userSpaceOnUse" gradientTransform="matrix(.834 0 0 1 14.876 8.57)" x1="14.261" y1="9.286" x2="16.852" y2="16.269"/><linearGradient xlink:href="#weather-snow-p" gradientUnits="userSpaceOnUse" gradientTransform="matrix(1.462 0 0 1.262 -5.687 1.81)" x1="14.261" y1="9.286" x2="16.852" y2="16.269"/><linearGradient xlink:href="#weather-snow-p" gradientUnits="userSpaceOnUse" gradientTransform="matrix(1.107 0 0 1 6.384 6.5)" x1="14.261" y1="9.286" x2="16.852" y2="16.269"/><linearGradient xlink:href="#weather-snow-p" gradientUnits="userSpaceOnUse" gradientTransform="translate(1.708 -5.784)" x1="14.261" y1="9.286" x2="16.852" y2="16.269"/><linearGradient xlink:href="#weather-snow-p" gradientUnits="userSpaceOnUse" gradientTransform="matrix(-.976 0 0 1 53.948 8.564)" x1="14.261" y1="9.286" x2="16.852" y2="16.269"/><linearGradient xlink:href="#weather-snow-p" gradientUnits="userSpaceOnUse" gradientTransform="translate(16.14 24.664)" x1="14.261" y1="9.286" x2="16.852" y2="16.269"/><linearGradient xlink:href="#weather-snow-p" gradientUnits="userSpaceOnUse" gradientTransform="translate(-.932 25.872)" x1="14.261" y1="9.286" x2="16.852" y2="16.269"/><linearGradient xlink:href="#weather-snow-p" gradientUnits="userSpaceOnUse" gradientTransform="translate(5.357 23.869)" x1="14.261" y1="9.286" x2="16.852" y2="16.269"/><linearGradient xlink:href="#weather-snow-p" gradientUnits="userSpaceOnUse" gradientTransform="translate(11.19 26.52)" x1="14.261" y1="9.286" x2="16.852" y2="16.269"/><linearGradient xlink:href="#weather-snow-p" gradientUnits="userSpaceOnUse" gradientTransform="translate(10.306 19.273)" x1="14.261" y1="9.286" x2="16.852" y2="16.269"/><linearGradient xlink:href="#weather-snow-p" gradientUnits="userSpaceOnUse" gradientTransform="matrix(.751 0 0 1 .229 30.763)" x1="14.261" y1="9.286" x2="16.852" y2="16.269"/><linearGradient xlink:href="#weather-snow-p" gradientUnits="userSpaceOnUse" gradientTransform="matrix(1.284 0 0 1 16.671 27.227)" x1="14.261" y1="9.286" x2="16.852" y2="16.269"/><linearGradient xlink:href="#weather-snow-p" gradientUnits="userSpaceOnUse" gradientTransform="matrix(.834 0 0 1 17.053 31.47)" x1="14.261" y1="9.286" x2="16.852" y2="16.269"/><linearGradient xlink:href="#weather-snow-p" gradientUnits="userSpaceOnUse" gradientTransform="matrix(1.462 0 0 1.262 -4.011 24.96)" x1="14.261" y1="9.286" x2="16.852" y2="16.269"/><linearGradient xlink:href="#weather-snow-p" gradientUnits="userSpaceOnUse" gradientTransform="matrix(1.107 0 0 1 8.185 29.526)" x1="14.261" y1="9.286" x2="16.852" y2="16.269"/><linearGradient xlink:href="#weather-snow-p" gradientUnits="userSpaceOnUse" gradientTransform="translate(4.208 21.305)" x1="14.261" y1="9.286" x2="16.852" y2="16.269"/><linearGradient xlink:href="#weather-snow-p" gradientUnits="userSpaceOnUse" gradientTransform="matrix(-.976 0 0 1 56.124 32.089)" x1="14.261" y1="9.286" x2="16.852" y2="16.269"/><linearGradient xlink:href="#weather-snow-q" x1="6.665" y1="13.803" x2="41.404" y2="13.803" gradientUnits="userSpaceOnUse" gradientTransform="matrix(.992 0 0 .991 1.129 5.404)"/><linearGradient xlink:href="#weather-snow-p" gradientUnits="userSpaceOnUse" gradientTransform="translate(14.463 2.014)" x1="14.261" y1="9.286" x2="16.852" y2="16.269"/><linearGradient xlink:href="#weather-snow-p" gradientUnits="userSpaceOnUse" gradientTransform="translate(8.497 -2.331)" x1="14.261" y1="9.286" x2="16.852" y2="16.269"/><linearGradient xlink:href="#weather-snow-p" gradientUnits="userSpaceOnUse" gradientTransform="translate(-1.609 3.097)" x1="14.261" y1="9.286" x2="16.852" y2="16.269"/><linearGradient xlink:href="#weather-snow-p" gradientUnits="userSpaceOnUse" gradientTransform="translate(3.555 .969)" x1="14.261" y1="9.286" x2="16.852" y2="16.269"/><linearGradient xlink:href="#weather-snow-p" gradientUnits="userSpaceOnUse" gradientTransform="translate(9.264 3.495)" x1="14.261" y1="9.286" x2="16.852" y2="16.269"/><linearGradient xlink:href="#weather-snow-p" gradientUnits="userSpaceOnUse" gradientTransform="matrix(.751 0 0 1 -.197 7.613)" x1="14.261" y1="9.286" x2="16.852" y2="16.269"/><linearGradient xlink:href="#weather-snow-p" gradientUnits="userSpaceOnUse" gradientTransform="matrix(1.284 0 0 1 14.62 4.452)" x1="14.261" y1="9.286" x2="16.852" y2="16.269"/><linearGradient xlink:href="#weather-snow-p" gradientUnits="userSpaceOnUse" gradientTransform="matrix(.834 0 0 1 14.876 8.57)" x1="14.261" y1="9.286" x2="16.852" y2="16.269"/><linearGradient xlink:href="#weather-snow-p" gradientUnits="userSpaceOnUse" gradientTransform="matrix(1.462 0 0 1.262 -5.687 1.81)" x1="14.261" y1="9.286" x2="16.852" y2="16.269"/><linearGradient xlink:href="#weather-snow-p" gradientUnits="userSpaceOnUse" gradientTransform="matrix(1.107 0 0 1 6.384 6.5)" x1="14.261" y1="9.286" x2="16.852" y2="16.269"/><linearGradient xlink:href="#weather-snow-p" gradientUnits="userSpaceOnUse" gradientTransform="matrix(-.976 0 0 1 53.948 8.564)" x1="14.261" y1="9.286" x2="16.852" y2="16.269"/><linearGradient xlink:href="#weather-snow-q" gradientUnits="userSpaceOnUse" gradientTransform="matrix(.992 0 0 .991 1.129 5.404)" x1="6.665" y1="13.803" x2="41.404" y2="13.803"/><linearGradient xlink:href="#weather-snow-q" gradientUnits="userSpaceOnUse" gradientTransform="matrix(.992 0 0 .991 4.379 10.654)" x1="6.665" y1="13.803" x2="41.404" y2="13.803"/><linearGradient xlink:href="#weather-snow-p" gradientUnits="userSpaceOnUse" gradientTransform="matrix(1.107 0 0 1 9.634 11.75)" x1="14.261" y1="9.286" x2="16.852" y2="16.269"/><linearGradient xlink:href="#weather-snow-p" gradientUnits="userSpaceOnUse" gradientTransform="matrix(1.462 0 0 1.262 -2.437 7.06)" x1="14.261" y1="9.286" x2="16.852" y2="16.269"/><linearGradient xlink:href="#weather-snow-p" gradientUnits="userSpaceOnUse" gradientTransform="matrix(.834 0 0 1 18.126 13.82)" x1="14.261" y1="9.286" x2="16.852" y2="16.269"/><linearGradient xlink:href="#weather-snow-p" gradientUnits="userSpaceOnUse" gradientTransform="matrix(.751 0 0 1 3.053 12.863)" x1="14.261" y1="9.286" x2="16.852" y2="16.269"/><linearGradient xlink:href="#weather-snow-p" gradientUnits="userSpaceOnUse" gradientTransform="translate(12.514 8.745)" x1="14.261" y1="9.286" x2="16.852" y2="16.269"/><linearGradient xlink:href="#weather-snow-p" gradientUnits="userSpaceOnUse" gradientTransform="translate(6.805 6.219)" x1="14.261" y1="9.286" x2="16.852" y2="16.269"/><linearGradient xlink:href="#weather-snow-p" gradientUnits="userSpaceOnUse" gradientTransform="translate(1.641 8.347)" x1="14.261" y1="9.286" x2="16.852" y2="16.269"/><linearGradient xlink:href="#weather-snow-p" gradientUnits="userSpaceOnUse" gradientTransform="translate(.842 -3.998)" x1="14.261" y1="9.286" x2="16.852" y2="16.269"/><linearGradient xlink:href="#weather-snow-r" x1="37" y1="-21.75" x2="53.75" y2="9" gradientUnits="userSpaceOnUse"/><linearGradient xlink:href="#weather-snow-r" gradientUnits="userSpaceOnUse" x1="37" y1="-21.75" x2="53.75" y2="9" gradientTransform="matrix(.889 0 0 .618 -4.771 39.814)"/><linearGradient xlink:href="#weather-snow-r" gradientUnits="userSpaceOnUse" gradientTransform="matrix(.606 0 0 .711 -.225 42.195)" x1="38.858" y1="-18.407" x2="53.75" y2="9"/><linearGradient xlink:href="#weather-snow-r" gradientUnits="userSpaceOnUse" gradientTransform="matrix(.414 0 0 .779 -1.911 36.879)" x1="37" y1="-21.75" x2="53.75" y2="9"/><linearGradient xlink:href="#weather-snow-n" x1="-25.137" y1="-1.249" x2="-35.653" y2="-24.884" gradientUnits="userSpaceOnUse"/><linearGradient xlink:href="#weather-snow-p" gradientUnits="userSpaceOnUse" gradientTransform="translate(17.338 3.416)" x1="14.261" y1="9.286" x2="16.852" y2="16.269"/><linearGradient xlink:href="#weather-snow-p" gradientUnits="userSpaceOnUse" gradientTransform="translate(13.401 1.353)" x1="14.261" y1="9.286" x2="16.852" y2="16.269"/><linearGradient xlink:href="#weather-snow-p" gradientUnits="userSpaceOnUse" gradientTransform="translate(-7.5 1.709)" x1="14.261" y1="9.286" x2="16.852" y2="16.269"/><linearGradient xlink:href="#weather-snow-p" gradientUnits="userSpaceOnUse" gradientTransform="translate(-.727 2.481)" x1="14.261" y1="9.286" x2="16.852" y2="16.269"/><linearGradient xlink:href="#weather-snow-s" x1="23.304" y1="29.116" x2="29.75" y2="46.093" gradientUnits="userSpaceOnUse"/><linearGradient xlink:href="#weather-snow-p" gradientUnits="userSpaceOnUse" gradientTransform="translate(13.401 1.353)" x1="14.261" y1="9.286" x2="16.852" y2="16.269"/><linearGradient xlink:href="#weather-snow-p" gradientUnits="userSpaceOnUse" gradientTransform="translate(1.641 8.347)" x1="14.261" y1="9.286" x2="16.852" y2="16.269"/><linearGradient xlink:href="#weather-snow-p" gradientUnits="userSpaceOnUse" gradientTransform="translate(6.805 6.219)" x1="14.261" y1="9.286" x2="16.852" y2="16.269"/><linearGradient xlink:href="#weather-snow-p" gradientUnits="userSpaceOnUse" gradientTransform="translate(12.514 8.745)" x1="14.261" y1="9.286" x2="16.852" y2="16.269"/><linearGradient xlink:href="#weather-snow-p" gradientUnits="userSpaceOnUse" gradientTransform="matrix(.751 0 0 1 3.053 12.863)" x1="14.261" y1="9.286" x2="16.852" y2="16.269"/><linearGradient xlink:href="#weather-snow-p" gradientUnits="userSpaceOnUse" gradientTransform="matrix(.834 0 0 1 18.126 13.82)" x1="14.261" y1="9.286" x2="16.852" y2="16.269"/><linearGradient xlink:href="#weather-snow-p" gradientUnits="userSpaceOnUse" gradientTransform="matrix(1.462 0 0 1.262 -2.437 7.06)" x1="14.261" y1="9.286" x2="16.852" y2="16.269"/><linearGradient xlink:href="#weather-snow-p" gradientUnits="userSpaceOnUse" gradientTransform="matrix(1.107 0 0 1 9.634 11.75)" x1="14.261" y1="9.286" x2="16.852" y2="16.269"/><linearGradient xlink:href="#weather-snow-p" gradientUnits="userSpaceOnUse" gradientTransform="matrix(1.107 0 0 1 .795 6.094)" x1="14.261" y1="9.286" x2="16.852" y2="16.269"/><linearGradient xlink:href="#weather-snow-p" gradientUnits="userSpaceOnUse" gradientTransform="matrix(1.462 0 0 1.262 -11.276 1.403)" x1="14.261" y1="9.286" x2="16.852" y2="16.269"/><linearGradient xlink:href="#weather-snow-p" gradientUnits="userSpaceOnUse" gradientTransform="matrix(.834 0 0 1 9.287 8.163)" x1="14.261" y1="9.286" x2="16.852" y2="16.269"/><linearGradient xlink:href="#weather-snow-p" gradientUnits="userSpaceOnUse" gradientTransform="matrix(.751 0 0 1 -5.786 7.206)" x1="14.261" y1="9.286" x2="16.852" y2="16.269"/><linearGradient xlink:href="#weather-snow-p" gradientUnits="userSpaceOnUse" gradientTransform="translate(3.675 3.088)" x1="14.261" y1="9.286" x2="16.852" y2="16.269"/><linearGradient xlink:href="#weather-snow-p" gradientUnits="userSpaceOnUse" gradientTransform="translate(-2.034 .562)" x1="14.261" y1="9.286" x2="16.852" y2="16.269"/><linearGradient xlink:href="#weather-snow-p" gradientUnits="userSpaceOnUse" gradientTransform="translate(-7.198 2.69)" x1="14.261" y1="9.286" x2="16.852" y2="16.269"/><linearGradient xlink:href="#weather-snow-p" gradientUnits="userSpaceOnUse" gradientTransform="translate(4.562 -4.303)" x1="14.261" y1="9.286" x2="16.852" y2="16.269"/><linearGradient xlink:href="#weather-snow-p" gradientUnits="userSpaceOnUse" gradientTransform="translate(88.493 -9.698)" x1="14.261" y1="9.286" x2="16.852" y2="16.269"/><linearGradient xlink:href="#weather-snow-p" gradientUnits="userSpaceOnUse" gradientTransform="matrix(1.462 0 0 1.262 56.255 -12.394)" x1="14.261" y1="9.286" x2="16.852" y2="16.269"/><linearGradient xlink:href="#weather-snow-p" gradientUnits="userSpaceOnUse" gradientTransform="matrix(1.284 0 0 1 79.369 -3.194)" x1="14.261" y1="9.286" x2="16.852" y2="16.269"/><linearGradient xlink:href="#weather-snow-n" gradientUnits="userSpaceOnUse" x1="-25.137" y1="-1.249" x2="-35.653" y2="-24.884"/><linearGradient xlink:href="#weather-snow-p" gradientUnits="userSpaceOnUse" gradientTransform="translate(-7.198 2.69)" x1="14.261" y1="9.286" x2="16.852" y2="16.269"/><linearGradient xlink:href="#weather-snow-p" gradientUnits="userSpaceOnUse" gradientTransform="translate(-2.034 .562)" x1="14.261" y1="9.286" x2="16.852" y2="16.269"/><linearGradient xlink:href="#weather-snow-p" gradientUnits="userSpaceOnUse" gradientTransform="translate(3.675 3.088)" x1="14.261" y1="9.286" x2="16.852" y2="16.269"/><linearGradient xlink:href="#weather-snow-p" gradientUnits="userSpaceOnUse" gradientTransform="matrix(.751 0 0 1 -5.786 7.206)" x1="14.261" y1="9.286" x2="16.852" y2="16.269"/><linearGradient xlink:href="#weather-snow-p" gradientUnits="userSpaceOnUse" gradientTransform="matrix(.834 0 0 1 9.287 8.163)" x1="14.261" y1="9.286" x2="16.852" y2="16.269"/><linearGradient xlink:href="#weather-snow-p" gradientUnits="userSpaceOnUse" gradientTransform="matrix(1.462 0 0 1.262 -11.276 1.403)" x1="14.261" y1="9.286" x2="16.852" y2="16.269"/><linearGradient xlink:href="#weather-snow-p" gradientUnits="userSpaceOnUse" gradientTransform="matrix(1.107 0 0 1 .795 6.094)" x1="14.261" y1="9.286" x2="16.852" y2="16.269"/><linearGradient xlink:href="#weather-snow-p" gradientUnits="userSpaceOnUse" gradientTransform="matrix(-.976 0 0 1 123.116 -5.446)" x1="14.261" y1="9.286" x2="16.852" y2="16.269"/><linearGradient xlink:href="#weather-snow-p" gradientUnits="userSpaceOnUse" gradientTransform="translate(57.977 -10.569)" x1="14.261" y1="9.286" x2="16.852" y2="16.269"/><linearGradient xlink:href="#weather-snow-n" gradientUnits="userSpaceOnUse" x1="-25.137" y1="-1.249" x2="-35.653" y2="-24.884"/><radialGradient xlink:href="#weather-snow-t" cx="-35.002" cy="-1.144" fx="-35.002" fy="-1.144" r="17.501" gradientTransform="matrix(1 0 0 .566 0 -.497)" gradientUnits="userSpaceOnUse"/><linearGradient xlink:href="#weather-snow-m" gradientUnits="userSpaceOnUse" x1="-27.007" y1="-37.55" x2="-34.7" y2="-4.449"/><linearGradient xlink:href="#weather-snow-o" gradientUnits="userSpaceOnUse" x1="11.149" y1="-43.997" x2="4.963" y2="-8.308"/><linearGradient xlink:href="#weather-snow-o" gradientUnits="userSpaceOnUse" x1="11.149" y1="-43.997" x2="4.963" y2="-8.308"/><linearGradient xlink:href="#weather-snow-n" gradientUnits="userSpaceOnUse" x1="-25.137" y1="-1.249" x2="-35.653" y2="-24.884"/><linearGradient xlink:href="#weather-snow-m" gradientUnits="userSpaceOnUse" x1="-27.007" y1="-37.55" x2="-34.7" y2="-4.449"/></defs><g><g transform="translate(-340.046 298)"><path d="M364.523-296c-2.772 0-5.108 1.574-6.406 3.813-.944-.475-1.965-.813-3.094-.813-3.864 0-7 3.136-7 7s3.136 7 7 7c2.42 0 4.43-1.319 5.688-3.188 1.134.69 2.389 1.188 3.813 1.188.913 0 1.753-.232 2.563-.531.51.868 1.179 1.58 2 2.156l-.063.375c0 3.864 3.136 7 7 7s7-3.136 7-7c0-2.37-1.259-4.358-3.063-5.625l.063-.375c0-3.864-3.136-7-7-7-.623 0-1.175.222-1.75.375-1.195-2.559-3.741-4.375-6.75-4.375z" fill="#888a85"/><path d="M364.523-295c-2.78 0-5.135 1.762-6.063 4.219-.985-.709-2.131-1.219-3.438-1.219-3.312 0-6 2.688-6 6s2.688 6 6 6c2.428 0 4.493-1.456 5.438-3.531 1.121.918 2.502 1.531 4.063 1.531 1.075 0 2.044-.319 2.938-.781.398 1 1.101 1.786 1.938 2.438-.18.596-.375 1.19-.375 1.844 0 3.588 2.912 6.5 6.5 6.5s6.5-2.912 6.5-6.5c0-2.361-1.334-4.33-3.219-5.469.063-.347.219-.666.219-1.031 0-3.312-2.688-6-6-6-.853 0-1.671.179-2.406.5-.854-2.594-3.215-4.5-6.094-4.5z" fill="url(#weather-snow-u)"/><path transform="matrix(.964 0 0 .964 142.311 91.526)" d="M248.548-383.667a6.74 6.74 0 1 1-13.479 0 6.74 6.74 0 1 1 13.479 0z" fill="#c4c5c2"/><g><path d="M250.183-389.301a6.231 6.231 0 1 1-12.463 0 6.231 6.231 0 1 1 12.463 0z" transform="matrix(.883 0 0 .883 149.204 55.109)" fill="#c4c5c2"/><path d="M250.183-389.301a6.231 6.231 0 1 1-12.463 0 6.231 6.231 0 1 1 12.463 0z" transform="matrix(.883 0 0 .883 149.204 55.109)" fill="url(#weather-snow-v)"/></g><g><path d="M257.254-385.788a6.033 6.033 0 1 1-12.065 0 6.033 6.033 0 1 1 12.065 0z" transform="matrix(.912 0 0 .912 143.477 67.234)" fill="#c4c5c2"/><path d="M257.254-385.788a6.033 6.033 0 1 1-12.065 0 6.033 6.033 0 1 1 12.065 0z" transform="matrix(.912 0 0 .912 143.477 67.234)" fill="url(#weather-snow-w)"/></g><g><path d="M237.809-387.887a4.375 4.375 0 1 1-8.75 0 4.375 4.375 0 1 1 8.75 0z" transform="matrix(1.143 0 0 1.143 88.255 157.277)" fill="#c4c5c2"/><path d="M237.809-387.887a4.375 4.375 0 1 1-8.75 0 4.375 4.375 0 1 1 8.75 0z" transform="matrix(1.143 0 0 1.143 88.255 157.277)" fill="url(#weather-snow-x)"/></g><g><path d="M248.548-383.667a6.74 6.74 0 1 1-13.479 0 6.74 6.74 0 1 1 13.479 0z" transform="matrix(1.039 0 0 1.039 112.872 116.49)" fill="#c4c5c2"/><path d="M248.548-383.667a6.74 6.74 0 1 1-13.479 0 6.74 6.74 0 1 1 13.479 0z" transform="matrix(1.039 0 0 1.039 112.872 116.49)" fill="url(#weather-snow-y)"/></g><g><path d="M-151.938-96.938a3.125 3.125 0 1 1-6.25 0 3.125 3.125 0 1 1 6.25 0z" transform="matrix(1.625 0 0 1.625 603.476 -122.095)" fill="#c4c5c2"/><path d="M-151.938-96.938a3.125 3.125 0 1 1-6.25 0 3.125 3.125 0 1 1 6.25 0z" transform="matrix(1.625 0 0 1.625 603.535 -122.153)" fill="url(#weather-snow-z)"/></g><g transform="translate(91.023 162)"><path d="M280.5-445.5c-2.271 0-4.11 1.55-4.719 3.625-.693-.364-1.445-.625-2.281-.625-2.76 0-5 2.24-5 5 0 .579.163 1.108.344 1.625-1.373.771-2.344 2.189-2.344 3.875 0 2.484 2.016 4.5 4.5 4.5h19c2.484 0 4.5-2.016 4.5-4.5 0-1.686-.97-3.104-2.344-3.875.181-.517.344-1.046.344-1.625 0-2.76-2.24-5-5-5-.837 0-1.588.261-2.281.625-.609-2.075-2.448-3.625-4.719-3.625z" fill="#c4c5c2" stroke="#888a85" stroke-miterlimit="2"/><path d="M280.5-445c-2.19 0-3.724 1.336-4.396 3.844-.668-.344-1.548-.833-2.354-.833-2.717 0-4.755 1.939-4.755 4.546 0 .547.267 1.333.442 1.822-1.324.728-2.437 1.89-2.437 3.373 0 2.346 1.546 4.25 4.339 4.25h18.321c2.771 0 4.339-1.904 4.339-4.25 0-1.592-1.112-2.667-2.437-3.395.175-.489.464-1.253.464-1.8 0-2.607-2.116-4.568-4.777-4.568-.807 0-1.642.49-2.31.833-.649-2.422-2.25-3.821-4.44-3.821z" fill="url(#weather-snow-A)"/><g><path transform="matrix(1.057 0 0 1.057 -24.198 21.863)" d="M291.688-437.594a3.313 3.313 0 1 1-6.625 0 3.313 3.313 0 1 1 6.625 0z" fill="#c4c5c2"/><path transform="matrix(1.057 0 0 1.057 -24.198 21.863)" d="M291.688-437.594a3.313 3.313 0 1 1-6.625 0 3.313 3.313 0 1 1 6.625 0z" fill="url(#weather-snow-B)"/></g><rect width="20" height="9" x="271" y="-438" fill="#c4c5c2"/><path d="M291.688-437.594a3.313 3.313 0 1 1-6.625 0 3.313 3.313 0 1 1 6.625 0z" transform="matrix(.906 0 0 .906 9.83 -35.689)" fill="#c4c5c2"/><g><path transform="matrix(1.057 0 0 1.057 -17.198 24.863)" d="M291.688-437.594a3.313 3.313 0 1 1-6.625 0 3.313 3.313 0 1 1 6.625 0z" fill="#c4c5c2"/><path transform="matrix(1.057 0 0 1.057 -17.198 24.863)" d="M291.688-437.594a3.313 3.313 0 1 1-6.625 0 3.313 3.313 0 1 1 6.625 0z" fill="url(#weather-snow-C)"/></g><g><path transform="matrix(1.057 0 0 1.057 -31.198 24.863)" d="M291.688-437.594a3.313 3.313 0 1 1-6.625 0 3.313 3.313 0 1 1 6.625 0z" fill="#c4c5c2"/><path transform="matrix(1.057 0 0 1.057 -31.198 24.863)" d="M291.688-437.594a3.313 3.313 0 1 1-6.625 0 3.313 3.313 0 1 1 6.625 0z" fill="url(#weather-snow-D)"/></g><g><path d="M279.469-440.969c-3.579 0-6.469 2.921-6.469 6.5 0 2.371 1.349 4.338 3.25 5.469h6.469c1.901-1.131 3.25-3.129 3.25-5.5 0-3.579-2.921-6.469-6.5-6.469z" fill="#c4c5c2"/><path d="M279.5-441c-3.588 0-6.5 2.912-6.5 6.5 0 2.376 1.345 4.366 3.25 5.5h6.5c1.905-1.134 3.25-3.124 3.25-5.5 0-3.588-2.912-6.5-6.5-6.5z" fill="url(#weather-snow-E)"/></g><path d="M291.688-437.594a3.313 3.313 0 1 1-6.625 0 3.313 3.313 0 1 1 6.625 0z" transform="matrix(.906 0 0 .906 9.83 -35.689)" fill="url(#weather-snow-F)"/><path d="M292.956-437.334c-.002 2.685-3.269 3.714-3.269 3.714s2.349-1.626 2.337-3.705l.932-.009z" fill="#888a85" fill-rule="evenodd"/><g><path transform="matrix(1.208 0 0 1.208 -64.23 95.418)" d="M291.688-437.594a3.313 3.313 0 1 1-6.625 0 3.313 3.313 0 1 1 6.625 0z" fill="#c4c5c2"/><path transform="matrix(1.208 0 0 1.208 -64.23 95.418)" d="M291.688-437.594a3.313 3.313 0 1 1-6.625 0 3.313 3.313 0 1 1 6.625 0z" fill="url(#weather-snow-G)"/></g></g><g transform="translate(76.02 158)"><path d="M280.5-445.5c-2.271 0-4.11 1.55-4.719 3.625-.693-.364-1.445-.625-2.281-.625-2.76 0-5 2.24-5 5 0 .579.163 1.108.344 1.625-1.373.771-2.344 2.189-2.344 3.875 0 2.484 2.016 4.5 4.5 4.5h19c2.484 0 4.5-2.016 4.5-4.5 0-1.686-.97-3.104-2.344-3.875.181-.517.344-1.046.344-1.625 0-2.76-2.24-5-5-5-.837 0-1.588.261-2.281.625-.609-2.075-2.448-3.625-4.719-3.625z" fill="#c4c5c2" stroke="#888a85" stroke-miterlimit="2"/><path d="M280.5-445c-2.19 0-3.724 1.336-4.396 3.844-.668-.344-1.548-.833-2.354-.833-2.717 0-4.755 1.939-4.755 4.546 0 .547.267 1.333.442 1.822-1.324.728-2.437 1.89-2.437 3.373 0 2.346 1.546 4.25 4.339 4.25h18.321c2.771 0 4.339-1.904 4.339-4.25 0-1.592-1.112-2.667-2.437-3.395.175-.489.464-1.253.464-1.8 0-2.607-2.116-4.568-4.777-4.568-.807 0-1.642.49-2.31.833-.649-2.422-2.25-3.821-4.44-3.821z" fill="url(#weather-snow-H)"/><g><path transform="matrix(1.057 0 0 1.057 -24.198 21.863)" d="M291.688-437.594a3.313 3.313 0 1 1-6.625 0 3.313 3.313 0 1 1 6.625 0z" fill="#c4c5c2"/><path transform="matrix(1.057 0 0 1.057 -24.198 21.863)" d="M291.688-437.594a3.313 3.313 0 1 1-6.625 0 3.313 3.313 0 1 1 6.625 0z" fill="url(#weather-snow-I)"/></g><rect width="20" height="9" x="271" y="-438" fill="#c4c5c2"/><path d="M291.688-437.594a3.313 3.313 0 1 1-6.625 0 3.313 3.313 0 1 1 6.625 0z" transform="matrix(.906 0 0 .906 9.83 -35.689)" fill="#c4c5c2"/><g><path transform="matrix(1.057 0 0 1.057 -17.198 24.863)" d="M291.688-437.594a3.313 3.313 0 1 1-6.625 0 3.313 3.313 0 1 1 6.625 0z" fill="#c4c5c2"/><path transform="matrix(1.057 0 0 1.057 -17.198 24.863)" d="M291.688-437.594a3.313 3.313 0 1 1-6.625 0 3.313 3.313 0 1 1 6.625 0z" fill="url(#weather-snow-J)"/></g><g><path transform="matrix(1.057 0 0 1.057 -31.198 24.863)" d="M291.688-437.594a3.313 3.313 0 1 1-6.625 0 3.313 3.313 0 1 1 6.625 0z" fill="#c4c5c2"/><path transform="matrix(1.057 0 0 1.057 -31.198 24.863)" d="M291.688-437.594a3.313 3.313 0 1 1-6.625 0 3.313 3.313 0 1 1 6.625 0z" fill="url(#weather-snow-K)"/></g><g><path d="M279.469-440.969c-3.579 0-6.469 2.921-6.469 6.5 0 2.371 1.349 4.338 3.25 5.469h6.469c1.901-1.131 3.25-3.129 3.25-5.5 0-3.579-2.921-6.469-6.5-6.469z" fill="#c4c5c2"/><path d="M279.5-441c-3.588 0-6.5 2.912-6.5 6.5 0 2.376 1.345 4.366 3.25 5.5h6.5c1.905-1.134 3.25-3.124 3.25-5.5 0-3.588-2.912-6.5-6.5-6.5z" fill="url(#weather-snow-L)"/></g><path d="M291.688-437.594a3.313 3.313 0 1 1-6.625 0 3.313 3.313 0 1 1 6.625 0z" transform="matrix(.906 0 0 .906 9.83 -35.689)" fill="url(#weather-snow-M)"/><path d="M292.956-437.334c-.002 2.685-3.269 3.714-3.269 3.714s2.349-1.626 2.337-3.705l.932-.009z" fill="#888a85" fill-rule="evenodd"/><g><path transform="matrix(1.208 0 0 1.208 -64.23 95.418)" d="M291.688-437.594a3.313 3.313 0 1 1-6.625 0 3.313 3.313 0 1 1 6.625 0z" fill="#c4c5c2"/><path transform="matrix(1.208 0 0 1.208 -64.23 95.418)" d="M291.688-437.594a3.313 3.313 0 1 1-6.625 0 3.313 3.313 0 1 1 6.625 0z" fill="url(#weather-snow-N)"/></g></g></g><g fill="#fff" stroke="#729fcf" stroke-miterlimit="0"><path transform="matrix(.686 0 0 .686 -11.306 249.173)" d="M31.82-316.779a2.21 2.21 0 1 1-4.419 0 2.21 2.21 0 1 1 4.419 0z" stroke-width="1.459"/><path transform="matrix(.916 0 0 .916 -10.599 325.573)" d="M31.82-316.779a2.21 2.21 0 1 1-4.419 0 2.21 2.21 0 1 1 4.419 0z" stroke-width="1.092"/><path transform="matrix(.672 0 0 .684 -9.937 256.636)" d="M31.82-316.779a2.21 2.21 0 1 1-4.419 0 2.21 2.21 0 1 1 4.419 0z" stroke-width="1.475"/><path transform="matrix(.682 0 0 .68 18.789 252.51)" d="M31.82-316.779a2.21 2.21 0 1 1-4.419 0 2.21 2.21 0 1 1 4.419 0z" stroke-width="1.468"/><path transform="matrix(1.107 0 0 1.117 -5.79 386.937)" d="M31.82-316.779a2.21 2.21 0 1 1-4.419 0 2.21 2.21 0 1 1 4.419 0z" stroke-width=".899"/><path transform="matrix(1.128 0 0 1.052 -1.396 373.388)" d="M31.82-316.779a2.21 2.21 0 1 1-4.419 0 2.21 2.21 0 1 1 4.419 0z" stroke-width=".918"/><path transform="matrix(.686 0 0 .68 1.679 256.579)" d="M31.82-316.779a2.21 2.21 0 1 1-4.419 0 2.21 2.21 0 1 1 4.419 0z" stroke-width="1.464"/></g></g></svg>