<svg xmlns="http://www.w3.org/2000/svg" xmlns:xlink="http://www.w3.org/1999/xlink" width="48" height="48"><defs><linearGradient xlink:href="#weather-few-clouds-a" id="weather-few-clouds-z" gradientUnits="userSpaceOnUse" x1="284.802" y1="-441.233" x2="288.9" y2="-436.831"/><linearGradient xlink:href="#weather-few-clouds-b" id="weather-few-clouds-y" gradientUnits="userSpaceOnUse" x1="286.666" y1="-439.484" x2="289.766" y2="-436.707"/><linearGradient xlink:href="#weather-few-clouds-c" id="weather-few-clouds-x" gradientUnits="userSpaceOnUse" x1="275.942" y1="-437.105" x2="279.975" y2="-431.918"/><linearGradient xlink:href="#weather-few-clouds-a" id="weather-few-clouds-w" gradientUnits="userSpaceOnUse" x1="285.941" y1="-439.939" x2="289.391" y2="-436.443"/><linearGradient xlink:href="#weather-few-clouds-d" id="weather-few-clouds-v" gradientUnits="userSpaceOnUse" x1="286.512" y1="-441.291" x2="289.854" y2="-436.145"/><linearGradient xlink:href="#weather-few-clouds-e" id="weather-few-clouds-u" gradientUnits="userSpaceOnUse" x1="287.517" y1="-439.753" x2="289.676" y2="-436.322"/><linearGradient xlink:href="#weather-few-clouds-f" id="weather-few-clouds-t" gradientUnits="userSpaceOnUse" x1="271.022" y1="-441.052" x2="285.029" y2="-431.97"/><linearGradient xlink:href="#weather-few-clouds-a" id="weather-few-clouds-p" gradientUnits="userSpaceOnUse" x1="284.802" y1="-441.233" x2="288.9" y2="-436.831"/><linearGradient id="weather-few-clouds-b"><stop offset="0" stop-color="#fff"/><stop offset="1" stop-color="#fff" stop-opacity="0"/></linearGradient><linearGradient xlink:href="#weather-few-clouds-b" id="weather-few-clouds-o" gradientUnits="userSpaceOnUse" x1="286.666" y1="-439.484" x2="289.766" y2="-436.707"/><linearGradient id="weather-few-clouds-c"><stop offset="0" stop-color="#fff"/><stop offset="1" stop-color="#fff" stop-opacity="0"/></linearGradient><linearGradient xlink:href="#weather-few-clouds-c" id="weather-few-clouds-n" gradientUnits="userSpaceOnUse" x1="275.942" y1="-437.105" x2="279.975" y2="-431.918"/><linearGradient id="weather-few-clouds-a"><stop offset="0" stop-color="#fff"/><stop offset="1" stop-color="#fff" stop-opacity="0"/></linearGradient><linearGradient xlink:href="#weather-few-clouds-a" id="weather-few-clouds-m" gradientUnits="userSpaceOnUse" x1="285.941" y1="-439.939" x2="289.391" y2="-436.443"/><linearGradient id="weather-few-clouds-d"><stop offset="0" stop-color="#fff"/><stop offset="1" stop-color="#fff" stop-opacity="0"/></linearGradient><linearGradient xlink:href="#weather-few-clouds-d" id="weather-few-clouds-l" gradientUnits="userSpaceOnUse" x1="286.512" y1="-441.291" x2="289.854" y2="-436.145"/><linearGradient id="weather-few-clouds-e"><stop offset="0" stop-color="#fff"/><stop offset="1" stop-color="#fff" stop-opacity="0"/></linearGradient><linearGradient xlink:href="#weather-few-clouds-e" id="weather-few-clouds-k" gradientUnits="userSpaceOnUse" x1="287.517" y1="-439.753" x2="289.676" y2="-436.322"/><linearGradient id="weather-few-clouds-f"><stop offset="0" stop-color="#fff"/><stop offset="1" stop-color="#fff" stop-opacity="0"/></linearGradient><linearGradient xlink:href="#weather-few-clouds-f" id="weather-few-clouds-j" gradientUnits="userSpaceOnUse" x1="271.022" y1="-441.052" x2="285.029" y2="-431.97"/><linearGradient id="weather-few-clouds-i"><stop offset="0" stop-color="#fff" stop-opacity="0"/><stop offset=".75" stop-color="#fff" stop-opacity="0"/><stop offset="1" stop-color="#fff"/></linearGradient><linearGradient id="weather-few-clouds-h"><stop offset="0" stop-color="#fff7c2" stop-opacity=".638"/><stop offset=".594" stop-color="#fcaf3e" stop-opacity=".183"/><stop offset=".839" stop-color="#fcaf3e" stop-opacity=".505"/><stop offset="1" stop-color="#fcaf3e"/></linearGradient><linearGradient id="weather-few-clouds-g"><stop offset="0" stop-color="#fff9c6"/><stop offset=".542" stop-color="#fff28c"/><stop offset="1" stop-color="#ffea85"/></linearGradient><linearGradient xlink:href="#weather-few-clouds-g" id="weather-few-clouds-s" gradientUnits="userSpaceOnUse" x1="-28.969" y1="-25.327" x2="-37.197" y2="-9.559"/><radialGradient xlink:href="#weather-few-clouds-h" id="weather-few-clouds-r" cx="-33.519" cy="-22.113" fx="-33.519" fy="-22.113" r="9.5" gradientUnits="userSpaceOnUse" gradientTransform="matrix(.488 1.292 -1.103 .497 -41.774 32.415)"/><radialGradient xlink:href="#weather-few-clouds-i" id="weather-few-clouds-q" cx="24" cy="23.382" fx="24" fy="23.382" r="19.142" gradientTransform="matrix(1.007 0 0 1.008 -.161 .427)" gradientUnits="userSpaceOnUse"/></defs><g><g transform="translate(-263.99 459.986)"><path d="M280.5-445.5c-2.271 0-4.11 1.55-4.719 3.625-.693-.364-1.445-.625-2.281-.625-2.76 0-5 2.24-5 5 0 .579.163 1.108.344 1.625-1.373.771-2.344 2.189-2.344 3.875 0 2.484 2.016 4.5 4.5 4.5h19c2.484 0 4.5-2.016 4.5-4.5 0-1.686-.97-3.104-2.344-3.875.181-.517.344-1.046.344-1.625 0-2.76-2.24-5-5-5-.837 0-1.588.261-2.281.625-.609-2.075-2.448-3.625-4.719-3.625z" fill="#c4c5c2" stroke="#888a85" stroke-miterlimit="2"/><path d="M280.5-445c-2.19 0-3.724 1.336-4.396 3.844-.668-.344-1.548-.833-2.354-.833-2.717 0-4.755 1.939-4.755 4.546 0 .547.267 1.333.442 1.822-1.324.728-2.437 1.89-2.437 3.373 0 2.346 1.546 4.25 4.339 4.25h18.321c2.771 0 4.339-1.904 4.339-4.25 0-1.592-1.112-2.667-2.437-3.395.175-.489.464-1.253.464-1.8 0-2.607-2.116-4.568-4.777-4.568-.807 0-1.642.49-2.31.833-.649-2.422-2.25-3.821-4.44-3.821z" fill="url(#weather-few-clouds-j)"/><g><path d="M291.688-437.594a3.313 3.313 0 1 1-6.625 0 3.313 3.313 0 1 1 6.625 0z" transform="matrix(1.057 0 0 1.057 -24.198 21.863)" fill="#c4c5c2"/><path d="M291.688-437.594a3.313 3.313 0 1 1-6.625 0 3.313 3.313 0 1 1 6.625 0z" transform="matrix(1.057 0 0 1.057 -24.198 21.863)" fill="url(#weather-few-clouds-k)"/></g><rect y="-438" x="271" height="9" width="20" fill="#c4c5c2"/><path transform="matrix(.906 0 0 .906 9.83 -35.689)" d="M291.688-437.594a3.313 3.313 0 1 1-6.625 0 3.313 3.313 0 1 1 6.625 0z" fill="#c4c5c2"/><g><path d="M291.688-437.594a3.313 3.313 0 1 1-6.625 0 3.313 3.313 0 1 1 6.625 0z" transform="matrix(1.057 0 0 1.057 -17.198 24.863)" fill="#c4c5c2"/><path d="M291.688-437.594a3.313 3.313 0 1 1-6.625 0 3.313 3.313 0 1 1 6.625 0z" transform="matrix(1.057 0 0 1.057 -17.198 24.863)" fill="url(#weather-few-clouds-l)"/></g><g><path d="M291.688-437.594a3.313 3.313 0 1 1-6.625 0 3.313 3.313 0 1 1 6.625 0z" transform="matrix(1.057 0 0 1.057 -31.198 24.863)" fill="#c4c5c2"/><path d="M291.688-437.594a3.313 3.313 0 1 1-6.625 0 3.313 3.313 0 1 1 6.625 0z" transform="matrix(1.057 0 0 1.057 -31.198 24.863)" fill="url(#weather-few-clouds-m)"/></g><g><path d="M279.469-440.969c-3.579 0-6.469 2.921-6.469 6.5 0 2.371 1.349 4.338 3.25 5.469h6.469c1.901-1.131 3.25-3.129 3.25-5.5 0-3.579-2.921-6.469-6.5-6.469z" fill="#c4c5c2"/><path d="M279.5-441c-3.588 0-6.5 2.912-6.5 6.5 0 2.376 1.345 4.366 3.25 5.5h6.5c1.905-1.134 3.25-3.124 3.25-5.5 0-3.588-2.912-6.5-6.5-6.5z" fill="url(#weather-few-clouds-n)"/></g><path transform="matrix(.906 0 0 .906 9.83 -35.689)" d="M291.688-437.594a3.313 3.313 0 1 1-6.625 0 3.313 3.313 0 1 1 6.625 0z" fill="url(#weather-few-clouds-o)"/><path d="M292.956-437.334c-.002 2.685-3.269 3.714-3.269 3.714s2.349-1.626 2.337-3.705l.932-.009z" fill="#888a85" fill-rule="evenodd"/><g><path d="M291.688-437.594a3.313 3.313 0 1 1-6.625 0 3.313 3.313 0 1 1 6.625 0z" transform="matrix(1.208 0 0 1.208 -64.23 95.418)" fill="#c4c5c2"/><path d="M291.688-437.594a3.313 3.313 0 1 1-6.625 0 3.313 3.313 0 1 1 6.625 0z" transform="matrix(1.208 0 0 1.208 -64.23 95.418)" fill="url(#weather-few-clouds-p)"/></g></g><g><g opacity=".7" stroke-linecap="square"><path d="M24 2.5l-2.375 6.688c.774-.123 1.566-.188 2.375-.188.809 0 1.601.064 2.375.188l-2.375-6.688zm-15.188 6.281l3.031 6.438c.935-1.29 2.085-2.44 3.375-3.375l-6.406-3.063zm30.406 0l-6.438 3.063c1.29.935 2.44 2.085 3.375 3.375l3.063-6.438zm-30.031 12.813l-6.688 2.375 6.688 2.375c-.12-.764-.188-1.546-.188-2.344 0-.819.061-1.622.188-2.406zm29.625.031c.123.774.188 1.566.188 2.375 0 .809-.064 1.601-.188 2.375l6.688-2.375-6.688-2.375zm-26.969 11.156l-3.031 6.406 6.406-3.031c-1.29-.935-2.44-2.085-3.375-3.375zm24.313 0c-.926 1.278-2.069 2.414-3.344 3.344l6.406 3.063-3.063-6.406zm-14.531 6.031l2.375 6.688 2.375-6.688c-.774.123-1.566.188-2.375.188-.809 0-1.601-.064-2.375-.188z" fill="#fce94f" stroke="#fcaf3e" stroke-width=".737"/><path d="M24 5.25l-1.344 3.813c.443-.039.891-.063 1.344-.063.453 0 .901.023 1.344.063l-1.344-3.813zm-13.219 5.5l1.719 3.625c.572-.681 1.224-1.336 1.906-1.906l-3.625-1.719zm26.469 0l-3.625 1.719c.68.569 1.337 1.227 1.906 1.906l1.719-3.625zm-28.188 11.875l-3.781 1.344 3.781 1.344c-.038-.432-.063-.87-.063-1.313 0-.464.021-.922.063-1.375zm29.875.031c.039.443.063.891.063 1.344 0 .453-.023.901-.063 1.344l3.781-1.344-3.781-1.344zm-3.406 10.938c-.573.686-1.221 1.364-1.906 1.938l3.625 1.719-1.719-3.656zm-23.031.031l-1.719 3.594 3.594-1.719c-.672-.564-1.311-1.203-1.875-1.875zm10.156 5.313l1.344 3.781 1.344-3.781c-.443.039-.891.063-1.344.063-.453 0-.901-.023-1.344-.063z" stroke="url(#weather-few-clouds-q)" stroke-width=".846" fill="none"/></g><g><path transform="matrix(.778 -1.061 1.061 .778 67.48 3.641)" d="M-22.5-17.5a9.5 9.5 0 1 1-19 0 9.5 9.5 0 1 1 19 0z" fill="#ffee54" stroke="#fcaf3e" stroke-width=".76" stroke-linecap="square"/><path transform="matrix(1.244 -.168 .217 1.252 67.616 40.527)" d="M-22.5-17.5a9.5 9.5 0 1 1-19 0 9.5 9.5 0 1 1 19 0z" fill="url(#weather-few-clouds-r)"/><path transform="matrix(.716 -.976 .976 .716 64 5.27)" d="M-22.5-17.5a9.5 9.5 0 1 1-19 0 9.5 9.5 0 1 1 19 0z" stroke="url(#weather-few-clouds-s)" stroke-width=".826" stroke-linecap="square" fill="none"/></g></g><g transform="translate(-248.99 467.986)"><path d="M280.5-445.5c-2.271 0-4.11 1.55-4.719 3.625-.693-.364-1.445-.625-2.281-.625-2.76 0-5 2.24-5 5 0 .579.163 1.108.344 1.625-1.373.771-2.344 2.189-2.344 3.875 0 2.484 2.016 4.5 4.5 4.5h19c2.484 0 4.5-2.016 4.5-4.5 0-1.686-.97-3.104-2.344-3.875.181-.517.344-1.046.344-1.625 0-2.76-2.24-5-5-5-.837 0-1.588.261-2.281.625-.609-2.075-2.448-3.625-4.719-3.625z" fill="#c4c5c2" stroke="#888a85" stroke-miterlimit="2"/><path d="M280.5-445c-2.19 0-3.724 1.336-4.396 3.844-.668-.344-1.548-.833-2.354-.833-2.717 0-4.755 1.939-4.755 4.546 0 .547.267 1.333.442 1.822-1.324.728-2.437 1.89-2.437 3.373 0 2.346 1.546 4.25 4.339 4.25h18.321c2.771 0 4.339-1.904 4.339-4.25 0-1.592-1.112-2.667-2.437-3.395.175-.489.464-1.253.464-1.8 0-2.607-2.116-4.568-4.777-4.568-.807 0-1.642.49-2.31.833-.649-2.422-2.25-3.821-4.44-3.821z" fill="url(#weather-few-clouds-t)"/><g><path d="M291.688-437.594a3.313 3.313 0 1 1-6.625 0 3.313 3.313 0 1 1 6.625 0z" transform="matrix(1.057 0 0 1.057 -24.198 21.863)" fill="#c4c5c2"/><path d="M291.688-437.594a3.313 3.313 0 1 1-6.625 0 3.313 3.313 0 1 1 6.625 0z" transform="matrix(1.057 0 0 1.057 -24.198 21.863)" fill="url(#weather-few-clouds-u)"/></g><rect y="-438" x="271" height="9" width="20" fill="#c4c5c2"/><path transform="matrix(.906 0 0 .906 9.83 -35.689)" d="M291.688-437.594a3.313 3.313 0 1 1-6.625 0 3.313 3.313 0 1 1 6.625 0z" fill="#c4c5c2"/><g><path d="M291.688-437.594a3.313 3.313 0 1 1-6.625 0 3.313 3.313 0 1 1 6.625 0z" transform="matrix(1.057 0 0 1.057 -17.198 24.863)" fill="#c4c5c2"/><path d="M291.688-437.594a3.313 3.313 0 1 1-6.625 0 3.313 3.313 0 1 1 6.625 0z" transform="matrix(1.057 0 0 1.057 -17.198 24.863)" fill="url(#weather-few-clouds-v)"/></g><g><path d="M291.688-437.594a3.313 3.313 0 1 1-6.625 0 3.313 3.313 0 1 1 6.625 0z" transform="matrix(1.057 0 0 1.057 -31.198 24.863)" fill="#c4c5c2"/><path d="M291.688-437.594a3.313 3.313 0 1 1-6.625 0 3.313 3.313 0 1 1 6.625 0z" transform="matrix(1.057 0 0 1.057 -31.198 24.863)" fill="url(#weather-few-clouds-w)"/></g><g><path d="M279.469-440.969c-3.579 0-6.469 2.921-6.469 6.5 0 2.371 1.349 4.338 3.25 5.469h6.469c1.901-1.131 3.25-3.129 3.25-5.5 0-3.579-2.921-6.469-6.5-6.469z" fill="#c4c5c2"/><path d="M279.5-441c-3.588 0-6.5 2.912-6.5 6.5 0 2.376 1.345 4.366 3.25 5.5h6.5c1.905-1.134 3.25-3.124 3.25-5.5 0-3.588-2.912-6.5-6.5-6.5z" fill="url(#weather-few-clouds-x)"/></g><path transform="matrix(.906 0 0 .906 9.83 -35.689)" d="M291.688-437.594a3.313 3.313 0 1 1-6.625 0 3.313 3.313 0 1 1 6.625 0z" fill="url(#weather-few-clouds-y)"/><path d="M292.956-437.334c-.002 2.685-3.269 3.714-3.269 3.714s2.349-1.626 2.337-3.705l.932-.009z" fill="#888a85" fill-rule="evenodd"/><g><path d="M291.688-437.594a3.313 3.313 0 1 1-6.625 0 3.313 3.313 0 1 1 6.625 0z" transform="matrix(1.208 0 0 1.208 -64.23 95.418)" fill="#c4c5c2"/><path d="M291.688-437.594a3.313 3.313 0 1 1-6.625 0 3.313 3.313 0 1 1 6.625 0z" transform="matrix(1.208 0 0 1.208 -64.23 95.418)" fill="url(#weather-few-clouds-z)"/></g></g></g></svg>